<?xml version="1.0" encoding="utf-8" standalone="no"?>
<!DOCTYPE svg PUBLIC "-//W3C//DTD SVG 1.1//EN"
  "http://www.w3.org/Graphics/SVG/1.1/DTD/svg11.dtd">
<svg xmlns:xlink="http://www.w3.org/1999/xlink" width="720pt" height="432pt" viewBox="0 0 720 432" xmlns="http://www.w3.org/2000/svg" version="1.1">
 <metadata>
  <rdf:RDF xmlns:dc="http://purl.org/dc/elements/1.1/" xmlns:cc="http://creativecommons.org/ns#" xmlns:rdf="http://www.w3.org/1999/02/22-rdf-syntax-ns#">
   <cc:Work>
    <dc:type rdf:resource="http://purl.org/dc/dcmitype/StillImage"/>
    <dc:date>2024-05-24T15:57:31.413487</dc:date>
    <dc:format>image/svg+xml</dc:format>
    <dc:creator>
     <cc:Agent>
      <dc:title>Matplotlib v3.7.1, https://matplotlib.org/</dc:title>
     </cc:Agent>
    </dc:creator>
   </cc:Work>
  </rdf:RDF>
 </metadata>
 <defs>
  <style type="text/css">*{stroke-linejoin: round; stroke-linecap: butt}</style>
 </defs>
 <g id="figure_1">
  <g id="patch_1">
   <path d="M 0 432 
L 720 432 
L 720 0 
L 0 0 
z
" style="fill: #ffffff"/>
  </g>
  <g id="axes_1">
   <g id="patch_2">
    <path d="M 90 384.48 
L 648 384.48 
L 648 51.84 
L 90 51.84 
z
" style="fill: #ffffff"/>
   </g>
   <g id="matplotlib.axis_1">
    <g id="xtick_1">
     <g id="line2d_1">
      <path d="M 90 384.48 
L 90 51.84 
" clip-path="url(#pb1017d8491)" style="fill: none; stroke: #b0b0b0; stroke-width: 0.8; stroke-linecap: square"/>
     </g>
     <g id="line2d_2">
      <defs>
       <path id="mf537fe664d" d="M 0 0 
L 0 3.5 
" style="stroke: #000000; stroke-width: 0.8"/>
      </defs>
      <g>
       <use xlink:href="#mf537fe664d" x="90" y="384.48" style="stroke: #000000; stroke-width: 0.8"/>
      </g>
     </g>
     <g id="text_1">
      <!-- 0 -->
      <g transform="translate(85.5 403.855) scale(0.18 -0.18)">
       <defs>
        <path id="SimHei-30" d="M 225 2537 
Q 250 3200 412 3587 
Q 575 3975 875 4225 
Q 1175 4475 1612 4475 
Q 2050 4475 2375 4112 
Q 2700 3750 2800 3200 
Q 2900 2650 2862 1937 
Q 2825 1225 2612 775 
Q 2400 325 1975 150 
Q 1550 -25 1125 187 
Q 700 400 525 750 
Q 350 1100 275 1487 
Q 200 1875 225 2537 
z
M 750 2687 
Q 675 2000 800 1462 
Q 925 925 1212 700 
Q 1500 475 1800 612 
Q 2100 750 2237 1162 
Q 2375 1575 2375 2062 
Q 2375 2550 2337 2950 
Q 2300 3350 2112 3675 
Q 1925 4000 1612 4012 
Q 1300 4025 1062 3700 
Q 825 3375 750 2687 
z
" transform="scale(0.015625)"/>
       </defs>
       <use xlink:href="#SimHei-30"/>
      </g>
     </g>
    </g>
    <g id="xtick_2">
     <g id="line2d_3">
      <path d="M 201.6 384.48 
L 201.6 51.84 
" clip-path="url(#pb1017d8491)" style="fill: none; stroke: #b0b0b0; stroke-width: 0.8; stroke-linecap: square"/>
     </g>
     <g id="line2d_4">
      <g>
       <use xlink:href="#mf537fe664d" x="201.6" y="384.48" style="stroke: #000000; stroke-width: 0.8"/>
      </g>
     </g>
     <g id="text_2">
      <!-- 100 -->
      <g transform="translate(188.1 403.855) scale(0.18 -0.18)">
       <defs>
        <path id="SimHei-31" d="M 1400 3600 
Q 1075 3275 575 2975 
L 575 3450 
Q 1200 3875 1600 4450 
L 1900 4450 
L 1900 150 
L 1400 150 
L 1400 3600 
z
" transform="scale(0.015625)"/>
       </defs>
       <use xlink:href="#SimHei-31"/>
       <use xlink:href="#SimHei-30" x="50"/>
       <use xlink:href="#SimHei-30" x="100"/>
      </g>
     </g>
    </g>
    <g id="xtick_3">
     <g id="line2d_5">
      <path d="M 313.2 384.48 
L 313.2 51.84 
" clip-path="url(#pb1017d8491)" style="fill: none; stroke: #b0b0b0; stroke-width: 0.8; stroke-linecap: square"/>
     </g>
     <g id="line2d_6">
      <g>
       <use xlink:href="#mf537fe664d" x="313.2" y="384.48" style="stroke: #000000; stroke-width: 0.8"/>
      </g>
     </g>
     <g id="text_3">
      <!-- 200 -->
      <g transform="translate(299.7 403.855) scale(0.18 -0.18)">
       <defs>
        <path id="SimHei-32" d="M 300 250 
Q 325 625 650 925 
Q 975 1225 1475 1862 
Q 1975 2500 2125 2850 
Q 2275 3200 2237 3450 
Q 2200 3700 2000 3862 
Q 1800 4025 1537 4000 
Q 1275 3975 1037 3800 
Q 800 3625 675 3275 
L 200 3350 
Q 400 3925 712 4187 
Q 1025 4450 1450 4475 
Q 1700 4500 1900 4462 
Q 2100 4425 2312 4287 
Q 2525 4150 2662 3875 
Q 2800 3600 2762 3212 
Q 2725 2825 2375 2287 
Q 2025 1750 1025 600 
L 2825 600 
L 2825 150 
L 300 150 
L 300 250 
z
" transform="scale(0.015625)"/>
       </defs>
       <use xlink:href="#SimHei-32"/>
       <use xlink:href="#SimHei-30" x="50"/>
       <use xlink:href="#SimHei-30" x="100"/>
      </g>
     </g>
    </g>
    <g id="xtick_4">
     <g id="line2d_7">
      <path d="M 424.8 384.48 
L 424.8 51.84 
" clip-path="url(#pb1017d8491)" style="fill: none; stroke: #b0b0b0; stroke-width: 0.8; stroke-linecap: square"/>
     </g>
     <g id="line2d_8">
      <g>
       <use xlink:href="#mf537fe664d" x="424.8" y="384.48" style="stroke: #000000; stroke-width: 0.8"/>
      </g>
     </g>
     <g id="text_4">
      <!-- 300 -->
      <g transform="translate(411.3 403.855) scale(0.18 -0.18)">
       <defs>
        <path id="SimHei-33" d="M 250 1225 
L 700 1300 
Q 800 975 1025 762 
Q 1250 550 1587 562 
Q 1925 575 2125 837 
Q 2325 1100 2300 1437 
Q 2275 1775 2037 1962 
Q 1800 2150 1275 2225 
L 1275 2550 
Q 1800 2600 2037 2825 
Q 2275 3050 2250 3412 
Q 2225 3775 1925 3937 
Q 1625 4100 1287 3975 
Q 950 3850 750 3275 
L 300 3350 
Q 450 3800 712 4100 
Q 975 4400 1425 4450 
Q 1875 4500 2212 4337 
Q 2550 4175 2687 3837 
Q 2825 3500 2725 3100 
Q 2625 2700 2150 2400 
Q 2500 2250 2687 1950 
Q 2875 1650 2812 1162 
Q 2750 675 2375 375 
Q 2000 75 1525 87 
Q 1050 100 700 387 
Q 350 675 250 1225 
z
" transform="scale(0.015625)"/>
       </defs>
       <use xlink:href="#SimHei-33"/>
       <use xlink:href="#SimHei-30" x="50"/>
       <use xlink:href="#SimHei-30" x="100"/>
      </g>
     </g>
    </g>
    <g id="xtick_5">
     <g id="line2d_9">
      <path d="M 536.4 384.48 
L 536.4 51.84 
" clip-path="url(#pb1017d8491)" style="fill: none; stroke: #b0b0b0; stroke-width: 0.8; stroke-linecap: square"/>
     </g>
     <g id="line2d_10">
      <g>
       <use xlink:href="#mf537fe664d" x="536.4" y="384.48" style="stroke: #000000; stroke-width: 0.8"/>
      </g>
     </g>
     <g id="text_5">
      <!-- 400 -->
      <g transform="translate(522.9 403.855) scale(0.18 -0.18)">
       <defs>
        <path id="SimHei-34" d="M 2000 1100 
L 75 1100 
L 75 1525 
L 2100 4450 
L 2475 4450 
L 2475 1525 
L 3075 1525 
L 3075 1100 
L 2475 1100 
L 2475 150 
L 2000 150 
L 2000 1100 
z
M 2000 1525 
L 2000 3500 
L 600 1525 
L 2000 1525 
z
" transform="scale(0.015625)"/>
       </defs>
       <use xlink:href="#SimHei-34"/>
       <use xlink:href="#SimHei-30" x="50"/>
       <use xlink:href="#SimHei-30" x="100"/>
      </g>
     </g>
    </g>
    <g id="xtick_6">
     <g id="line2d_11">
      <path d="M 648 384.48 
L 648 51.84 
" clip-path="url(#pb1017d8491)" style="fill: none; stroke: #b0b0b0; stroke-width: 0.8; stroke-linecap: square"/>
     </g>
     <g id="line2d_12">
      <g>
       <use xlink:href="#mf537fe664d" x="648" y="384.48" style="stroke: #000000; stroke-width: 0.8"/>
      </g>
     </g>
     <g id="text_6">
      <!-- 500 -->
      <g transform="translate(634.5 403.855) scale(0.18 -0.18)">
       <defs>
        <path id="SimHei-35" d="M 550 1325 
Q 725 650 1150 575 
Q 1575 500 1837 662 
Q 2100 825 2212 1087 
Q 2325 1350 2312 1675 
Q 2300 2000 2137 2225 
Q 1975 2450 1725 2525 
Q 1475 2600 1162 2525 
Q 850 2450 650 2175 
L 225 2225 
Q 275 2375 700 4375 
L 2675 4375 
L 2675 3925 
L 1075 3925 
Q 950 3250 825 2850 
Q 1200 3025 1525 3012 
Q 1850 3000 2150 2862 
Q 2450 2725 2587 2487 
Q 2725 2250 2787 2012 
Q 2850 1775 2837 1500 
Q 2825 1225 2725 937 
Q 2625 650 2425 462 
Q 2225 275 1937 162 
Q 1650 50 1275 75 
Q 900 100 562 350 
Q 225 600 100 1200 
L 550 1325 
z
" transform="scale(0.015625)"/>
       </defs>
       <use xlink:href="#SimHei-35"/>
       <use xlink:href="#SimHei-30" x="50"/>
       <use xlink:href="#SimHei-30" x="100"/>
      </g>
     </g>
    </g>
    <g id="text_7">
     <!-- 迭代次数 -->
     <g transform="translate(329 426.0425) scale(0.2 -0.2)">
      <defs>
       <path id="SimHei-8fed" d="M 3900 1875 
Q 3600 1350 3287 1012 
Q 2975 675 2450 275 
Q 2350 475 2025 700 
Q 2600 975 3012 1425 
Q 3425 1875 3600 2450 
Q 2350 2450 1950 2425 
L 1950 2900 
Q 2375 2875 3675 2875 
Q 3725 3250 3750 3775 
L 2800 3775 
Q 2675 3450 2550 3175 
Q 2300 3300 2075 3350 
Q 2275 3675 2425 4112 
Q 2575 4550 2700 5100 
Q 2850 5000 3225 4925 
Q 3075 4725 2950 4200 
L 3750 4200 
Q 3750 4850 3700 5250 
L 4275 5225 
Q 4225 4925 4200 4200 
L 4950 4200 
Q 5175 4200 5575 4225 
L 5575 3725 
Q 5175 3775 4875 3775 
L 4200 3775 
Q 4175 3250 4125 2875 
L 5150 2875 
Q 5475 2875 5925 2900 
L 5925 2425 
Q 5475 2450 5075 2450 
L 4100 2450 
L 4050 2300 
Q 4650 1775 5725 700 
Q 5600 650 5275 300 
Q 4775 975 3900 1875 
z
M 1550 2950 
L 1550 625 
Q 2200 -25 3712 -12 
Q 5225 0 6125 100 
Q 5950 -225 5900 -475 
L 3575 -475 
Q 2975 -475 2525 -387 
Q 2075 -300 1725 -50 
Q 1375 200 1162 12 
Q 950 -175 650 -550 
Q 500 -350 250 -175 
Q 775 275 1075 575 
L 1075 2525 
Q 750 2525 350 2500 
L 350 2975 
Q 775 2950 1075 2950 
L 1550 2950 
z
M 1125 5025 
Q 1525 4275 1675 3900 
Q 1450 3875 1175 3650 
Q 950 4275 650 4750 
Q 900 4850 1125 5025 
z
" transform="scale(0.015625)"/>
       <path id="SimHei-4ee3" d="M 3300 2950 
Q 3175 4575 3150 5100 
Q 3300 5075 3725 5025 
Q 3675 4725 3800 3050 
Q 5000 3275 5650 3475 
L 5775 3000 
Q 5500 2975 3850 2625 
Q 4150 1050 4737 450 
Q 5325 -150 5412 125 
Q 5500 400 5525 725 
Q 5800 550 6075 500 
Q 5900 -200 5737 -425 
Q 5575 -650 5137 -500 
Q 4700 -350 4187 300 
Q 3675 950 3350 2525 
Q 2400 2325 2175 2250 
L 2025 2725 
Q 2425 2775 3300 2950 
z
M 2250 4975 
Q 2100 4725 1700 3650 
L 1700 475 
Q 1700 -50 1725 -600 
L 1200 -600 
Q 1225 -50 1225 475 
L 1225 2750 
Q 850 2150 600 1850 
Q 450 2050 225 2225 
Q 625 2600 1050 3425 
Q 1475 4250 1675 5200 
Q 2050 5025 2250 4975 
z
M 4700 4875 
Q 5150 4325 5325 4050 
Q 5100 3900 4875 3725 
Q 4650 4150 4300 4575 
Q 4500 4700 4700 4875 
z
" transform="scale(0.015625)"/>
       <path id="SimHei-6b21" d="M 4150 3025 
Q 4000 2550 4050 2187 
Q 4100 1825 4275 1450 
Q 4450 1075 4800 750 
Q 5150 425 5475 212 
Q 5800 0 6150 -150 
Q 5875 -350 5750 -625 
Q 5250 -325 4887 -25 
Q 4525 275 4275 612 
Q 4025 950 3825 1425 
Q 3525 625 2950 125 
Q 2375 -375 1850 -650 
Q 1675 -400 1475 -225 
Q 2025 0 2487 362 
Q 2950 725 3162 1100 
Q 3375 1475 3450 1825 
Q 3525 2175 3537 2400 
Q 3550 2625 3525 3125 
Q 3825 3050 4150 3025 
z
M 3700 4975 
Q 3625 4900 3475 4575 
Q 3325 4250 3250 4075 
L 5775 4075 
Q 5650 3725 5550 3362 
Q 5450 3000 5275 2500 
Q 5000 2575 4775 2600 
Q 5025 3350 5100 3650 
L 3100 3650 
Q 2975 3400 2812 3100 
Q 2650 2800 2425 2450 
Q 2275 2600 1975 2700 
Q 2300 3050 2625 3762 
Q 2950 4475 3125 5200 
Q 3450 5025 3700 4975 
z
M 2025 2000 
Q 1825 1675 1475 1087 
Q 1125 500 725 -200 
Q 500 -25 250 175 
Q 725 725 1037 1262 
Q 1350 1800 1575 2325 
Q 1750 2175 2025 2000 
z
M 900 4750 
Q 1725 3725 1950 3375 
Q 1750 3250 1500 3050 
Q 1250 3525 500 4425 
Q 700 4575 900 4750 
z
" transform="scale(0.015625)"/>
       <path id="SimHei-6570" d="M 4525 4925 
Q 4475 4800 4400 4587 
Q 4325 4375 4175 3825 
L 5325 3825 
Q 5575 3825 5925 3850 
L 5925 3400 
Q 5650 3425 5500 3425 
Q 5500 3025 5362 2162 
Q 5225 1300 4875 675 
Q 5125 375 5437 137 
Q 5750 -100 6025 -200 
Q 5725 -425 5625 -625 
Q 5325 -450 5075 -225 
Q 4825 0 4575 325 
Q 4300 25 3987 -187 
Q 3675 -400 3200 -650 
Q 3075 -425 2850 -300 
Q 3225 -150 3650 125 
Q 4075 400 4300 675 
Q 4125 1025 3962 1425 
Q 3800 1825 3675 2475 
Q 3600 2275 3425 1950 
Q 3250 2050 3000 2150 
Q 3400 2850 3650 3675 
Q 3900 4500 3975 5100 
Q 4275 4975 4525 4925 
z
M 2100 2250 
Q 2000 2150 1875 1925 
L 3250 1925 
Q 3100 1300 2725 675 
Q 3125 525 3350 400 
Q 3225 225 3125 25 
Q 2900 175 2450 325 
Q 1950 -225 725 -650 
Q 600 -375 400 -275 
Q 1575 0 2000 475 
Q 1300 650 850 775 
Q 1000 1000 1250 1525 
Q 1000 1525 425 1500 
L 425 1950 
Q 900 1925 1400 1925 
Q 1500 2150 1550 2425 
Q 1825 2325 2100 2250 
z
M 1775 3950 
Q 1775 4550 1750 5100 
L 2250 5100 
Q 2225 4575 2225 3950 
Q 3075 3950 3425 3975 
L 3425 3525 
Q 3075 3550 2225 3550 
Q 2225 2825 2250 2425 
L 1750 2425 
Q 1775 2775 1775 3300 
Q 1650 3100 1300 2787 
Q 950 2475 650 2300 
Q 525 2525 275 2625 
Q 500 2700 875 2975 
Q 1250 3250 1450 3550 
Q 950 3550 500 3525 
L 500 3975 
Q 925 3950 1775 3950 
z
M 3975 3175 
Q 4200 1700 4600 1125 
Q 4850 1700 4937 2287 
Q 5025 2875 5050 3425 
L 4075 3425 
L 3975 3175 
z
M 1450 1000 
Q 1750 925 2275 800 
Q 2475 1050 2650 1525 
L 1725 1525 
Q 1600 1275 1450 1000 
z
M 3325 4825 
Q 3200 4625 3125 4450 
Q 3050 4275 2925 4025 
Q 2725 4125 2525 4175 
Q 2725 4500 2900 5000 
Q 3150 4875 3325 4825 
z
M 2575 3375 
Q 2900 3050 3200 2725 
Q 3050 2600 2875 2425 
Q 2525 2850 2300 3100 
Q 2450 3225 2575 3375 
z
M 925 5000 
Q 1275 4650 1500 4300 
L 1125 4075 
Q 950 4425 600 4725 
Q 825 4875 925 5000 
z
" transform="scale(0.015625)"/>
      </defs>
      <use xlink:href="#SimHei-8fed"/>
      <use xlink:href="#SimHei-4ee3" x="100"/>
      <use xlink:href="#SimHei-6b21" x="200"/>
      <use xlink:href="#SimHei-6570" x="300"/>
     </g>
    </g>
   </g>
   <g id="matplotlib.axis_2">
    <g id="ytick_1">
     <g id="line2d_13">
      <path d="M 90 369.391175 
L 648 369.391175 
" clip-path="url(#pb1017d8491)" style="fill: none; stroke: #b0b0b0; stroke-width: 0.8; stroke-linecap: square"/>
     </g>
     <g id="line2d_14">
      <defs>
       <path id="m6109d045ed" d="M 0 0 
L -3.5 0 
" style="stroke: #000000; stroke-width: 0.8"/>
      </defs>
      <g>
       <use xlink:href="#m6109d045ed" x="90" y="369.391175" style="stroke: #000000; stroke-width: 0.8"/>
      </g>
     </g>
     <g id="text_8">
      <!-- 0 -->
      <g transform="translate(74 375.578675) scale(0.18 -0.18)">
       <use xlink:href="#SimHei-30"/>
      </g>
     </g>
    </g>
    <g id="ytick_2">
     <g id="line2d_15">
      <path d="M 90 308.607017 
L 648 308.607017 
" clip-path="url(#pb1017d8491)" style="fill: none; stroke: #b0b0b0; stroke-width: 0.8; stroke-linecap: square"/>
     </g>
     <g id="line2d_16">
      <g>
       <use xlink:href="#m6109d045ed" x="90" y="308.607017" style="stroke: #000000; stroke-width: 0.8"/>
      </g>
     </g>
     <g id="text_9">
      <!-- 200 -->
      <g transform="translate(56 314.794517) scale(0.18 -0.18)">
       <use xlink:href="#SimHei-32"/>
       <use xlink:href="#SimHei-30" x="50"/>
       <use xlink:href="#SimHei-30" x="100"/>
      </g>
     </g>
    </g>
    <g id="ytick_3">
     <g id="line2d_17">
      <path d="M 90 247.82286 
L 648 247.82286 
" clip-path="url(#pb1017d8491)" style="fill: none; stroke: #b0b0b0; stroke-width: 0.8; stroke-linecap: square"/>
     </g>
     <g id="line2d_18">
      <g>
       <use xlink:href="#m6109d045ed" x="90" y="247.82286" style="stroke: #000000; stroke-width: 0.8"/>
      </g>
     </g>
     <g id="text_10">
      <!-- 400 -->
      <g transform="translate(56 254.01036) scale(0.18 -0.18)">
       <use xlink:href="#SimHei-34"/>
       <use xlink:href="#SimHei-30" x="50"/>
       <use xlink:href="#SimHei-30" x="100"/>
      </g>
     </g>
    </g>
    <g id="ytick_4">
     <g id="line2d_19">
      <path d="M 90 187.038702 
L 648 187.038702 
" clip-path="url(#pb1017d8491)" style="fill: none; stroke: #b0b0b0; stroke-width: 0.8; stroke-linecap: square"/>
     </g>
     <g id="line2d_20">
      <g>
       <use xlink:href="#m6109d045ed" x="90" y="187.038702" style="stroke: #000000; stroke-width: 0.8"/>
      </g>
     </g>
     <g id="text_11">
      <!-- 600 -->
      <g transform="translate(56 193.226202) scale(0.18 -0.18)">
       <defs>
        <path id="SimHei-36" d="M 250 1612 
Q 275 1975 387 2225 
Q 500 2475 725 2850 
L 1750 4450 
L 2325 4450 
L 1275 2800 
Q 1950 2975 2350 2750 
Q 2750 2525 2887 2237 
Q 3025 1950 3037 1612 
Q 3050 1275 2937 950 
Q 2825 625 2537 362 
Q 2250 100 1737 75 
Q 1225 50 862 262 
Q 500 475 362 862 
Q 225 1250 250 1612 
z
M 1025 787 
Q 1250 550 1625 525 
Q 2000 500 2250 775 
Q 2500 1050 2500 1575 
Q 2500 2100 2187 2300 
Q 1875 2500 1487 2450 
Q 1100 2400 925 2075 
Q 750 1750 775 1387 
Q 800 1025 1025 787 
z
" transform="scale(0.015625)"/>
       </defs>
       <use xlink:href="#SimHei-36"/>
       <use xlink:href="#SimHei-30" x="50"/>
       <use xlink:href="#SimHei-30" x="100"/>
      </g>
     </g>
    </g>
    <g id="ytick_5">
     <g id="line2d_21">
      <path d="M 90 126.254544 
L 648 126.254544 
" clip-path="url(#pb1017d8491)" style="fill: none; stroke: #b0b0b0; stroke-width: 0.8; stroke-linecap: square"/>
     </g>
     <g id="line2d_22">
      <g>
       <use xlink:href="#m6109d045ed" x="90" y="126.254544" style="stroke: #000000; stroke-width: 0.8"/>
      </g>
     </g>
     <g id="text_12">
      <!-- 800 -->
      <g transform="translate(56 132.442044) scale(0.18 -0.18)">
       <defs>
        <path id="SimHei-38" d="M 175 1375 
Q 175 1675 325 1962 
Q 475 2250 825 2425 
Q 525 2600 425 2812 
Q 325 3025 312 3300 
Q 300 3575 387 3775 
Q 475 3975 650 4150 
Q 825 4325 1037 4387 
Q 1250 4450 1500 4450 
Q 1750 4450 1950 4400 
Q 2150 4350 2375 4187 
Q 2600 4025 2700 3725 
Q 2800 3425 2687 3025 
Q 2575 2625 2100 2400 
Q 2525 2275 2700 2012 
Q 2875 1750 2875 1375 
Q 2875 1000 2762 775 
Q 2650 550 2512 400 
Q 2375 250 2137 162 
Q 1900 75 1537 75 
Q 1175 75 912 162 
Q 650 250 475 425 
Q 300 600 237 837 
Q 175 1075 175 1375 
z
M 687 1400 
Q 675 1100 787 875 
Q 900 650 1200 587 
Q 1500 525 1825 600 
Q 2150 675 2275 950 
Q 2400 1225 2362 1500 
Q 2325 1775 2050 1962 
Q 1775 2150 1450 2125 
Q 1125 2100 912 1900 
Q 700 1700 687 1400 
z
M 775 3350 
Q 775 3100 950 2875 
Q 1125 2650 1500 2650 
Q 1875 2650 2062 2875 
Q 2250 3100 2237 3412 
Q 2225 3725 2012 3875 
Q 1800 4025 1437 4000 
Q 1075 3975 925 3787 
Q 775 3600 775 3350 
z
" transform="scale(0.015625)"/>
       </defs>
       <use xlink:href="#SimHei-38"/>
       <use xlink:href="#SimHei-30" x="50"/>
       <use xlink:href="#SimHei-30" x="100"/>
      </g>
     </g>
    </g>
    <g id="ytick_6">
     <g id="line2d_23">
      <path d="M 90 65.470386 
L 648 65.470386 
" clip-path="url(#pb1017d8491)" style="fill: none; stroke: #b0b0b0; stroke-width: 0.8; stroke-linecap: square"/>
     </g>
     <g id="line2d_24">
      <g>
       <use xlink:href="#m6109d045ed" x="90" y="65.470386" style="stroke: #000000; stroke-width: 0.8"/>
      </g>
     </g>
     <g id="text_13">
      <!-- 1000 -->
      <g transform="translate(47 71.657886) scale(0.18 -0.18)">
       <use xlink:href="#SimHei-31"/>
       <use xlink:href="#SimHei-30" x="50"/>
       <use xlink:href="#SimHei-30" x="100"/>
       <use xlink:href="#SimHei-30" x="150"/>
      </g>
     </g>
    </g>
    <g id="text_14">
     <!-- 平均吞吐量（bits） -->
     <g transform="translate(40.5 308.16) rotate(-90) scale(0.2 -0.2)">
      <defs>
       <path id="SimHei-5e73" d="M 4525 4825 
Q 4900 4825 5450 4850 
L 5450 4375 
Q 4925 4400 4525 4400 
L 3475 4400 
L 3475 2025 
L 5000 2025 
Q 5550 2025 6025 2050 
L 6025 1575 
Q 5550 1600 5000 1600 
L 3475 1600 
L 3475 450 
Q 3475 -100 3500 -600 
L 2925 -600 
Q 2950 -100 2950 450 
L 2950 1600 
L 1125 1600 
Q 775 1600 375 1575 
L 375 2050 
Q 775 2025 1175 2025 
L 2950 2025 
L 2950 4400 
L 1775 4400 
Q 1400 4400 875 4375 
L 875 4850 
Q 1400 4825 1750 4825 
L 4525 4825 
z
M 3925 2600 
Q 4500 3300 4900 4125 
Q 5150 3950 5400 3825 
Q 4775 2850 4350 2300 
Q 4150 2475 3925 2600 
z
M 1975 2350 
Q 1600 3100 1050 3725 
Q 1250 3875 1450 4050 
Q 2075 3300 2450 2725 
Q 2150 2500 1975 2350 
z
" transform="scale(0.015625)"/>
       <path id="SimHei-5747" d="M 5775 275 
Q 5775 -325 5362 -450 
Q 4950 -575 4425 -600 
Q 4375 -275 4250 25 
Q 4950 -25 5125 62 
Q 5300 150 5300 500 
L 5375 3700 
L 3550 3700 
Q 3425 3375 3262 3037 
Q 3100 2700 2925 2400 
Q 2675 2550 2475 2625 
Q 3150 3625 3500 5200 
Q 3800 5100 4075 5025 
Q 3975 4875 3875 4650 
Q 3775 4425 3675 4125 
L 5900 4125 
L 5775 275 
z
M 1250 3625 
L 1250 4375 
Q 1250 4775 1225 5100 
L 1775 5100 
Q 1750 4725 1750 4375 
L 1750 3625 
L 1900 3625 
Q 2200 3625 2525 3650 
L 2525 3150 
Q 2200 3175 1900 3175 
L 1750 3175 
L 1750 1100 
L 2500 1375 
Q 2475 1125 2525 900 
Q 1225 475 962 362 
Q 700 250 475 150 
Q 375 475 250 750 
Q 575 800 800 850 
Q 1025 900 1250 975 
L 1250 3175 
L 1125 3175 
Q 850 3175 400 3150 
L 400 3650 
Q 850 3625 1100 3625 
L 1250 3625 
z
M 4950 1625 
Q 4675 1425 4137 1050 
Q 3600 675 3175 300 
Q 3000 575 2850 775 
Q 3350 1050 3762 1325 
Q 4175 1600 4775 2075 
Q 4825 1850 4950 1625 
z
M 3775 3150 
Q 4125 2800 4475 2300 
Q 4250 2125 4100 1975 
Q 3900 2325 3450 2825 
Q 3600 3000 3775 3150 
z
" transform="scale(0.015625)"/>
       <path id="SimHei-541e" d="M 4425 4975 
Q 4800 4975 5250 5000 
L 5250 4525 
Q 4800 4550 4425 4550 
L 3300 4550 
Q 3275 4150 3175 3675 
L 4975 3675 
Q 5450 3675 5850 3700 
L 5850 3225 
Q 5475 3250 4975 3250 
L 4075 3250 
Q 4200 2900 4675 2512 
Q 5150 2125 6200 1975 
Q 6000 1800 5875 1425 
Q 5550 1475 4975 1800 
Q 4950 1450 4950 650 
Q 4950 -150 4975 -575 
L 4450 -575 
L 4450 -75 
L 2050 -75 
L 2050 -600 
L 1525 -600 
Q 1550 -200 1550 550 
L 1550 1600 
Q 1125 1350 750 1175 
Q 675 1400 300 1625 
Q 750 1725 1400 2112 
Q 2050 2500 2500 3250 
L 1300 3250 
Q 925 3250 525 3225 
L 525 3700 
Q 925 3675 1300 3675 
L 2675 3675 
Q 2775 4125 2800 4550 
L 2025 4550 
Q 1525 4550 1125 4525 
L 1125 5000 
Q 1525 4975 2000 4975 
L 4425 4975 
z
M 4450 350 
L 4450 1450 
L 2050 1450 
L 2050 350 
L 4450 350 
z
M 4725 1900 
Q 4025 2275 3550 3250 
L 3050 3250 
Q 2625 2425 1925 1900 
L 4725 1900 
z
" transform="scale(0.015625)"/>
       <path id="SimHei-5410" d="M 2425 4250 
Q 2400 3775 2400 3275 
L 2400 1250 
Q 2400 800 2425 475 
L 1925 475 
L 1925 950 
L 950 950 
L 950 -25 
L 425 -25 
Q 425 450 450 925 
L 450 3275 
Q 450 3775 425 4250 
L 2425 4250 
z
M 4000 3225 
L 4000 4350 
Q 4000 4875 3925 5100 
L 4550 5100 
Q 4500 4825 4500 4350 
L 4500 3225 
L 5000 3225 
Q 5450 3225 5750 3250 
L 5750 2775 
Q 5475 2800 5025 2800 
L 4500 2800 
L 4500 150 
L 5300 150 
Q 5750 150 6100 175 
L 6100 -300 
Q 5775 -275 5325 -275 
L 3275 -275 
Q 2775 -275 2400 -300 
L 2400 175 
Q 2775 150 3275 150 
L 4000 150 
L 4000 2800 
L 3550 2800 
Q 3100 2800 2725 2775 
L 2725 3250 
Q 3100 3225 3550 3225 
L 4000 3225 
z
M 1925 1375 
L 1925 3825 
L 950 3825 
L 950 1375 
L 1925 1375 
z
" transform="scale(0.015625)"/>
       <path id="SimHei-91cf" d="M 5250 2500 
Q 5225 2200 5225 1700 
Q 5225 1225 5250 950 
L 3425 950 
L 3425 625 
L 4575 625 
Q 5000 625 5375 650 
L 5375 275 
Q 5025 300 4575 300 
L 3425 300 
L 3425 -75 
L 5125 -75 
Q 5525 -75 5925 -50 
L 5925 -425 
Q 5525 -400 5125 -400 
L 1275 -400 
Q 900 -400 475 -425 
L 475 -50 
Q 925 -50 1275 -75 
L 2975 -75 
L 2975 300 
L 1725 300 
Q 1350 300 975 250 
L 975 650 
Q 1375 625 1725 625 
L 2975 625 
L 2975 950 
L 1150 950 
Q 1175 1375 1175 1775 
Q 1175 2175 1150 2500 
L 5250 2500 
z
M 5200 4950 
Q 5175 4575 5175 4250 
Q 5175 3925 5200 3400 
L 1200 3400 
Q 1225 3925 1225 4250 
Q 1225 4575 1200 4950 
L 5200 4950 
z
M 4900 3100 
Q 5500 3125 6000 3150 
L 6000 2750 
Q 5500 2775 4925 2775 
L 1650 2775 
Q 975 2775 325 2750 
L 325 3150 
Q 975 3125 1650 3100 
L 4900 3100 
z
M 4725 3700 
L 4725 4025 
L 1675 4025 
L 1675 3700 
L 4725 3700 
z
M 4725 4350 
L 4725 4650 
L 1675 4650 
L 1675 4350 
L 4725 4350 
z
M 4750 1875 
L 4750 2175 
L 3425 2175 
L 3425 1875 
L 4750 1875 
z
M 2975 1875 
L 2975 2175 
L 1650 2175 
L 1650 1875 
L 2975 1875 
z
M 2975 1275 
L 2975 1550 
L 1650 1550 
L 1650 1275 
L 2975 1275 
z
M 4750 1275 
L 4750 1550 
L 3425 1550 
L 3425 1275 
L 4750 1275 
z
" transform="scale(0.015625)"/>
       <path id="SimHei-ff08" d="M 5425 5100 
L 5700 4775 
Q 4275 3725 4325 2350 
Q 4350 1025 5675 50 
L 5400 -275 
Q 3875 825 3925 2500 
Q 3925 3875 5425 5100 
z
" transform="scale(0.015625)"/>
       <path id="SimHei-62" d="M 2825 1525 
Q 2825 800 2475 437 
Q 2125 75 1625 75 
Q 1350 75 1150 175 
Q 950 275 800 500 
L 800 125 
L 300 125 
L 300 4400 
L 800 4400 
L 800 2550 
Q 950 2775 1150 2887 
Q 1350 3000 1625 3000 
Q 2125 3000 2475 2625 
Q 2825 2250 2825 1525 
z
M 2275 1525 
Q 2275 2000 2087 2275 
Q 1900 2550 1525 2550 
Q 1225 2550 1012 2275 
Q 800 2000 800 1525 
Q 800 1050 1012 787 
Q 1225 525 1525 525 
Q 1900 525 2087 787 
Q 2275 1050 2275 1525 
z
" transform="scale(0.015625)"/>
       <path id="SimHei-69" d="M 1800 3725 
L 1300 3725 
L 1300 4375 
L 1800 4375 
L 1800 3725 
z
M 1800 125 
L 1300 125 
L 1300 2925 
L 1800 2925 
L 1800 125 
z
" transform="scale(0.015625)"/>
       <path id="SimHei-74" d="M 2750 200 
Q 2625 150 2462 112 
Q 2300 75 2025 75 
Q 1575 75 1300 325 
Q 1025 575 1025 1025 
L 1025 2525 
L 175 2525 
L 175 2925 
L 1025 2925 
L 1025 3900 
L 1525 3900 
L 1525 2925 
L 2550 2925 
L 2550 2525 
L 1525 2525 
L 1525 1000 
Q 1525 800 1625 662 
Q 1725 525 2000 525 
Q 2275 525 2450 575 
Q 2625 625 2750 700 
L 2750 200 
z
" transform="scale(0.015625)"/>
       <path id="SimHei-73" d="M 2750 900 
Q 2750 500 2437 287 
Q 2125 75 1650 75 
Q 1050 75 725 312 
Q 400 550 400 1000 
L 900 1000 
Q 900 700 1112 600 
Q 1325 500 1625 500 
Q 1925 500 2075 612 
Q 2225 725 2225 900 
Q 2225 1025 2100 1150 
Q 1975 1275 1475 1350 
Q 900 1425 687 1637 
Q 475 1850 475 2200 
Q 475 2500 762 2737 
Q 1050 2975 1600 2975 
Q 2100 2975 2387 2750 
Q 2675 2525 2675 2150 
L 2175 2150 
Q 2175 2375 2012 2462 
Q 1850 2550 1600 2550 
Q 1275 2550 1137 2437 
Q 1000 2325 1000 2175 
Q 1000 2000 1125 1900 
Q 1250 1800 1650 1750 
Q 2300 1650 2525 1437 
Q 2750 1225 2750 900 
z
" transform="scale(0.015625)"/>
       <path id="SimHei-ff09" d="M 1000 5100 
Q 2500 3875 2500 2500 
Q 2550 825 1025 -275 
L 750 50 
Q 2075 1025 2100 2350 
Q 2150 3725 725 4775 
L 1000 5100 
z
" transform="scale(0.015625)"/>
      </defs>
      <use xlink:href="#SimHei-5e73"/>
      <use xlink:href="#SimHei-5747" x="100"/>
      <use xlink:href="#SimHei-541e" x="200"/>
      <use xlink:href="#SimHei-5410" x="300"/>
      <use xlink:href="#SimHei-91cf" x="400"/>
      <use xlink:href="#SimHei-ff08" x="500"/>
      <use xlink:href="#SimHei-62" x="600"/>
      <use xlink:href="#SimHei-69" x="650"/>
      <use xlink:href="#SimHei-74" x="700"/>
      <use xlink:href="#SimHei-73" x="750"/>
      <use xlink:href="#SimHei-ff09" x="800"/>
     </g>
    </g>
   </g>
   <g id="line2d_25">
    <path d="M 90 66.96 
L 646.884 66.96 
L 646.884 66.96 
" clip-path="url(#pb1017d8491)" style="fill: none; stroke-dasharray: 7.4,3.2; stroke-dashoffset: 0; stroke: #ff0000; stroke-width: 2"/>
   </g>
   <g id="line2d_26">
    <path d="M 90 113.158884 
L 646.884 113.158884 
L 646.884 113.158884 
" clip-path="url(#pb1017d8491)" style="fill: none; stroke-dasharray: 7.4,3.2; stroke-dashoffset: 0; stroke: #0000ff; stroke-width: 2"/>
   </g>
   <g id="line2d_27">
    <path d="M 90 369.36 
L 94.464 352.447683 
L 95.58 351.064243 
L 97.812 344.172737 
L 100.044 336.769666 
L 101.16 331.650778 
L 102.276 324.905357 
L 103.392 324.013111 
L 104.508 321.122961 
L 105.624 318.657967 
L 106.74 319.694552 
L 107.856 315.973848 
L 108.972 312.693239 
L 110.088 312.251526 
L 111.204 307.852253 
L 112.32 302.839205 
L 114.552 294.100583 
L 115.668 291.387908 
L 116.784 288.336069 
L 117.9 284.088642 
L 119.016 282.762397 
L 120.132 280.601438 
L 121.248 279.478255 
L 122.364 277.44303 
L 123.48 276.303025 
L 124.596 274.660255 
L 125.712 273.302257 
L 126.828 269.357265 
L 127.944 267.83161 
L 129.06 265.448919 
L 130.176 263.768559 
L 131.292 260.201275 
L 132.408 257.188007 
L 133.524 253.254939 
L 134.64 252.922403 
L 135.756 250.574189 
L 136.872 247.70938 
L 137.988 246.012716 
L 139.104 246.114288 
L 140.22 247.761946 
L 141.336 245.760876 
L 142.452 245.090611 
L 143.568 243.081643 
L 144.684 241.481716 
L 145.8 241.170332 
L 146.916 239.637686 
L 148.032 240.797524 
L 149.148 239.137032 
L 150.264 236.626883 
L 151.38 236.116401 
L 152.496 236.275025 
L 153.612 233.329851 
L 154.728 233.553416 
L 155.844 233.645308 
L 156.96 233.232639 
L 158.076 230.988212 
L 159.192 231.259521 
L 160.308 229.95116 
L 161.424 230.455337 
L 162.54 226.325892 
L 163.656 226.495796 
L 164.772 226.784267 
L 165.888 227.489664 
L 167.004 226.733745 
L 168.12 228.365344 
L 169.236 227.083 
L 170.352 226.740618 
L 171.468 225.836823 
L 172.584 225.196703 
L 173.7 223.738172 
L 174.816 224.022373 
L 175.932 223.331277 
L 177.048 222.44471 
L 178.164 223.408756 
L 179.28 223.751097 
L 180.396 223.693105 
L 181.512 221.944686 
L 182.628 221.77649 
L 183.744 222.402947 
L 184.86 221.736705 
L 185.976 222.673256 
L 187.092 222.124455 
L 189.324 220.188676 
L 190.44 219.45104 
L 191.556 217.482781 
L 192.672 216.938412 
L 193.788 216.527287 
L 194.904 217.113108 
L 196.02 216.422471 
L 197.136 216.514665 
L 198.252 216.125809 
L 199.368 215.881166 
L 200.484 215.783811 
L 201.6 216.180759 
L 202.716 215.935936 
L 203.832 214.890558 
L 204.948 214.525689 
L 206.064 214.457189 
L 207.18 214.91662 
L 208.296 214.972348 
L 209.412 213.93516 
L 210.528 214.252665 
L 211.644 213.666753 
L 212.76 214.35808 
L 213.876 214.518352 
L 214.992 213.64192 
L 216.108 213.770268 
L 217.224 212.941272 
L 218.34 212.867392 
L 219.456 213.078326 
L 220.572 212.721781 
L 221.688 212.09836 
L 222.804 212.551906 
L 223.92 213.130435 
L 225.036 213.560524 
L 226.152 213.706301 
L 227.268 212.783282 
L 228.384 212.59791 
L 229.5 213.525155 
L 230.616 214.217356 
L 231.732 213.52466 
L 232.848 212.656404 
L 233.964 210.519511 
L 235.08 209.933217 
L 236.196 210.605822 
L 238.428 210.805728 
L 239.544 209.413809 
L 241.776 209.329911 
L 242.892 210.882567 
L 244.008 209.974092 
L 245.124 209.30925 
L 246.24 209.149654 
L 247.356 208.625177 
L 248.472 208.765907 
L 249.588 207.919077 
L 251.82 209.147613 
L 252.936 209.112862 
L 254.052 209.27034 
L 255.168 209.282334 
L 256.284 208.834022 
L 257.4 206.94972 
L 258.516 205.914624 
L 259.632 205.449921 
L 260.748 204.014232 
L 262.98 203.729876 
L 264.096 203.863485 
L 265.212 204.449164 
L 266.328 203.829197 
L 267.444 204.578277 
L 270.792 206.077855 
L 271.908 205.86015 
L 273.024 205.481149 
L 274.14 205.493544 
L 275.256 204.677476 
L 276.372 204.634922 
L 277.488 203.779521 
L 279.72 203.980577 
L 280.836 203.659224 
L 281.952 203.456828 
L 283.068 203.03697 
L 285.3 204.285662 
L 286.416 205.118247 
L 288.648 206.249319 
L 289.764 205.889718 
L 290.88 205.718559 
L 291.996 205.181621 
L 294.228 204.929232 
L 295.344 204.203618 
L 296.46 204.464847 
L 297.576 204.532956 
L 298.692 204.750698 
L 299.808 204.466736 
L 300.924 203.298217 
L 303.156 202.376492 
L 304.272 202.74311 
L 305.388 202.461563 
L 307.62 201.551091 
L 308.736 201.975854 
L 309.852 203.121475 
L 310.968 202.916067 
L 312.084 202.322594 
L 313.2 201.9459 
L 315.432 201.618124 
L 316.548 200.848659 
L 317.664 200.444985 
L 318.78 199.843607 
L 319.896 200.488864 
L 321.012 200.270399 
L 322.128 200.209834 
L 323.244 200.980135 
L 325.476 200.390387 
L 326.592 200.502196 
L 327.708 199.785825 
L 329.94 198.117102 
L 331.056 197.456743 
L 332.172 197.379711 
L 333.288 197.929866 
L 334.404 197.720939 
L 336.636 198.756248 
L 337.752 199.9869 
L 338.868 200.107775 
L 339.984 200.514737 
L 341.1 200.193506 
L 342.216 200.671335 
L 343.332 200.155535 
L 344.448 200.450185 
L 345.564 200.596763 
L 346.68 201.05139 
L 347.796 200.682068 
L 348.912 199.709574 
L 350.028 199.956027 
L 351.144 199.498926 
L 352.26 199.455059 
L 353.376 199.565984 
L 354.492 199.362088 
L 356.724 199.166979 
L 357.84 198.540456 
L 358.956 198.63657 
L 361.188 198.107086 
L 362.304 198.213308 
L 363.42 197.906633 
L 364.536 197.284862 
L 365.652 197.436346 
L 366.768 197.905207 
L 369 199.260038 
L 370.116 199.205563 
L 371.232 198.612098 
L 372.348 198.858688 
L 374.58 197.53959 
L 376.812 197.546403 
L 377.928 197.881456 
L 380.16 197.313118 
L 381.276 197.833343 
L 382.392 198.59779 
L 383.508 198.033104 
L 385.74 198.550504 
L 386.856 198.064874 
L 387.972 198.060682 
L 389.088 198.520136 
L 390.204 198.215095 
L 391.32 198.192657 
L 392.436 198.567416 
L 393.552 198.550233 
L 395.784 197.856608 
L 396.9 197.33356 
L 398.016 197.513754 
L 399.132 197.917058 
L 400.248 197.859401 
L 401.364 196.71026 
L 402.48 196.291642 
L 403.596 196.174225 
L 405.828 196.273862 
L 406.944 196.090025 
L 408.06 196.1683 
L 409.176 195.82068 
L 410.292 196.147297 
L 411.408 196.207307 
L 412.524 195.400374 
L 413.64 195.302552 
L 414.756 195.597042 
L 416.988 195.152966 
L 419.22 195.013193 
L 421.452 194.996689 
L 422.568 194.82256 
L 424.8 193.595148 
L 425.916 193.823478 
L 428.148 193.543469 
L 429.264 193.946983 
L 430.38 193.842037 
L 432.612 192.98053 
L 433.728 192.787303 
L 434.844 192.433432 
L 435.96 192.757659 
L 438.192 192.536786 
L 439.308 193.02123 
L 440.424 193.073072 
L 441.54 192.49354 
L 442.656 192.663348 
L 443.772 192.568521 
L 444.888 192.777316 
L 446.004 192.390846 
L 447.12 192.353049 
L 449.352 192.689007 
L 450.468 192.961139 
L 451.584 193.400673 
L 452.7 193.278347 
L 453.816 193.440417 
L 454.932 193.276074 
L 456.048 192.844654 
L 457.164 192.055914 
L 458.28 192.326031 
L 459.396 192.451998 
L 460.512 191.92188 
L 461.628 192.010117 
L 462.744 192.346114 
L 463.86 192.138296 
L 466.092 192.050186 
L 467.208 192.512653 
L 468.324 192.609466 
L 469.44 192.178799 
L 470.556 192.377985 
L 471.672 192.411603 
L 472.788 192.186515 
L 473.904 192.460703 
L 475.02 193.006684 
L 476.136 192.806799 
L 477.252 193.15998 
L 482.832 192.562959 
L 483.948 192.841896 
L 485.064 192.90771 
L 487.296 192.315129 
L 489.528 192.257532 
L 491.76 193.205513 
L 492.876 193.23561 
L 493.992 193.009217 
L 497.34 193.615671 
L 499.572 193.022669 
L 500.688 193.166224 
L 501.804 192.842529 
L 502.92 192.741402 
L 504.036 192.030495 
L 505.152 192.023459 
L 506.268 192.13004 
L 507.384 191.812126 
L 508.5 192.22871 
L 511.848 192.381659 
L 512.964 192.088355 
L 514.08 192.154966 
L 515.196 191.951661 
L 516.312 192.118748 
L 518.544 191.489389 
L 519.66 191.762924 
L 520.776 192.240032 
L 523.008 192.162039 
L 524.124 191.71053 
L 527.472 192.047091 
L 528.588 192.182244 
L 529.704 192.091439 
L 530.82 192.379487 
L 533.052 192.598602 
L 534.168 192.935653 
L 535.284 192.930765 
L 536.4 192.807797 
L 537.516 192.823079 
L 538.632 192.423337 
L 539.748 192.26256 
L 540.864 192.696261 
L 541.98 192.583073 
L 543.096 192.664989 
L 544.212 192.6035 
L 545.328 192.685842 
L 546.444 193.307699 
L 547.56 193.028324 
L 553.14 192.968918 
L 554.256 193.088703 
L 555.372 193.439425 
L 557.604 193.056978 
L 558.72 192.543485 
L 559.836 192.571053 
L 560.952 192.296394 
L 562.068 192.494516 
L 563.184 191.968335 
L 564.3 192.161173 
L 565.416 191.793388 
L 569.88 191.370701 
L 570.996 191.102089 
L 572.112 191.000289 
L 574.344 191.231843 
L 575.46 191.499661 
L 576.576 191.432218 
L 577.692 190.97391 
L 578.808 190.988991 
L 579.924 191.167455 
L 581.04 191.205493 
L 582.156 191.100248 
L 584.388 191.164657 
L 585.504 190.922098 
L 587.736 191.218117 
L 591.084 191.710616 
L 592.2 191.633898 
L 593.316 191.436199 
L 594.432 191.649711 
L 595.548 191.602623 
L 598.896 190.970291 
L 601.128 191.233342 
L 602.244 191.040216 
L 603.36 191.281101 
L 604.476 191.301302 
L 605.592 190.853378 
L 606.708 190.731432 
L 608.94 191.027761 
L 610.056 190.728151 
L 611.172 190.904015 
L 612.288 191.258471 
L 614.52 191.184322 
L 616.752 191.366558 
L 618.984 191.211967 
L 620.1 191.608274 
L 621.216 191.433099 
L 622.332 191.057687 
L 623.448 190.870215 
L 624.564 190.987783 
L 625.68 190.981461 
L 627.912 191.341956 
L 629.028 191.489722 
L 631.26 191.449636 
L 633.492 191.836496 
L 634.608 191.928957 
L 635.724 192.31057 
L 636.84 192.184244 
L 637.956 191.920282 
L 640.188 191.724575 
L 641.304 191.510258 
L 642.42 191.829864 
L 643.536 191.68979 
L 644.652 191.784553 
L 646.884 191.387987 
L 646.884 191.387987 
" clip-path="url(#pb1017d8491)" style="fill: none; stroke-dasharray: 7.4,3.2; stroke-dashoffset: 0; stroke: #008000; stroke-width: 2"/>
   </g>
   <g id="line2d_28">
    <path d="M 90 113.158884 
L 91.116 142.924407 
L 92.232 114.496443 
L 93.348 132.161919 
L 94.464 113.237932 
L 95.58 111.761531 
L 96.696 102.050051 
L 97.812 99.260864 
L 98.928 102.063532 
L 100.044 138.886127 
L 101.16 94.229337 
L 102.276 105.786765 
L 103.392 245.783795 
L 104.508 102.126325 
L 106.74 114.60322 
L 107.856 126.442795 
L 108.972 119.300146 
L 110.088 120.365261 
L 111.204 120.366709 
L 112.32 131.229091 
L 113.436 121.299134 
L 114.552 115.17786 
L 115.668 124.8096 
L 116.784 126.536966 
L 117.9 111.231864 
L 119.016 104.136338 
L 120.132 103.248157 
L 121.248 103.243905 
L 122.364 100.068387 
L 123.48 99.503713 
L 124.596 98.705819 
L 125.712 99.423056 
L 126.828 100.595014 
L 127.944 99.354767 
L 129.06 99.122493 
L 130.176 98.529551 
L 131.292 101.49474 
L 132.408 99.038508 
L 133.524 98.847105 
L 134.64 97.435499 
L 135.756 99.026222 
L 136.872 99.621309 
L 137.988 99.42382 
L 139.104 100.074033 
L 140.22 101.123201 
L 141.336 101.094045 
L 142.452 97.998617 
L 143.568 100.063194 
L 144.684 99.397786 
L 145.8 99.40702 
L 146.916 101.744761 
L 148.032 99.572796 
L 149.148 100.950756 
L 150.264 100.315598 
L 151.38 97.325389 
L 152.496 100.779333 
L 153.612 97.091681 
L 154.728 97.486503 
L 155.844 100.801897 
L 156.96 97.352849 
L 158.076 99.227077 
L 159.192 97.271737 
L 160.308 98.214931 
L 161.424 97.634524 
L 162.54 96.72269 
L 163.656 97.608523 
L 164.772 99.161771 
L 165.888 98.287343 
L 167.004 97.240489 
L 168.12 98.034412 
L 169.236 99.225451 
L 170.352 97.744322 
L 171.468 98.385425 
L 172.584 100.112172 
L 173.7 97.199501 
L 174.816 98.17938 
L 175.932 98.706594 
L 177.048 97.441541 
L 178.164 98.027161 
L 179.28 96.05079 
L 180.396 97.01877 
L 181.512 97.493404 
L 182.628 96.305715 
L 183.744 96.947859 
L 184.86 97.201069 
L 185.976 96.36939 
L 187.092 97.312882 
L 188.208 96.101105 
L 189.324 96.09428 
L 190.44 96.296888 
L 192.672 97.162796 
L 194.904 94.755387 
L 196.02 96.138799 
L 197.136 94.174769 
L 198.252 95.074732 
L 199.368 96.46269 
L 200.484 95.941649 
L 201.6 96.120481 
L 202.716 95.547822 
L 203.832 95.653364 
L 204.948 94.137394 
L 206.064 95.893788 
L 207.18 94.821747 
L 208.296 95.000179 
L 209.412 93.940207 
L 210.528 95.292304 
L 211.644 93.904675 
L 212.76 94.388839 
L 213.876 93.326406 
L 214.992 94.920615 
L 216.108 93.616433 
L 218.34 93.8679 
L 219.456 93.614563 
L 220.572 95.187178 
L 221.688 93.569581 
L 222.804 94.921333 
L 223.92 92.106785 
L 225.036 92.464598 
L 226.152 93.634297 
L 227.268 93.321973 
L 228.384 93.273452 
L 229.5 94.673347 
L 230.616 90.784117 
L 231.732 93.249474 
L 232.848 91.853999 
L 233.964 92.647102 
L 235.08 92.54951 
L 236.196 93.327758 
L 237.312 93.539481 
L 238.428 94.076096 
L 239.544 91.58921 
L 241.776 92.468497 
L 242.892 90.801652 
L 244.008 94.013856 
L 245.124 94.033669 
L 246.24 92.73817 
L 247.356 93.378597 
L 248.472 92.11746 
L 249.588 92.660662 
L 250.704 92.499651 
L 251.82 91.828126 
L 254.052 92.318322 
L 255.168 91.869378 
L 256.284 91.713367 
L 257.4 92.452291 
L 258.516 92.138511 
L 259.632 92.879062 
L 260.748 92.744329 
L 261.864 91.968174 
L 262.98 92.067833 
L 264.096 91.172415 
L 265.212 91.213561 
L 266.328 90.9286 
L 267.444 91.291878 
L 268.56 90.74924 
L 269.676 91.399935 
L 270.792 91.796828 
L 273.024 90.705123 
L 274.14 91.185468 
L 275.256 90.868244 
L 277.488 91.851262 
L 278.604 90.176998 
L 279.72 91.703911 
L 280.836 91.172477 
L 281.952 90.818228 
L 283.068 90.627334 
L 284.184 92.502812 
L 285.3 91.200473 
L 286.416 90.824704 
L 287.532 93.354103 
L 288.648 90.055678 
L 289.764 89.918477 
L 290.88 91.350782 
L 291.996 89.840572 
L 293.112 90.809207 
L 294.228 91.529748 
L 295.344 91.325657 
L 296.46 90.515798 
L 297.576 90.532631 
L 298.692 90.775438 
L 299.808 91.707951 
L 300.924 93.608142 
L 302.04 91.576943 
L 303.156 90.525863 
L 304.272 90.033598 
L 305.388 90.896063 
L 306.504 89.984336 
L 307.62 91.593184 
L 308.736 89.942835 
L 309.852 90.599999 
L 310.968 89.972537 
L 312.084 90.679646 
L 313.2 91.692958 
L 314.316 91.010521 
L 315.432 89.387409 
L 316.548 90.006261 
L 317.664 91.142774 
L 318.78 90.495693 
L 319.896 90.551695 
L 321.012 92.160926 
L 322.128 89.302802 
L 323.244 88.967104 
L 324.36 89.656886 
L 325.476 90.078843 
L 326.592 88.631394 
L 327.708 90.108816 
L 328.824 89.737419 
L 329.94 89.089269 
L 331.056 89.28406 
L 332.172 89.261811 
L 333.288 88.784351 
L 334.404 90.888912 
L 335.52 89.712878 
L 336.636 90.514394 
L 337.752 90.082137 
L 338.868 88.791657 
L 339.984 89.590222 
L 341.1 89.825946 
L 342.216 90.458179 
L 343.332 88.309412 
L 344.448 89.706294 
L 345.564 89.761901 
L 346.68 90.413532 
L 347.796 90.929282 
L 348.912 89.846649 
L 350.028 89.215952 
L 352.26 89.800012 
L 353.376 89.308988 
L 354.492 89.565798 
L 355.608 88.267501 
L 356.724 89.351552 
L 357.84 89.767494 
L 360.072 89.789379 
L 361.188 89.1824 
L 362.304 90.474493 
L 363.42 89.025335 
L 364.536 89.523825 
L 365.652 89.698401 
L 366.768 88.960557 
L 367.884 90.057634 
L 369 88.112869 
L 370.116 89.81261 
L 371.232 90.255883 
L 372.348 88.810457 
L 373.464 88.263991 
L 374.58 87.936719 
L 375.696 88.693365 
L 376.812 90.240689 
L 377.928 89.556827 
L 379.044 89.584292 
L 380.16 89.492053 
L 381.276 87.9077 
L 382.392 88.886231 
L 383.508 88.974534 
L 384.624 89.387512 
L 385.74 89.631263 
L 386.856 87.846935 
L 387.972 88.969852 
L 389.088 94.944583 
L 390.204 88.570519 
L 391.32 88.094032 
L 392.436 89.091164 
L 393.552 89.180058 
L 394.668 89.043166 
L 395.784 88.393526 
L 396.9 89.649989 
L 398.016 89.209034 
L 399.132 89.191224 
L 400.248 88.966872 
L 401.364 87.632297 
L 403.596 88.295963 
L 404.712 88.041871 
L 405.828 90.214126 
L 406.944 88.390875 
L 408.06 89.140226 
L 410.292 88.674159 
L 411.408 89.315393 
L 412.524 88.608663 
L 413.64 88.680149 
L 414.756 89.337556 
L 415.872 88.902863 
L 416.988 87.937723 
L 418.104 88.469074 
L 419.22 89.564967 
L 420.336 88.804322 
L 421.452 89.180874 
L 422.568 87.859838 
L 423.684 88.710423 
L 424.8 89.262416 
L 425.916 88.867018 
L 427.032 89.889774 
L 428.148 88.498922 
L 429.264 90.345963 
L 430.38 89.916898 
L 431.496 89.073719 
L 432.612 87.894088 
L 433.728 89.075806 
L 434.844 89.41364 
L 435.96 88.596602 
L 437.076 89.285368 
L 438.192 87.848432 
L 439.308 89.04039 
L 440.424 88.123761 
L 441.54 88.913616 
L 442.656 88.747416 
L 443.772 88.388039 
L 444.888 87.707095 
L 446.004 88.504382 
L 447.12 88.225469 
L 448.236 88.295147 
L 451.584 89.513526 
L 452.7 88.440708 
L 453.816 89.14722 
L 454.932 87.533993 
L 456.048 89.856248 
L 457.164 88.072298 
L 458.28 102.249349 
L 459.396 88.698192 
L 460.512 88.61236 
L 461.628 87.955229 
L 463.86 89.678312 
L 464.976 88.745776 
L 466.092 89.293451 
L 467.208 88.944794 
L 468.324 88.258112 
L 469.44 87.900103 
L 470.556 89.271656 
L 471.672 87.932759 
L 472.788 88.554924 
L 475.02 88.616967 
L 476.136 87.903419 
L 478.368 89.48004 
L 479.484 88.277075 
L 480.6 88.586006 
L 481.716 88.245213 
L 482.832 88.494687 
L 485.064 88.48634 
L 486.18 88.282718 
L 487.296 88.349491 
L 488.412 88.558061 
L 490.644 87.907773 
L 491.76 88.023498 
L 492.876 88.63885 
L 493.992 89.123218 
L 495.108 89.268891 
L 496.224 88.249627 
L 497.34 87.809104 
L 498.456 88.448683 
L 499.572 88.09437 
L 500.688 88.437314 
L 501.804 87.973282 
L 502.92 89.007092 
L 504.036 88.375018 
L 505.152 89.494728 
L 506.268 88.547188 
L 507.384 88.777005 
L 508.5 88.188905 
L 509.616 87.793212 
L 510.732 88.176603 
L 511.848 88.739168 
L 512.964 88.429393 
L 514.08 88.515749 
L 515.196 87.883059 
L 517.428 89.959834 
L 518.544 88.247752 
L 519.66 88.585905 
L 520.776 88.655016 
L 521.892 87.75145 
L 523.008 87.936649 
L 524.124 88.569555 
L 525.24 88.265009 
L 526.356 87.768043 
L 527.472 88.181434 
L 529.704 87.687402 
L 530.82 88.670317 
L 531.936 88.863901 
L 533.052 90.139429 
L 534.168 89.14411 
L 535.284 87.537687 
L 536.4 88.268533 
L 537.516 88.069572 
L 538.632 88.18806 
L 539.748 87.981905 
L 540.864 87.054725 
L 541.98 87.691563 
L 544.212 88.129186 
L 545.328 88.380037 
L 546.444 95.454759 
L 547.56 87.704838 
L 548.676 90.76673 
L 549.792 87.989713 
L 550.908 87.778063 
L 553.14 88.732636 
L 554.256 87.985221 
L 555.372 87.772455 
L 556.488 88.386495 
L 557.604 88.606935 
L 558.72 87.178357 
L 559.836 87.299662 
L 560.952 89.218554 
L 562.068 88.641987 
L 563.184 87.752344 
L 564.3 88.819584 
L 565.416 88.081395 
L 566.532 88.730742 
L 567.648 88.305783 
L 568.764 88.015691 
L 569.88 89.09906 
L 570.996 88.35479 
L 572.112 88.461295 
L 573.228 87.263968 
L 574.344 87.960715 
L 575.46 87.715553 
L 576.576 88.344389 
L 577.692 88.704039 
L 579.924 88.137658 
L 581.04 89.317503 
L 582.156 87.924485 
L 583.272 88.464882 
L 584.388 87.611581 
L 585.504 88.237209 
L 586.62 86.89285 
L 587.736 88.023278 
L 588.852 88.068407 
L 589.968 87.582409 
L 592.2 88.540651 
L 594.432 87.910166 
L 595.548 88.360201 
L 596.664 88.477882 
L 597.78 87.956812 
L 598.896 87.797933 
L 600.012 87.935313 
L 601.128 89.199314 
L 602.244 88.149533 
L 603.36 87.98363 
L 604.476 88.565011 
L 605.592 89.822586 
L 606.708 87.757717 
L 607.824 87.766054 
L 608.94 88.142966 
L 610.056 88.215489 
L 611.172 88.03751 
L 612.288 88.246914 
L 613.404 87.698919 
L 614.52 87.702654 
L 615.636 88.043529 
L 616.752 87.15726 
L 617.868 87.629569 
L 618.984 87.33979 
L 620.1 87.745539 
L 621.216 86.544496 
L 622.332 88.286716 
L 623.448 88.073087 
L 624.564 88.406181 
L 625.68 89.059454 
L 627.912 88.261698 
L 629.028 89.203746 
L 630.144 89.382308 
L 631.26 87.097299 
L 632.376 88.28517 
L 633.492 88.036754 
L 634.608 86.950304 
L 635.724 86.826461 
L 636.84 86.891903 
L 637.956 87.268522 
L 639.072 88.307255 
L 640.188 87.108782 
L 641.304 87.559008 
L 642.42 87.492103 
L 643.536 88.377814 
L 644.652 88.046426 
L 645.768 87.911003 
L 646.884 88.742365 
L 646.884 88.742365 
" clip-path="url(#pb1017d8491)" style="fill: none; stroke-dasharray: 7.4,3.2; stroke-dashoffset: 0; stroke: #ffa500; stroke-width: 2"/>
   </g>
   <g id="patch_3">
    <path d="M 90 384.48 
L 90 51.84 
" style="fill: none; stroke: #000000; stroke-width: 0.8; stroke-linejoin: miter; stroke-linecap: square"/>
   </g>
   <g id="patch_4">
    <path d="M 648 384.48 
L 648 51.84 
" style="fill: none; stroke: #000000; stroke-width: 0.8; stroke-linejoin: miter; stroke-linecap: square"/>
   </g>
   <g id="patch_5">
    <path d="M 90 384.48 
L 648 384.48 
" style="fill: none; stroke: #000000; stroke-width: 0.8; stroke-linejoin: miter; stroke-linecap: square"/>
   </g>
   <g id="patch_6">
    <path d="M 90 51.84 
L 648 51.84 
" style="fill: none; stroke: #000000; stroke-width: 0.8; stroke-linejoin: miter; stroke-linecap: square"/>
   </g>
   <g id="legend_1">
    <g id="patch_7">
     <path d="M 514.8 375.48 
L 635.4 375.48 
Q 639 375.48 639 371.88 
L 639 278.28 
Q 639 274.68 635.4 274.68 
L 514.8 274.68 
Q 511.2 274.68 511.2 278.28 
L 511.2 371.88 
Q 511.2 375.48 514.8 375.48 
z
" style="fill: #ffffff; opacity: 0.8; stroke: #cccccc; stroke-linejoin: miter"/>
    </g>
    <g id="line2d_29">
     <path d="M 518.4 288.18 
L 536.4 288.18 
L 554.4 288.18 
" style="fill: none; stroke-dasharray: 7.4,3.2; stroke-dashoffset: 0; stroke: #ff0000; stroke-width: 2"/>
    </g>
    <g id="text_15">
     <!-- optimal -->
     <g transform="translate(568.8 294.48) scale(0.18 -0.18)">
      <defs>
       <path id="SimHei-6f" d="M 2925 1525 
Q 2925 875 2525 475 
Q 2125 75 1575 75 
Q 1025 75 625 475 
Q 225 875 225 1525 
Q 225 2175 625 2575 
Q 1025 2975 1575 2975 
Q 2125 2975 2525 2575 
Q 2925 2175 2925 1525 
z
M 2375 1525 
Q 2375 2025 2125 2275 
Q 1875 2525 1575 2525 
Q 1275 2525 1025 2275 
Q 775 2025 775 1525 
Q 775 1025 1025 775 
Q 1275 525 1575 525 
Q 1875 525 2125 775 
Q 2375 1025 2375 1525 
z
" transform="scale(0.015625)"/>
       <path id="SimHei-70" d="M 2825 1525 
Q 2825 800 2475 425 
Q 2125 50 1625 50 
Q 1350 50 1150 162 
Q 950 275 800 500 
L 800 -800 
L 300 -800 
L 300 2925 
L 800 2925 
L 800 2550 
Q 950 2775 1150 2875 
Q 1350 2975 1625 2975 
Q 2125 2975 2475 2612 
Q 2825 2250 2825 1525 
z
M 2275 1525 
Q 2275 2000 2087 2262 
Q 1900 2525 1525 2525 
Q 1225 2525 1012 2262 
Q 800 2000 800 1525 
Q 800 1050 1012 775 
Q 1225 500 1525 500 
Q 1900 500 2087 775 
Q 2275 1050 2275 1525 
z
" transform="scale(0.015625)"/>
       <path id="SimHei-6d" d="M 3050 125 
L 2550 125 
L 2550 2150 
Q 2550 2300 2500 2400 
Q 2450 2500 2300 2500 
Q 2125 2500 1975 2312 
Q 1825 2125 1825 1825 
L 1825 125 
L 1325 125 
L 1325 2150 
Q 1325 2300 1275 2400 
Q 1225 2500 1075 2500 
Q 900 2500 750 2312 
Q 600 2125 600 1825 
L 600 125 
L 100 125 
L 100 2925 
L 600 2925 
L 600 2550 
Q 725 2750 900 2862 
Q 1075 2975 1275 2975 
Q 1475 2975 1612 2862 
Q 1750 2750 1800 2550 
Q 1925 2750 2087 2862 
Q 2250 2975 2450 2975 
Q 2750 2975 2900 2812 
Q 3050 2650 3050 2350 
L 3050 125 
z
" transform="scale(0.015625)"/>
       <path id="SimHei-61" d="M 2875 125 
L 2275 125 
Q 2225 175 2200 262 
Q 2175 350 2175 475 
Q 2000 275 1750 175 
Q 1500 75 1225 75 
Q 825 75 550 275 
Q 275 475 275 850 
Q 275 1225 525 1450 
Q 775 1675 1300 1750 
Q 1650 1800 1912 1875 
Q 2175 1950 2175 2075 
Q 2175 2225 2062 2375 
Q 1950 2525 1575 2525 
Q 1275 2525 1137 2412 
Q 1000 2300 950 2100 
L 400 2100 
Q 450 2500 762 2737 
Q 1075 2975 1575 2975 
Q 2125 2975 2400 2725 
Q 2675 2475 2675 2025 
L 2675 650 
Q 2675 500 2725 375 
Q 2775 250 2875 125 
z
M 2175 1050 
L 2175 1550 
Q 2025 1500 1887 1462 
Q 1750 1425 1425 1375 
Q 1050 1325 937 1200 
Q 825 1075 825 900 
Q 825 750 937 637 
Q 1050 525 1275 525 
Q 1500 525 1762 650 
Q 2025 775 2175 1050 
z
" transform="scale(0.015625)"/>
       <path id="SimHei-6c" d="M 1825 125 
L 1325 125 
L 1325 4400 
L 1825 4400 
L 1825 125 
z
" transform="scale(0.015625)"/>
      </defs>
      <use xlink:href="#SimHei-6f"/>
      <use xlink:href="#SimHei-70" x="50"/>
      <use xlink:href="#SimHei-74" x="100"/>
      <use xlink:href="#SimHei-69" x="150"/>
      <use xlink:href="#SimHei-6d" x="200"/>
      <use xlink:href="#SimHei-61" x="250"/>
      <use xlink:href="#SimHei-6c" x="300"/>
     </g>
    </g>
    <g id="line2d_30">
     <path d="M 518.4 312.03 
L 536.4 312.03 
L 554.4 312.03 
" style="fill: none; stroke-dasharray: 7.4,3.2; stroke-dashoffset: 0; stroke: #0000ff; stroke-width: 2"/>
    </g>
    <g id="text_16">
     <!-- greedy -->
     <g transform="translate(568.8 318.33) scale(0.18 -0.18)">
      <defs>
       <path id="SimHei-67" d="M 2975 2500 
Q 2800 2550 2637 2562 
Q 2475 2575 2300 2525 
Q 2375 2450 2425 2337 
Q 2475 2225 2475 2000 
Q 2475 1575 2187 1300 
Q 1900 1025 1475 1025 
Q 1375 1025 1212 1062 
Q 1050 1100 950 1150 
Q 875 1100 850 1050 
Q 825 1000 825 925 
Q 825 800 1000 737 
Q 1175 675 1625 675 
Q 2350 675 2612 475 
Q 2875 275 2875 -25 
Q 2875 -425 2487 -612 
Q 2100 -800 1575 -800 
Q 900 -800 575 -625 
Q 250 -450 250 -150 
Q 250 0 375 150 
Q 500 300 700 400 
Q 550 475 462 587 
Q 375 700 375 875 
Q 375 1025 487 1137 
Q 600 1250 750 1325 
Q 625 1450 550 1625 
Q 475 1800 475 2000 
Q 475 2425 762 2700 
Q 1050 2975 1475 2975 
Q 1700 2975 1862 2912 
Q 2025 2850 2150 2725 
Q 2350 2875 2550 2937 
Q 2750 3000 2975 2975 
L 2975 2500 
z
M 1975 2000 
Q 1975 2250 1850 2400 
Q 1725 2550 1475 2550 
Q 1225 2550 1100 2400 
Q 975 2250 975 2000 
Q 975 1750 1100 1600 
Q 1225 1450 1475 1450 
Q 1725 1450 1850 1600 
Q 1975 1750 1975 2000 
z
M 2400 -75 
Q 2400 25 2287 125 
Q 2175 225 1725 225 
Q 1625 225 1450 237 
Q 1275 250 1050 275 
Q 850 200 775 100 
Q 700 0 700 -100 
Q 700 -250 900 -350 
Q 1100 -450 1600 -450 
Q 2025 -450 2212 -337 
Q 2400 -225 2400 -75 
z
" transform="scale(0.015625)"/>
       <path id="SimHei-72" d="M 2500 2425 
Q 2025 2500 1700 2287 
Q 1375 2075 1150 1550 
L 1150 125 
L 650 125 
L 650 2925 
L 1150 2925 
L 1150 2200 
Q 1375 2600 1712 2787 
Q 2050 2975 2500 2975 
L 2500 2425 
z
" transform="scale(0.015625)"/>
       <path id="SimHei-65" d="M 2850 1075 
Q 2800 625 2450 350 
Q 2100 75 1625 75 
Q 1025 75 637 462 
Q 250 850 250 1525 
Q 250 2200 637 2587 
Q 1025 2975 1625 2975 
Q 2150 2975 2487 2637 
Q 2825 2300 2825 1525 
L 800 1525 
Q 800 975 1037 750 
Q 1275 525 1625 525 
Q 1900 525 2075 662 
Q 2250 800 2300 1075 
L 2850 1075 
z
M 2250 1925 
Q 2200 2275 2025 2412 
Q 1850 2550 1575 2550 
Q 1325 2550 1125 2412 
Q 925 2275 825 1925 
L 2250 1925 
z
" transform="scale(0.015625)"/>
       <path id="SimHei-64" d="M 2750 125 
L 2250 125 
L 2250 500 
Q 2100 275 1900 175 
Q 1700 75 1425 75 
Q 925 75 575 437 
Q 225 800 225 1525 
Q 225 2250 575 2625 
Q 925 3000 1425 3000 
Q 1700 3000 1900 2887 
Q 2100 2775 2250 2550 
L 2250 4400 
L 2750 4400 
L 2750 125 
z
M 2250 1525 
Q 2250 2000 2037 2275 
Q 1825 2550 1525 2550 
Q 1150 2550 962 2275 
Q 775 2000 775 1525 
Q 775 1050 962 787 
Q 1150 525 1525 525 
Q 1825 525 2037 787 
Q 2250 1050 2250 1525 
z
" transform="scale(0.015625)"/>
       <path id="SimHei-79" d="M 2900 2925 
L 1750 -100 
Q 1650 -450 1450 -625 
Q 1250 -800 950 -800 
Q 825 -800 712 -787 
Q 600 -775 500 -725 
L 500 -225 
Q 600 -275 700 -300 
Q 800 -325 875 -325 
Q 1075 -325 1150 -262 
Q 1225 -200 1300 25 
L 200 2925 
L 750 2925 
L 1550 725 
L 1575 725 
L 2350 2925 
L 2900 2925 
z
" transform="scale(0.015625)"/>
      </defs>
      <use xlink:href="#SimHei-67"/>
      <use xlink:href="#SimHei-72" x="50"/>
      <use xlink:href="#SimHei-65" x="100"/>
      <use xlink:href="#SimHei-65" x="150"/>
      <use xlink:href="#SimHei-64" x="200"/>
      <use xlink:href="#SimHei-79" x="250"/>
     </g>
    </g>
    <g id="line2d_31">
     <path d="M 518.4 335.88 
L 536.4 335.88 
L 554.4 335.88 
" style="fill: none; stroke-dasharray: 7.4,3.2; stroke-dashoffset: 0; stroke: #008000; stroke-width: 2"/>
    </g>
    <g id="text_17">
     <!-- ppo -->
     <g transform="translate(568.8 342.18) scale(0.18 -0.18)">
      <use xlink:href="#SimHei-70"/>
      <use xlink:href="#SimHei-70" x="50"/>
      <use xlink:href="#SimHei-6f" x="100"/>
     </g>
    </g>
    <g id="line2d_32">
     <path d="M 518.4 359.73 
L 536.4 359.73 
L 554.4 359.73 
" style="fill: none; stroke-dasharray: 7.4,3.2; stroke-dashoffset: 0; stroke: #ffa500; stroke-width: 2"/>
    </g>
    <g id="text_18">
     <!-- sac -->
     <g transform="translate(568.8 366.03) scale(0.18 -0.18)">
      <defs>
       <path id="SimHei-63" d="M 2850 1250 
Q 2850 725 2487 400 
Q 2125 75 1575 75 
Q 1025 75 625 462 
Q 225 850 225 1525 
Q 225 2200 625 2587 
Q 1025 2975 1575 2975 
Q 2125 2975 2450 2687 
Q 2775 2400 2775 2000 
L 2225 2000 
Q 2200 2300 2012 2412 
Q 1825 2525 1575 2525 
Q 1275 2525 1025 2287 
Q 775 2050 775 1525 
Q 775 1000 1025 762 
Q 1275 525 1575 525 
Q 1900 525 2100 700 
Q 2300 875 2300 1250 
L 2850 1250 
z
" transform="scale(0.015625)"/>
      </defs>
      <use xlink:href="#SimHei-73"/>
      <use xlink:href="#SimHei-61" x="50"/>
      <use xlink:href="#SimHei-63" x="100"/>
     </g>
    </g>
   </g>
  </g>
 </g>
 <defs>
  <clipPath id="pb1017d8491">
   <rect x="90" y="51.84" width="558" height="332.64"/>
  </clipPath>
 </defs>
</svg>
