<?xml version="1.0" encoding="utf-8" standalone="no"?>
<!DOCTYPE svg PUBLIC "-//W3C//DTD SVG 1.1//EN"
  "http://www.w3.org/Graphics/SVG/1.1/DTD/svg11.dtd">
<svg xmlns:xlink="http://www.w3.org/1999/xlink" width="720pt" height="432pt" viewBox="0 0 720 432" xmlns="http://www.w3.org/2000/svg" version="1.1">
 <metadata>
  <rdf:RDF xmlns:dc="http://purl.org/dc/elements/1.1/" xmlns:cc="http://creativecommons.org/ns#" xmlns:rdf="http://www.w3.org/1999/02/22-rdf-syntax-ns#">
   <cc:Work>
    <dc:type rdf:resource="http://purl.org/dc/dcmitype/StillImage"/>
    <dc:date>2024-05-24T15:57:35.986627</dc:date>
    <dc:format>image/svg+xml</dc:format>
    <dc:creator>
     <cc:Agent>
      <dc:title>Matplotlib v3.7.1, https://matplotlib.org/</dc:title>
     </cc:Agent>
    </dc:creator>
   </cc:Work>
  </rdf:RDF>
 </metadata>
 <defs>
  <style type="text/css">*{stroke-linejoin: round; stroke-linecap: butt}</style>
 </defs>
 <g id="figure_1">
  <g id="patch_1">
   <path d="M 0 432 
L 720 432 
L 720 0 
L 0 0 
z
" style="fill: #ffffff"/>
  </g>
  <g id="axes_1">
   <g id="patch_2">
    <path d="M 90 384.48 
L 648 384.48 
L 648 51.84 
L 90 51.84 
z
" style="fill: #ffffff"/>
   </g>
   <g id="matplotlib.axis_1">
    <g id="xtick_1">
     <g id="line2d_1">
      <path d="M 90 384.48 
L 90 51.84 
" clip-path="url(#p0ec5bc04cb)" style="fill: none; stroke: #b0b0b0; stroke-width: 0.8; stroke-linecap: square"/>
     </g>
     <g id="line2d_2">
      <defs>
       <path id="m0b027b9dc3" d="M 0 0 
L 0 3.5 
" style="stroke: #000000; stroke-width: 0.8"/>
      </defs>
      <g>
       <use xlink:href="#m0b027b9dc3" x="90" y="384.48" style="stroke: #000000; stroke-width: 0.8"/>
      </g>
     </g>
     <g id="text_1">
      <!-- 0 -->
      <g transform="translate(85.5 403.855) scale(0.18 -0.18)">
       <defs>
        <path id="SimHei-30" d="M 225 2537 
Q 250 3200 412 3587 
Q 575 3975 875 4225 
Q 1175 4475 1612 4475 
Q 2050 4475 2375 4112 
Q 2700 3750 2800 3200 
Q 2900 2650 2862 1937 
Q 2825 1225 2612 775 
Q 2400 325 1975 150 
Q 1550 -25 1125 187 
Q 700 400 525 750 
Q 350 1100 275 1487 
Q 200 1875 225 2537 
z
M 750 2687 
Q 675 2000 800 1462 
Q 925 925 1212 700 
Q 1500 475 1800 612 
Q 2100 750 2237 1162 
Q 2375 1575 2375 2062 
Q 2375 2550 2337 2950 
Q 2300 3350 2112 3675 
Q 1925 4000 1612 4012 
Q 1300 4025 1062 3700 
Q 825 3375 750 2687 
z
" transform="scale(0.015625)"/>
       </defs>
       <use xlink:href="#SimHei-30"/>
      </g>
     </g>
    </g>
    <g id="xtick_2">
     <g id="line2d_3">
      <path d="M 201.6 384.48 
L 201.6 51.84 
" clip-path="url(#p0ec5bc04cb)" style="fill: none; stroke: #b0b0b0; stroke-width: 0.8; stroke-linecap: square"/>
     </g>
     <g id="line2d_4">
      <g>
       <use xlink:href="#m0b027b9dc3" x="201.6" y="384.48" style="stroke: #000000; stroke-width: 0.8"/>
      </g>
     </g>
     <g id="text_2">
      <!-- 100 -->
      <g transform="translate(188.1 403.855) scale(0.18 -0.18)">
       <defs>
        <path id="SimHei-31" d="M 1400 3600 
Q 1075 3275 575 2975 
L 575 3450 
Q 1200 3875 1600 4450 
L 1900 4450 
L 1900 150 
L 1400 150 
L 1400 3600 
z
" transform="scale(0.015625)"/>
       </defs>
       <use xlink:href="#SimHei-31"/>
       <use xlink:href="#SimHei-30" x="50"/>
       <use xlink:href="#SimHei-30" x="100"/>
      </g>
     </g>
    </g>
    <g id="xtick_3">
     <g id="line2d_5">
      <path d="M 313.2 384.48 
L 313.2 51.84 
" clip-path="url(#p0ec5bc04cb)" style="fill: none; stroke: #b0b0b0; stroke-width: 0.8; stroke-linecap: square"/>
     </g>
     <g id="line2d_6">
      <g>
       <use xlink:href="#m0b027b9dc3" x="313.2" y="384.48" style="stroke: #000000; stroke-width: 0.8"/>
      </g>
     </g>
     <g id="text_3">
      <!-- 200 -->
      <g transform="translate(299.7 403.855) scale(0.18 -0.18)">
       <defs>
        <path id="SimHei-32" d="M 300 250 
Q 325 625 650 925 
Q 975 1225 1475 1862 
Q 1975 2500 2125 2850 
Q 2275 3200 2237 3450 
Q 2200 3700 2000 3862 
Q 1800 4025 1537 4000 
Q 1275 3975 1037 3800 
Q 800 3625 675 3275 
L 200 3350 
Q 400 3925 712 4187 
Q 1025 4450 1450 4475 
Q 1700 4500 1900 4462 
Q 2100 4425 2312 4287 
Q 2525 4150 2662 3875 
Q 2800 3600 2762 3212 
Q 2725 2825 2375 2287 
Q 2025 1750 1025 600 
L 2825 600 
L 2825 150 
L 300 150 
L 300 250 
z
" transform="scale(0.015625)"/>
       </defs>
       <use xlink:href="#SimHei-32"/>
       <use xlink:href="#SimHei-30" x="50"/>
       <use xlink:href="#SimHei-30" x="100"/>
      </g>
     </g>
    </g>
    <g id="xtick_4">
     <g id="line2d_7">
      <path d="M 424.8 384.48 
L 424.8 51.84 
" clip-path="url(#p0ec5bc04cb)" style="fill: none; stroke: #b0b0b0; stroke-width: 0.8; stroke-linecap: square"/>
     </g>
     <g id="line2d_8">
      <g>
       <use xlink:href="#m0b027b9dc3" x="424.8" y="384.48" style="stroke: #000000; stroke-width: 0.8"/>
      </g>
     </g>
     <g id="text_4">
      <!-- 300 -->
      <g transform="translate(411.3 403.855) scale(0.18 -0.18)">
       <defs>
        <path id="SimHei-33" d="M 250 1225 
L 700 1300 
Q 800 975 1025 762 
Q 1250 550 1587 562 
Q 1925 575 2125 837 
Q 2325 1100 2300 1437 
Q 2275 1775 2037 1962 
Q 1800 2150 1275 2225 
L 1275 2550 
Q 1800 2600 2037 2825 
Q 2275 3050 2250 3412 
Q 2225 3775 1925 3937 
Q 1625 4100 1287 3975 
Q 950 3850 750 3275 
L 300 3350 
Q 450 3800 712 4100 
Q 975 4400 1425 4450 
Q 1875 4500 2212 4337 
Q 2550 4175 2687 3837 
Q 2825 3500 2725 3100 
Q 2625 2700 2150 2400 
Q 2500 2250 2687 1950 
Q 2875 1650 2812 1162 
Q 2750 675 2375 375 
Q 2000 75 1525 87 
Q 1050 100 700 387 
Q 350 675 250 1225 
z
" transform="scale(0.015625)"/>
       </defs>
       <use xlink:href="#SimHei-33"/>
       <use xlink:href="#SimHei-30" x="50"/>
       <use xlink:href="#SimHei-30" x="100"/>
      </g>
     </g>
    </g>
    <g id="xtick_5">
     <g id="line2d_9">
      <path d="M 536.4 384.48 
L 536.4 51.84 
" clip-path="url(#p0ec5bc04cb)" style="fill: none; stroke: #b0b0b0; stroke-width: 0.8; stroke-linecap: square"/>
     </g>
     <g id="line2d_10">
      <g>
       <use xlink:href="#m0b027b9dc3" x="536.4" y="384.48" style="stroke: #000000; stroke-width: 0.8"/>
      </g>
     </g>
     <g id="text_5">
      <!-- 400 -->
      <g transform="translate(522.9 403.855) scale(0.18 -0.18)">
       <defs>
        <path id="SimHei-34" d="M 2000 1100 
L 75 1100 
L 75 1525 
L 2100 4450 
L 2475 4450 
L 2475 1525 
L 3075 1525 
L 3075 1100 
L 2475 1100 
L 2475 150 
L 2000 150 
L 2000 1100 
z
M 2000 1525 
L 2000 3500 
L 600 1525 
L 2000 1525 
z
" transform="scale(0.015625)"/>
       </defs>
       <use xlink:href="#SimHei-34"/>
       <use xlink:href="#SimHei-30" x="50"/>
       <use xlink:href="#SimHei-30" x="100"/>
      </g>
     </g>
    </g>
    <g id="xtick_6">
     <g id="line2d_11">
      <path d="M 648 384.48 
L 648 51.84 
" clip-path="url(#p0ec5bc04cb)" style="fill: none; stroke: #b0b0b0; stroke-width: 0.8; stroke-linecap: square"/>
     </g>
     <g id="line2d_12">
      <g>
       <use xlink:href="#m0b027b9dc3" x="648" y="384.48" style="stroke: #000000; stroke-width: 0.8"/>
      </g>
     </g>
     <g id="text_6">
      <!-- 500 -->
      <g transform="translate(634.5 403.855) scale(0.18 -0.18)">
       <defs>
        <path id="SimHei-35" d="M 550 1325 
Q 725 650 1150 575 
Q 1575 500 1837 662 
Q 2100 825 2212 1087 
Q 2325 1350 2312 1675 
Q 2300 2000 2137 2225 
Q 1975 2450 1725 2525 
Q 1475 2600 1162 2525 
Q 850 2450 650 2175 
L 225 2225 
Q 275 2375 700 4375 
L 2675 4375 
L 2675 3925 
L 1075 3925 
Q 950 3250 825 2850 
Q 1200 3025 1525 3012 
Q 1850 3000 2150 2862 
Q 2450 2725 2587 2487 
Q 2725 2250 2787 2012 
Q 2850 1775 2837 1500 
Q 2825 1225 2725 937 
Q 2625 650 2425 462 
Q 2225 275 1937 162 
Q 1650 50 1275 75 
Q 900 100 562 350 
Q 225 600 100 1200 
L 550 1325 
z
" transform="scale(0.015625)"/>
       </defs>
       <use xlink:href="#SimHei-35"/>
       <use xlink:href="#SimHei-30" x="50"/>
       <use xlink:href="#SimHei-30" x="100"/>
      </g>
     </g>
    </g>
    <g id="text_7">
     <!-- 迭代次数 -->
     <g transform="translate(329 426.0425) scale(0.2 -0.2)">
      <defs>
       <path id="SimHei-8fed" d="M 3900 1875 
Q 3600 1350 3287 1012 
Q 2975 675 2450 275 
Q 2350 475 2025 700 
Q 2600 975 3012 1425 
Q 3425 1875 3600 2450 
Q 2350 2450 1950 2425 
L 1950 2900 
Q 2375 2875 3675 2875 
Q 3725 3250 3750 3775 
L 2800 3775 
Q 2675 3450 2550 3175 
Q 2300 3300 2075 3350 
Q 2275 3675 2425 4112 
Q 2575 4550 2700 5100 
Q 2850 5000 3225 4925 
Q 3075 4725 2950 4200 
L 3750 4200 
Q 3750 4850 3700 5250 
L 4275 5225 
Q 4225 4925 4200 4200 
L 4950 4200 
Q 5175 4200 5575 4225 
L 5575 3725 
Q 5175 3775 4875 3775 
L 4200 3775 
Q 4175 3250 4125 2875 
L 5150 2875 
Q 5475 2875 5925 2900 
L 5925 2425 
Q 5475 2450 5075 2450 
L 4100 2450 
L 4050 2300 
Q 4650 1775 5725 700 
Q 5600 650 5275 300 
Q 4775 975 3900 1875 
z
M 1550 2950 
L 1550 625 
Q 2200 -25 3712 -12 
Q 5225 0 6125 100 
Q 5950 -225 5900 -475 
L 3575 -475 
Q 2975 -475 2525 -387 
Q 2075 -300 1725 -50 
Q 1375 200 1162 12 
Q 950 -175 650 -550 
Q 500 -350 250 -175 
Q 775 275 1075 575 
L 1075 2525 
Q 750 2525 350 2500 
L 350 2975 
Q 775 2950 1075 2950 
L 1550 2950 
z
M 1125 5025 
Q 1525 4275 1675 3900 
Q 1450 3875 1175 3650 
Q 950 4275 650 4750 
Q 900 4850 1125 5025 
z
" transform="scale(0.015625)"/>
       <path id="SimHei-4ee3" d="M 3300 2950 
Q 3175 4575 3150 5100 
Q 3300 5075 3725 5025 
Q 3675 4725 3800 3050 
Q 5000 3275 5650 3475 
L 5775 3000 
Q 5500 2975 3850 2625 
Q 4150 1050 4737 450 
Q 5325 -150 5412 125 
Q 5500 400 5525 725 
Q 5800 550 6075 500 
Q 5900 -200 5737 -425 
Q 5575 -650 5137 -500 
Q 4700 -350 4187 300 
Q 3675 950 3350 2525 
Q 2400 2325 2175 2250 
L 2025 2725 
Q 2425 2775 3300 2950 
z
M 2250 4975 
Q 2100 4725 1700 3650 
L 1700 475 
Q 1700 -50 1725 -600 
L 1200 -600 
Q 1225 -50 1225 475 
L 1225 2750 
Q 850 2150 600 1850 
Q 450 2050 225 2225 
Q 625 2600 1050 3425 
Q 1475 4250 1675 5200 
Q 2050 5025 2250 4975 
z
M 4700 4875 
Q 5150 4325 5325 4050 
Q 5100 3900 4875 3725 
Q 4650 4150 4300 4575 
Q 4500 4700 4700 4875 
z
" transform="scale(0.015625)"/>
       <path id="SimHei-6b21" d="M 4150 3025 
Q 4000 2550 4050 2187 
Q 4100 1825 4275 1450 
Q 4450 1075 4800 750 
Q 5150 425 5475 212 
Q 5800 0 6150 -150 
Q 5875 -350 5750 -625 
Q 5250 -325 4887 -25 
Q 4525 275 4275 612 
Q 4025 950 3825 1425 
Q 3525 625 2950 125 
Q 2375 -375 1850 -650 
Q 1675 -400 1475 -225 
Q 2025 0 2487 362 
Q 2950 725 3162 1100 
Q 3375 1475 3450 1825 
Q 3525 2175 3537 2400 
Q 3550 2625 3525 3125 
Q 3825 3050 4150 3025 
z
M 3700 4975 
Q 3625 4900 3475 4575 
Q 3325 4250 3250 4075 
L 5775 4075 
Q 5650 3725 5550 3362 
Q 5450 3000 5275 2500 
Q 5000 2575 4775 2600 
Q 5025 3350 5100 3650 
L 3100 3650 
Q 2975 3400 2812 3100 
Q 2650 2800 2425 2450 
Q 2275 2600 1975 2700 
Q 2300 3050 2625 3762 
Q 2950 4475 3125 5200 
Q 3450 5025 3700 4975 
z
M 2025 2000 
Q 1825 1675 1475 1087 
Q 1125 500 725 -200 
Q 500 -25 250 175 
Q 725 725 1037 1262 
Q 1350 1800 1575 2325 
Q 1750 2175 2025 2000 
z
M 900 4750 
Q 1725 3725 1950 3375 
Q 1750 3250 1500 3050 
Q 1250 3525 500 4425 
Q 700 4575 900 4750 
z
" transform="scale(0.015625)"/>
       <path id="SimHei-6570" d="M 4525 4925 
Q 4475 4800 4400 4587 
Q 4325 4375 4175 3825 
L 5325 3825 
Q 5575 3825 5925 3850 
L 5925 3400 
Q 5650 3425 5500 3425 
Q 5500 3025 5362 2162 
Q 5225 1300 4875 675 
Q 5125 375 5437 137 
Q 5750 -100 6025 -200 
Q 5725 -425 5625 -625 
Q 5325 -450 5075 -225 
Q 4825 0 4575 325 
Q 4300 25 3987 -187 
Q 3675 -400 3200 -650 
Q 3075 -425 2850 -300 
Q 3225 -150 3650 125 
Q 4075 400 4300 675 
Q 4125 1025 3962 1425 
Q 3800 1825 3675 2475 
Q 3600 2275 3425 1950 
Q 3250 2050 3000 2150 
Q 3400 2850 3650 3675 
Q 3900 4500 3975 5100 
Q 4275 4975 4525 4925 
z
M 2100 2250 
Q 2000 2150 1875 1925 
L 3250 1925 
Q 3100 1300 2725 675 
Q 3125 525 3350 400 
Q 3225 225 3125 25 
Q 2900 175 2450 325 
Q 1950 -225 725 -650 
Q 600 -375 400 -275 
Q 1575 0 2000 475 
Q 1300 650 850 775 
Q 1000 1000 1250 1525 
Q 1000 1525 425 1500 
L 425 1950 
Q 900 1925 1400 1925 
Q 1500 2150 1550 2425 
Q 1825 2325 2100 2250 
z
M 1775 3950 
Q 1775 4550 1750 5100 
L 2250 5100 
Q 2225 4575 2225 3950 
Q 3075 3950 3425 3975 
L 3425 3525 
Q 3075 3550 2225 3550 
Q 2225 2825 2250 2425 
L 1750 2425 
Q 1775 2775 1775 3300 
Q 1650 3100 1300 2787 
Q 950 2475 650 2300 
Q 525 2525 275 2625 
Q 500 2700 875 2975 
Q 1250 3250 1450 3550 
Q 950 3550 500 3525 
L 500 3975 
Q 925 3950 1775 3950 
z
M 3975 3175 
Q 4200 1700 4600 1125 
Q 4850 1700 4937 2287 
Q 5025 2875 5050 3425 
L 4075 3425 
L 3975 3175 
z
M 1450 1000 
Q 1750 925 2275 800 
Q 2475 1050 2650 1525 
L 1725 1525 
Q 1600 1275 1450 1000 
z
M 3325 4825 
Q 3200 4625 3125 4450 
Q 3050 4275 2925 4025 
Q 2725 4125 2525 4175 
Q 2725 4500 2900 5000 
Q 3150 4875 3325 4825 
z
M 2575 3375 
Q 2900 3050 3200 2725 
Q 3050 2600 2875 2425 
Q 2525 2850 2300 3100 
Q 2450 3225 2575 3375 
z
M 925 5000 
Q 1275 4650 1500 4300 
L 1125 4075 
Q 950 4425 600 4725 
Q 825 4875 925 5000 
z
" transform="scale(0.015625)"/>
      </defs>
      <use xlink:href="#SimHei-8fed"/>
      <use xlink:href="#SimHei-4ee3" x="100"/>
      <use xlink:href="#SimHei-6b21" x="200"/>
      <use xlink:href="#SimHei-6570" x="300"/>
     </g>
    </g>
   </g>
   <g id="matplotlib.axis_2">
    <g id="ytick_1">
     <g id="line2d_13">
      <path d="M 90 371.831997 
L 648 371.831997 
" clip-path="url(#p0ec5bc04cb)" style="fill: none; stroke: #b0b0b0; stroke-width: 0.8; stroke-linecap: square"/>
     </g>
     <g id="line2d_14">
      <defs>
       <path id="m2cd18d9a44" d="M 0 0 
L -3.5 0 
" style="stroke: #000000; stroke-width: 0.8"/>
      </defs>
      <g>
       <use xlink:href="#m2cd18d9a44" x="90" y="371.831997" style="stroke: #000000; stroke-width: 0.8"/>
      </g>
     </g>
     <g id="text_8">
      <!-- -1000 -->
      <g transform="translate(38 378.019497) scale(0.18 -0.18)">
       <defs>
        <path id="SimHei-2d" d="M 2975 2125 
L 125 2125 
L 125 2525 
L 2975 2525 
L 2975 2125 
z
" transform="scale(0.015625)"/>
       </defs>
       <use xlink:href="#SimHei-2d"/>
       <use xlink:href="#SimHei-31" x="50"/>
       <use xlink:href="#SimHei-30" x="100"/>
       <use xlink:href="#SimHei-30" x="150"/>
       <use xlink:href="#SimHei-30" x="200"/>
      </g>
     </g>
    </g>
    <g id="ytick_2">
     <g id="line2d_15">
      <path d="M 90 332.300928 
L 648 332.300928 
" clip-path="url(#p0ec5bc04cb)" style="fill: none; stroke: #b0b0b0; stroke-width: 0.8; stroke-linecap: square"/>
     </g>
     <g id="line2d_16">
      <g>
       <use xlink:href="#m2cd18d9a44" x="90" y="332.300928" style="stroke: #000000; stroke-width: 0.8"/>
      </g>
     </g>
     <g id="text_9">
      <!-- -750 -->
      <g transform="translate(47 338.488428) scale(0.18 -0.18)">
       <defs>
        <path id="SimHei-37" d="M 850 150 
Q 1300 2050 2425 3925 
L 275 3925 
L 275 4375 
L 2950 4375 
L 2950 3950 
Q 1775 2050 1400 150 
L 850 150 
z
" transform="scale(0.015625)"/>
       </defs>
       <use xlink:href="#SimHei-2d"/>
       <use xlink:href="#SimHei-37" x="50"/>
       <use xlink:href="#SimHei-35" x="100"/>
       <use xlink:href="#SimHei-30" x="150"/>
      </g>
     </g>
    </g>
    <g id="ytick_3">
     <g id="line2d_17">
      <path d="M 90 292.769858 
L 648 292.769858 
" clip-path="url(#p0ec5bc04cb)" style="fill: none; stroke: #b0b0b0; stroke-width: 0.8; stroke-linecap: square"/>
     </g>
     <g id="line2d_18">
      <g>
       <use xlink:href="#m2cd18d9a44" x="90" y="292.769858" style="stroke: #000000; stroke-width: 0.8"/>
      </g>
     </g>
     <g id="text_10">
      <!-- -500 -->
      <g transform="translate(47 298.957358) scale(0.18 -0.18)">
       <use xlink:href="#SimHei-2d"/>
       <use xlink:href="#SimHei-35" x="50"/>
       <use xlink:href="#SimHei-30" x="100"/>
       <use xlink:href="#SimHei-30" x="150"/>
      </g>
     </g>
    </g>
    <g id="ytick_4">
     <g id="line2d_19">
      <path d="M 90 253.238788 
L 648 253.238788 
" clip-path="url(#p0ec5bc04cb)" style="fill: none; stroke: #b0b0b0; stroke-width: 0.8; stroke-linecap: square"/>
     </g>
     <g id="line2d_20">
      <g>
       <use xlink:href="#m2cd18d9a44" x="90" y="253.238788" style="stroke: #000000; stroke-width: 0.8"/>
      </g>
     </g>
     <g id="text_11">
      <!-- -250 -->
      <g transform="translate(47 259.426288) scale(0.18 -0.18)">
       <use xlink:href="#SimHei-2d"/>
       <use xlink:href="#SimHei-32" x="50"/>
       <use xlink:href="#SimHei-35" x="100"/>
       <use xlink:href="#SimHei-30" x="150"/>
      </g>
     </g>
    </g>
    <g id="ytick_5">
     <g id="line2d_21">
      <path d="M 90 213.707719 
L 648 213.707719 
" clip-path="url(#p0ec5bc04cb)" style="fill: none; stroke: #b0b0b0; stroke-width: 0.8; stroke-linecap: square"/>
     </g>
     <g id="line2d_22">
      <g>
       <use xlink:href="#m2cd18d9a44" x="90" y="213.707719" style="stroke: #000000; stroke-width: 0.8"/>
      </g>
     </g>
     <g id="text_12">
      <!-- 0 -->
      <g transform="translate(74 219.895219) scale(0.18 -0.18)">
       <use xlink:href="#SimHei-30"/>
      </g>
     </g>
    </g>
    <g id="ytick_6">
     <g id="line2d_23">
      <path d="M 90 174.176649 
L 648 174.176649 
" clip-path="url(#p0ec5bc04cb)" style="fill: none; stroke: #b0b0b0; stroke-width: 0.8; stroke-linecap: square"/>
     </g>
     <g id="line2d_24">
      <g>
       <use xlink:href="#m2cd18d9a44" x="90" y="174.176649" style="stroke: #000000; stroke-width: 0.8"/>
      </g>
     </g>
     <g id="text_13">
      <!-- 250 -->
      <g transform="translate(56 180.364149) scale(0.18 -0.18)">
       <use xlink:href="#SimHei-32"/>
       <use xlink:href="#SimHei-35" x="50"/>
       <use xlink:href="#SimHei-30" x="100"/>
      </g>
     </g>
    </g>
    <g id="ytick_7">
     <g id="line2d_25">
      <path d="M 90 134.645579 
L 648 134.645579 
" clip-path="url(#p0ec5bc04cb)" style="fill: none; stroke: #b0b0b0; stroke-width: 0.8; stroke-linecap: square"/>
     </g>
     <g id="line2d_26">
      <g>
       <use xlink:href="#m2cd18d9a44" x="90" y="134.645579" style="stroke: #000000; stroke-width: 0.8"/>
      </g>
     </g>
     <g id="text_14">
      <!-- 500 -->
      <g transform="translate(56 140.833079) scale(0.18 -0.18)">
       <use xlink:href="#SimHei-35"/>
       <use xlink:href="#SimHei-30" x="50"/>
       <use xlink:href="#SimHei-30" x="100"/>
      </g>
     </g>
    </g>
    <g id="ytick_8">
     <g id="line2d_27">
      <path d="M 90 95.114509 
L 648 95.114509 
" clip-path="url(#p0ec5bc04cb)" style="fill: none; stroke: #b0b0b0; stroke-width: 0.8; stroke-linecap: square"/>
     </g>
     <g id="line2d_28">
      <g>
       <use xlink:href="#m2cd18d9a44" x="90" y="95.114509" style="stroke: #000000; stroke-width: 0.8"/>
      </g>
     </g>
     <g id="text_15">
      <!-- 750 -->
      <g transform="translate(56 101.302009) scale(0.18 -0.18)">
       <use xlink:href="#SimHei-37"/>
       <use xlink:href="#SimHei-35" x="50"/>
       <use xlink:href="#SimHei-30" x="100"/>
      </g>
     </g>
    </g>
    <g id="ytick_9">
     <g id="line2d_29">
      <path d="M 90 55.58344 
L 648 55.58344 
" clip-path="url(#p0ec5bc04cb)" style="fill: none; stroke: #b0b0b0; stroke-width: 0.8; stroke-linecap: square"/>
     </g>
     <g id="line2d_30">
      <g>
       <use xlink:href="#m2cd18d9a44" x="90" y="55.58344" style="stroke: #000000; stroke-width: 0.8"/>
      </g>
     </g>
     <g id="text_16">
      <!-- 1000 -->
      <g transform="translate(47 61.77094) scale(0.18 -0.18)">
       <use xlink:href="#SimHei-31"/>
       <use xlink:href="#SimHei-30" x="50"/>
       <use xlink:href="#SimHei-30" x="100"/>
       <use xlink:href="#SimHei-30" x="150"/>
      </g>
     </g>
    </g>
    <g id="text_17">
     <!-- 平均reward -->
     <g transform="translate(31.5 268.16) rotate(-90) scale(0.2 -0.2)">
      <defs>
       <path id="SimHei-5e73" d="M 4525 4825 
Q 4900 4825 5450 4850 
L 5450 4375 
Q 4925 4400 4525 4400 
L 3475 4400 
L 3475 2025 
L 5000 2025 
Q 5550 2025 6025 2050 
L 6025 1575 
Q 5550 1600 5000 1600 
L 3475 1600 
L 3475 450 
Q 3475 -100 3500 -600 
L 2925 -600 
Q 2950 -100 2950 450 
L 2950 1600 
L 1125 1600 
Q 775 1600 375 1575 
L 375 2050 
Q 775 2025 1175 2025 
L 2950 2025 
L 2950 4400 
L 1775 4400 
Q 1400 4400 875 4375 
L 875 4850 
Q 1400 4825 1750 4825 
L 4525 4825 
z
M 3925 2600 
Q 4500 3300 4900 4125 
Q 5150 3950 5400 3825 
Q 4775 2850 4350 2300 
Q 4150 2475 3925 2600 
z
M 1975 2350 
Q 1600 3100 1050 3725 
Q 1250 3875 1450 4050 
Q 2075 3300 2450 2725 
Q 2150 2500 1975 2350 
z
" transform="scale(0.015625)"/>
       <path id="SimHei-5747" d="M 5775 275 
Q 5775 -325 5362 -450 
Q 4950 -575 4425 -600 
Q 4375 -275 4250 25 
Q 4950 -25 5125 62 
Q 5300 150 5300 500 
L 5375 3700 
L 3550 3700 
Q 3425 3375 3262 3037 
Q 3100 2700 2925 2400 
Q 2675 2550 2475 2625 
Q 3150 3625 3500 5200 
Q 3800 5100 4075 5025 
Q 3975 4875 3875 4650 
Q 3775 4425 3675 4125 
L 5900 4125 
L 5775 275 
z
M 1250 3625 
L 1250 4375 
Q 1250 4775 1225 5100 
L 1775 5100 
Q 1750 4725 1750 4375 
L 1750 3625 
L 1900 3625 
Q 2200 3625 2525 3650 
L 2525 3150 
Q 2200 3175 1900 3175 
L 1750 3175 
L 1750 1100 
L 2500 1375 
Q 2475 1125 2525 900 
Q 1225 475 962 362 
Q 700 250 475 150 
Q 375 475 250 750 
Q 575 800 800 850 
Q 1025 900 1250 975 
L 1250 3175 
L 1125 3175 
Q 850 3175 400 3150 
L 400 3650 
Q 850 3625 1100 3625 
L 1250 3625 
z
M 4950 1625 
Q 4675 1425 4137 1050 
Q 3600 675 3175 300 
Q 3000 575 2850 775 
Q 3350 1050 3762 1325 
Q 4175 1600 4775 2075 
Q 4825 1850 4950 1625 
z
M 3775 3150 
Q 4125 2800 4475 2300 
Q 4250 2125 4100 1975 
Q 3900 2325 3450 2825 
Q 3600 3000 3775 3150 
z
" transform="scale(0.015625)"/>
       <path id="SimHei-72" d="M 2500 2425 
Q 2025 2500 1700 2287 
Q 1375 2075 1150 1550 
L 1150 125 
L 650 125 
L 650 2925 
L 1150 2925 
L 1150 2200 
Q 1375 2600 1712 2787 
Q 2050 2975 2500 2975 
L 2500 2425 
z
" transform="scale(0.015625)"/>
       <path id="SimHei-65" d="M 2850 1075 
Q 2800 625 2450 350 
Q 2100 75 1625 75 
Q 1025 75 637 462 
Q 250 850 250 1525 
Q 250 2200 637 2587 
Q 1025 2975 1625 2975 
Q 2150 2975 2487 2637 
Q 2825 2300 2825 1525 
L 800 1525 
Q 800 975 1037 750 
Q 1275 525 1625 525 
Q 1900 525 2075 662 
Q 2250 800 2300 1075 
L 2850 1075 
z
M 2250 1925 
Q 2200 2275 2025 2412 
Q 1850 2550 1575 2550 
Q 1325 2550 1125 2412 
Q 925 2275 825 1925 
L 2250 1925 
z
" transform="scale(0.015625)"/>
       <path id="SimHei-77" d="M 3075 2925 
L 2450 75 
L 1975 75 
L 1575 2250 
L 1525 2250 
L 1125 75 
L 650 75 
L 25 2925 
L 550 2925 
L 875 1050 
L 925 1050 
L 1275 2925 
L 1825 2925 
L 2175 1050 
L 2225 1050 
L 2550 2925 
L 3075 2925 
z
" transform="scale(0.015625)"/>
       <path id="SimHei-61" d="M 2875 125 
L 2275 125 
Q 2225 175 2200 262 
Q 2175 350 2175 475 
Q 2000 275 1750 175 
Q 1500 75 1225 75 
Q 825 75 550 275 
Q 275 475 275 850 
Q 275 1225 525 1450 
Q 775 1675 1300 1750 
Q 1650 1800 1912 1875 
Q 2175 1950 2175 2075 
Q 2175 2225 2062 2375 
Q 1950 2525 1575 2525 
Q 1275 2525 1137 2412 
Q 1000 2300 950 2100 
L 400 2100 
Q 450 2500 762 2737 
Q 1075 2975 1575 2975 
Q 2125 2975 2400 2725 
Q 2675 2475 2675 2025 
L 2675 650 
Q 2675 500 2725 375 
Q 2775 250 2875 125 
z
M 2175 1050 
L 2175 1550 
Q 2025 1500 1887 1462 
Q 1750 1425 1425 1375 
Q 1050 1325 937 1200 
Q 825 1075 825 900 
Q 825 750 937 637 
Q 1050 525 1275 525 
Q 1500 525 1762 650 
Q 2025 775 2175 1050 
z
" transform="scale(0.015625)"/>
       <path id="SimHei-64" d="M 2750 125 
L 2250 125 
L 2250 500 
Q 2100 275 1900 175 
Q 1700 75 1425 75 
Q 925 75 575 437 
Q 225 800 225 1525 
Q 225 2250 575 2625 
Q 925 3000 1425 3000 
Q 1700 3000 1900 2887 
Q 2100 2775 2250 2550 
L 2250 4400 
L 2750 4400 
L 2750 125 
z
M 2250 1525 
Q 2250 2000 2037 2275 
Q 1825 2550 1525 2550 
Q 1150 2550 962 2275 
Q 775 2000 775 1525 
Q 775 1050 962 787 
Q 1150 525 1525 525 
Q 1825 525 2037 787 
Q 2250 1050 2250 1525 
z
" transform="scale(0.015625)"/>
      </defs>
      <use xlink:href="#SimHei-5e73"/>
      <use xlink:href="#SimHei-5747" x="100"/>
      <use xlink:href="#SimHei-72" x="200"/>
      <use xlink:href="#SimHei-65" x="250"/>
      <use xlink:href="#SimHei-77" x="300"/>
      <use xlink:href="#SimHei-61" x="350"/>
      <use xlink:href="#SimHei-72" x="400"/>
      <use xlink:href="#SimHei-64" x="450"/>
     </g>
    </g>
   </g>
   <g id="line2d_31">
    <path d="M 90 369.36 
L 93.348 362.461852 
L 94.464 359.583113 
L 95.58 359.260749 
L 96.696 357.482983 
L 97.812 354.202188 
L 100.044 349.543153 
L 101.16 345.980742 
L 102.276 341.168187 
L 103.392 340.76685 
L 104.508 337.842783 
L 105.624 336.501338 
L 106.74 336.923297 
L 107.856 334.451371 
L 108.972 332.267862 
L 110.088 331.894287 
L 111.204 328.102106 
L 113.436 319.977368 
L 114.552 316.382523 
L 116.784 311.360149 
L 117.9 307.909537 
L 119.016 306.66639 
L 120.132 304.51128 
L 121.248 303.257418 
L 122.364 301.159964 
L 123.48 300.581349 
L 124.596 299.108598 
L 125.712 298.261163 
L 126.828 294.936699 
L 127.944 293.680025 
L 129.06 291.45477 
L 130.176 289.894937 
L 131.292 286.901309 
L 132.408 284.495318 
L 133.524 281.041485 
L 134.64 281.133312 
L 135.756 279.057974 
L 136.872 276.368027 
L 137.988 274.798356 
L 139.104 274.808366 
L 140.22 276.316673 
L 141.336 274.406577 
L 142.452 274.181925 
L 143.568 272.190457 
L 144.684 270.739994 
L 145.8 270.154218 
L 146.916 268.684423 
L 148.032 269.750479 
L 149.148 267.984883 
L 150.264 265.290974 
L 151.38 264.877454 
L 152.496 264.848713 
L 153.612 262.051006 
L 154.728 262.564604 
L 155.844 262.622644 
L 156.96 261.825245 
L 158.076 259.57626 
L 159.192 259.104576 
L 160.308 258.09822 
L 161.424 258.375343 
L 162.54 254.881375 
L 163.656 254.949182 
L 164.772 255.129361 
L 165.888 255.973439 
L 167.004 255.223152 
L 168.12 256.873262 
L 169.236 255.584743 
L 170.352 254.705041 
L 171.468 253.569907 
L 172.584 253.446929 
L 173.7 252.111621 
L 174.816 252.348666 
L 175.932 251.731248 
L 177.048 250.828262 
L 178.164 251.678086 
L 179.28 251.688091 
L 180.396 251.828477 
L 181.512 249.924955 
L 182.628 249.984564 
L 183.744 250.691367 
L 184.86 250.040475 
L 185.976 251.066148 
L 187.092 250.469423 
L 188.208 249.525169 
L 189.324 248.995912 
L 190.44 248.320236 
L 191.556 246.429317 
L 193.788 245.426465 
L 194.904 245.985526 
L 196.02 245.719727 
L 197.136 245.600904 
L 200.484 244.770418 
L 201.6 245.122554 
L 202.716 244.785513 
L 203.832 243.862547 
L 204.948 243.376145 
L 206.064 243.024851 
L 208.296 243.446603 
L 209.412 242.383249 
L 210.528 242.639808 
L 211.644 242.216455 
L 212.76 243.046734 
L 213.876 243.213879 
L 214.992 242.347686 
L 216.108 242.23301 
L 217.224 241.437313 
L 219.456 241.684391 
L 221.688 240.494486 
L 222.804 240.868449 
L 225.036 241.272876 
L 226.152 241.189867 
L 227.268 240.342032 
L 228.384 240.302644 
L 229.5 241.26546 
L 230.616 241.70264 
L 232.848 240.591328 
L 233.964 238.568008 
L 235.08 237.903983 
L 236.196 238.677031 
L 237.312 238.67086 
L 238.428 238.953008 
L 239.544 237.436718 
L 240.66 237.564851 
L 241.776 237.820994 
L 242.892 239.266959 
L 244.008 238.465548 
L 245.124 237.877466 
L 246.24 237.825054 
L 247.356 237.414453 
L 248.472 237.664172 
L 249.588 236.410358 
L 250.704 237.11808 
L 251.82 237.23663 
L 252.936 237.622064 
L 254.052 237.551377 
L 255.168 237.649229 
L 256.284 237.168475 
L 257.4 235.424664 
L 258.516 234.210301 
L 259.632 233.669216 
L 260.748 232.223188 
L 261.864 231.911445 
L 262.98 231.870259 
L 264.096 231.987423 
L 265.212 232.492261 
L 266.328 232.090591 
L 267.444 232.785982 
L 268.56 233.192149 
L 269.676 233.462639 
L 270.792 233.588495 
L 271.908 233.53883 
L 274.14 232.946991 
L 275.256 232.04459 
L 276.372 232.072885 
L 277.488 231.518058 
L 279.72 232.167021 
L 281.952 231.573192 
L 283.068 231.075604 
L 285.3 231.951208 
L 286.416 232.72312 
L 287.532 233.249963 
L 288.648 233.526501 
L 289.764 233.334629 
L 290.88 233.281209 
L 291.996 232.700728 
L 293.112 232.637619 
L 294.228 232.319901 
L 295.344 231.504242 
L 296.46 231.774521 
L 297.576 231.692288 
L 298.692 231.868502 
L 299.808 231.75872 
L 300.924 230.784734 
L 303.156 230.057519 
L 304.272 230.406428 
L 305.388 230.394101 
L 307.62 229.563972 
L 308.736 229.860589 
L 309.852 230.865272 
L 310.968 230.792624 
L 313.2 229.95316 
L 314.316 229.723006 
L 315.432 229.703422 
L 316.548 228.931417 
L 318.78 227.869302 
L 319.896 228.511219 
L 321.012 228.371911 
L 322.128 228.406874 
L 323.244 228.91276 
L 324.36 228.492298 
L 325.476 228.300837 
L 326.592 228.468123 
L 327.708 227.769047 
L 329.94 226.11053 
L 331.056 225.460625 
L 332.172 225.456835 
L 333.288 225.921615 
L 334.404 225.724829 
L 336.636 226.582703 
L 337.752 227.747889 
L 338.868 227.938652 
L 339.984 228.325191 
L 341.1 228.067024 
L 342.216 228.438947 
L 343.332 227.996071 
L 345.564 228.388498 
L 346.68 228.881565 
L 347.796 228.460727 
L 348.912 227.584198 
L 350.028 227.873371 
L 351.144 227.594782 
L 352.26 227.44307 
L 353.376 227.579741 
L 354.492 227.387592 
L 355.608 227.404951 
L 356.724 227.159352 
L 357.84 226.637328 
L 358.956 226.729377 
L 361.188 226.17502 
L 362.304 226.152171 
L 363.42 225.80069 
L 364.536 225.267869 
L 366.768 225.668972 
L 369 226.799637 
L 370.116 226.86913 
L 371.232 226.450834 
L 372.348 226.684524 
L 373.464 225.841877 
L 374.58 225.290154 
L 376.812 225.155336 
L 377.928 225.468983 
L 380.16 224.908677 
L 381.276 225.362717 
L 382.392 225.968071 
L 383.508 225.393208 
L 384.624 225.37193 
L 385.74 225.534512 
L 386.856 225.109787 
L 387.972 225.129896 
L 389.088 225.476744 
L 390.204 224.966468 
L 391.32 224.957565 
L 392.436 225.187478 
L 393.552 225.088942 
L 395.784 224.62091 
L 396.9 224.202295 
L 398.016 224.250062 
L 399.132 224.553997 
L 400.248 224.370472 
L 401.364 223.371954 
L 402.48 223.00404 
L 403.596 222.834359 
L 405.828 223.043792 
L 406.944 222.844834 
L 408.06 222.855757 
L 409.176 222.557959 
L 410.292 222.797801 
L 411.408 222.836844 
L 412.524 222.106851 
L 413.64 222.033456 
L 414.756 222.363785 
L 416.988 221.822343 
L 420.336 221.912822 
L 421.452 221.96783 
L 422.568 221.755363 
L 423.684 221.305729 
L 424.8 220.679808 
L 425.916 220.873793 
L 428.148 220.801693 
L 429.264 221.208616 
L 430.38 221.063087 
L 431.496 220.583807 
L 432.612 220.255844 
L 433.728 220.137073 
L 434.844 219.752128 
L 435.96 220.010495 
L 438.192 219.922104 
L 439.308 220.302278 
L 440.424 220.315977 
L 441.54 219.803754 
L 442.656 219.852134 
L 443.772 219.684853 
L 444.888 219.902922 
L 446.004 219.522656 
L 448.236 219.49268 
L 450.468 219.934765 
L 451.584 220.447469 
L 452.7 220.4011 
L 453.816 220.604848 
L 454.932 220.324897 
L 456.048 219.921179 
L 457.164 219.171703 
L 459.396 219.658299 
L 460.512 219.111565 
L 461.628 219.324825 
L 462.744 219.668554 
L 463.86 219.464458 
L 464.976 219.391369 
L 466.092 219.51364 
L 467.208 219.977891 
L 468.324 220.225518 
L 469.44 219.720947 
L 471.672 219.904861 
L 472.788 219.628871 
L 473.904 219.859759 
L 475.02 220.335751 
L 476.136 220.119047 
L 477.252 220.383332 
L 481.716 219.795102 
L 485.064 220.072353 
L 487.296 219.558756 
L 489.528 219.427077 
L 491.76 220.238242 
L 492.876 220.161976 
L 493.992 219.931401 
L 497.34 220.490826 
L 499.572 220.087435 
L 500.688 220.241668 
L 502.92 219.663789 
L 504.036 219.007012 
L 506.268 219.10844 
L 507.384 218.857517 
L 508.5 219.302573 
L 509.616 219.211912 
L 511.848 219.342342 
L 512.964 219.05134 
L 514.08 219.203938 
L 515.196 218.958278 
L 516.312 219.192991 
L 518.544 218.624227 
L 519.66 218.896755 
L 520.776 219.320326 
L 523.008 219.236613 
L 524.124 218.82822 
L 528.588 219.302306 
L 529.704 219.24697 
L 530.82 219.511042 
L 533.052 219.55509 
L 534.168 219.907369 
L 535.284 219.932781 
L 536.4 219.755816 
L 537.516 219.787909 
L 538.632 219.423636 
L 539.748 219.300422 
L 540.864 219.753231 
L 541.98 219.705701 
L 543.096 219.778888 
L 544.212 219.722289 
L 545.328 219.83422 
L 546.444 220.476291 
L 547.56 220.24366 
L 550.908 220.145384 
L 553.14 220.233656 
L 554.256 220.378913 
L 555.372 220.690494 
L 557.604 220.394817 
L 558.72 219.866546 
L 559.836 219.891208 
L 560.952 219.654395 
L 562.068 219.870062 
L 563.184 219.370157 
L 564.3 219.567453 
L 565.416 219.210604 
L 569.88 218.888701 
L 570.996 218.632022 
L 572.112 218.554421 
L 574.344 218.730155 
L 575.46 218.987367 
L 576.576 218.881912 
L 577.692 218.403803 
L 584.388 218.738752 
L 585.504 218.571452 
L 587.736 218.849847 
L 591.084 219.316722 
L 592.2 219.305567 
L 593.316 219.179286 
L 594.432 219.431922 
L 596.664 219.148676 
L 597.78 218.818824 
L 598.896 218.711452 
L 601.128 218.931814 
L 602.244 218.765223 
L 603.36 218.995374 
L 604.476 218.961662 
L 605.592 218.521518 
L 606.708 218.482773 
L 607.824 218.674177 
L 608.94 218.750667 
L 610.056 218.419683 
L 611.172 218.575167 
L 612.288 218.918381 
L 614.52 218.837962 
L 616.752 218.974994 
L 618.984 218.758591 
L 620.1 219.124458 
L 621.216 219.036443 
L 622.332 218.691121 
L 623.448 218.559949 
L 624.564 218.666175 
L 625.68 218.655141 
L 626.796 218.896456 
L 629.028 219.090157 
L 631.26 219.086731 
L 632.376 219.355811 
L 634.608 219.592263 
L 635.724 219.909255 
L 641.304 219.173186 
L 642.42 219.462552 
L 643.536 219.29089 
L 644.652 219.399861 
L 646.884 219.020094 
L 646.884 219.020094 
" clip-path="url(#p0ec5bc04cb)" style="fill: none; stroke: #008000; stroke-width: 2; stroke-linecap: square"/>
   </g>
   <g id="line2d_32">
    <path d="M 90 272.207167 
L 91.116 230.016854 
L 92.232 206.446271 
L 93.348 210.5562 
L 94.464 189.370596 
L 95.58 174.369485 
L 96.696 121.337783 
L 97.812 96.739227 
L 98.928 103.70404 
L 100.044 210.39938 
L 101.16 74.551072 
L 102.276 107.946268 
L 103.392 297.384808 
L 104.508 75.43033 
L 105.624 78.719066 
L 106.74 81.63108 
L 107.856 87.778952 
L 108.972 84.017554 
L 110.088 84.608346 
L 111.204 84.607687 
L 112.32 91.313865 
L 113.436 85.128568 
L 114.552 81.943538 
L 115.668 86.950454 
L 116.784 87.72722 
L 117.9 79.754812 
L 119.016 76.190197 
L 120.132 75.728606 
L 121.248 75.667661 
L 122.364 73.94029 
L 123.48 73.718859 
L 124.596 73.311149 
L 125.712 73.648779 
L 126.828 74.227175 
L 127.944 73.550143 
L 129.06 73.401606 
L 130.176 73.072858 
L 131.292 74.657331 
L 132.408 73.435917 
L 133.524 73.371566 
L 134.64 72.598501 
L 135.756 73.46315 
L 136.872 73.797995 
L 137.988 73.677664 
L 139.104 74.011897 
L 140.22 74.546004 
L 141.336 74.525598 
L 142.452 72.949252 
L 143.568 74.004719 
L 144.684 73.657076 
L 145.8 73.676238 
L 146.916 74.876727 
L 148.032 73.739487 
L 149.148 74.474647 
L 150.264 74.147522 
L 151.38 72.600752 
L 152.496 74.376183 
L 153.612 72.46459 
L 154.728 72.689913 
L 155.844 74.386298 
L 156.96 72.608782 
L 158.076 73.581552 
L 159.192 72.567208 
L 160.308 73.061773 
L 161.424 72.74294 
L 162.54 72.263282 
L 163.656 72.743128 
L 164.772 73.544985 
L 165.888 73.106384 
L 167.004 72.535639 
L 168.12 72.955086 
L 169.236 73.58988 
L 170.352 72.805297 
L 171.468 73.133528 
L 172.584 74.049836 
L 173.7 72.525701 
L 174.816 73.023332 
L 175.932 73.324529 
L 177.048 72.645264 
L 178.164 72.956924 
L 179.28 71.924872 
L 180.396 72.431976 
L 181.512 72.689378 
L 182.628 72.065024 
L 183.744 72.397631 
L 184.86 72.516214 
L 185.976 72.092637 
L 187.092 72.569206 
L 188.208 71.914326 
L 190.44 72.023937 
L 192.672 72.493911 
L 194.904 71.247216 
L 196.02 71.953106 
L 197.136 70.948117 
L 198.252 71.424768 
L 199.368 72.134594 
L 200.484 71.88367 
L 201.6 71.942205 
L 202.716 71.644262 
L 203.832 71.71417 
L 204.948 70.91796 
L 206.064 71.824261 
L 207.18 71.27352 
L 208.296 71.359333 
L 209.412 70.812359 
L 210.528 71.518535 
L 211.644 70.804539 
L 212.76 71.049347 
L 213.876 70.495571 
L 214.992 71.317937 
L 216.108 70.65082 
L 218.34 70.77023 
L 219.456 70.647058 
L 220.572 71.458281 
L 221.688 70.638022 
L 222.804 71.318311 
L 223.92 69.86037 
L 225.036 70.040118 
L 226.152 70.64869 
L 227.268 70.488896 
L 228.384 70.46095 
L 229.5 71.189289 
L 230.616 69.162411 
L 231.732 70.448474 
L 232.848 69.726897 
L 233.964 70.135071 
L 235.08 70.084296 
L 236.196 70.495285 
L 237.312 70.607364 
L 238.428 70.882371 
L 239.544 69.58467 
L 241.776 70.038502 
L 242.892 69.174918 
L 244.008 70.846168 
L 245.124 70.856476 
L 246.24 70.182452 
L 247.356 70.515654 
L 248.472 69.859509 
L 249.588 70.142127 
L 250.704 70.058355 
L 251.82 69.708973 
L 254.052 69.970124 
L 255.168 69.730436 
L 256.284 69.649266 
L 257.4 70.033715 
L 258.516 69.870461 
L 259.632 70.255756 
L 260.748 70.185657 
L 261.864 69.781838 
L 262.98 69.833688 
L 264.096 69.367819 
L 265.212 69.389227 
L 266.328 69.240967 
L 267.444 69.424732 
L 268.56 69.141735 
L 270.792 69.654216 
L 273.024 69.092124 
L 274.14 69.369042 
L 275.256 69.209565 
L 277.488 69.721011 
L 278.604 68.84171 
L 279.72 69.644347 
L 281.952 69.183543 
L 283.068 69.084224 
L 284.184 70.06 
L 285.3 69.382417 
L 286.416 69.186912 
L 287.532 70.50291 
L 288.648 68.786802 
L 289.764 68.715419 
L 290.88 69.46062 
L 291.996 68.674887 
L 293.112 69.178849 
L 294.228 69.553733 
L 295.344 69.447548 
L 296.46 69.026194 
L 297.576 69.034952 
L 298.692 69.16128 
L 299.808 69.646449 
L 300.924 70.635082 
L 302.04 69.578288 
L 303.156 69.03143 
L 304.272 68.775314 
L 305.388 69.224039 
L 306.504 68.74654 
L 307.62 69.586738 
L 308.736 68.728092 
L 309.852 69.070002 
L 310.968 68.72396 
L 312.084 69.089181 
L 313.2 69.638648 
L 314.316 69.284231 
L 315.432 68.439114 
L 316.548 68.745388 
L 317.664 69.352398 
L 318.78 69.015733 
L 319.896 69.04487 
L 321.012 69.882123 
L 322.128 68.343096 
L 323.244 68.220438 
L 324.36 68.579318 
L 325.476 68.798854 
L 326.592 68.045774 
L 327.708 68.814449 
L 328.824 68.621218 
L 329.94 68.283998 
L 331.056 68.385344 
L 332.172 68.373768 
L 333.288 68.125354 
L 334.404 69.220318 
L 335.52 68.608449 
L 336.636 69.013244 
L 337.752 68.800568 
L 338.868 68.129156 
L 339.984 68.544634 
L 341.1 68.667277 
L 342.216 68.996216 
L 343.332 67.878168 
L 344.448 68.605024 
L 345.564 68.633955 
L 347.796 69.241322 
L 348.912 68.678048 
L 350.028 68.349908 
L 352.26 68.653784 
L 353.376 68.398313 
L 354.492 68.525403 
L 355.608 67.856447 
L 356.724 68.420458 
L 357.84 68.636866 
L 360.072 68.648252 
L 361.188 68.332452 
L 362.304 68.952588 
L 363.42 68.238922 
L 364.536 68.483928 
L 365.652 68.600918 
L 366.768 68.084575 
L 367.884 68.754659 
L 369 67.76738 
L 370.116 68.651652 
L 371.232 68.878893 
L 372.348 71.859859 
L 373.464 67.854621 
L 374.58 67.648569 
L 375.696 68.051451 
L 376.812 68.88271 
L 377.928 68.52596 
L 380.16 68.488234 
L 381.276 67.669249 
L 382.392 68.178361 
L 383.508 68.224303 
L 385.74 68.565987 
L 386.856 67.637635 
L 387.972 68.220169 
L 389.088 103.150065 
L 390.204 68.014102 
L 391.32 67.766195 
L 392.436 68.284983 
L 393.552 68.329473 
L 394.668 68.212677 
L 395.784 67.916962 
L 396.9 68.552117 
L 398.016 68.346309 
L 399.132 68.338852 
L 400.248 68.215417 
L 401.364 67.523918 
L 403.596 67.868702 
L 404.712 67.730205 
L 405.828 68.86924 
L 406.944 67.920636 
L 408.06 68.294771 
L 410.292 68.068023 
L 411.408 68.401646 
L 412.524 68.033947 
L 413.64 68.05355 
L 414.756 68.411981 
L 415.872 68.187014 
L 416.988 67.656453 
L 418.104 67.957442 
L 419.22 68.525432 
L 420.336 68.135745 
L 421.452 68.327269 
L 422.568 67.614432 
L 423.684 68.086891 
L 424.8 68.374083 
L 425.916 68.143074 
L 427.032 72.972214 
L 428.148 67.976851 
L 429.264 68.937832 
L 430.38 68.70733 
L 431.496 68.266263 
L 432.612 67.662167 
L 433.728 68.264719 
L 434.844 68.452762 
L 435.96 68.027672 
L 437.076 68.386025 
L 438.192 67.625733 
L 439.308 68.245217 
L 440.424 67.726978 
L 441.54 68.192609 
L 443.772 67.919161 
L 444.888 67.564878 
L 446.004 67.979692 
L 447.12 67.834578 
L 448.236 67.870831 
L 451.584 68.504731 
L 452.7 67.946564 
L 453.816 68.314148 
L 454.932 67.474817 
L 456.048 68.683042 
L 457.164 67.754886 
L 458.28 125.006694 
L 459.396 68.080528 
L 460.512 68.035213 
L 461.628 67.693978 
L 463.86 68.590466 
L 464.976 68.105285 
L 466.092 68.39023 
L 467.208 68.197827 
L 468.324 67.836981 
L 469.44 67.665297 
L 470.556 68.37889 
L 471.672 67.682287 
L 472.788 67.991922 
L 475.02 68.038268 
L 476.136 67.659043 
L 478.368 68.487309 
L 479.484 67.861428 
L 480.6 68.022159 
L 481.716 67.844851 
L 483.948 67.996922 
L 487.296 67.899105 
L 488.412 68.004287 
L 490.644 67.669288 
L 491.76 67.723727 
L 493.992 68.301661 
L 495.108 68.414915 
L 496.224 67.847148 
L 497.34 67.617952 
L 498.456 67.950713 
L 499.572 67.766371 
L 500.688 67.944797 
L 501.804 67.703371 
L 502.92 68.241243 
L 504.036 67.898684 
L 505.152 68.49495 
L 506.268 68.001963 
L 507.384 68.121532 
L 509.616 67.609684 
L 511.848 68.101847 
L 512.964 67.940677 
L 514.08 67.985606 
L 515.196 67.647914 
L 517.428 68.736937 
L 518.544 67.846172 
L 519.66 68.016659 
L 520.776 68.058064 
L 521.892 67.587956 
L 523.008 67.676387 
L 524.124 68.004553 
L 526.356 67.596589 
L 527.472 67.811668 
L 529.704 67.554633 
L 530.82 68.066025 
L 531.936 68.156586 
L 533.052 68.779937 
L 534.168 68.312531 
L 535.284 67.476739 
L 536.4 67.849572 
L 537.516 67.752827 
L 538.632 67.815115 
L 539.748 67.707857 
L 540.864 67.212212 
L 541.98 67.555333 
L 545.328 67.914998 
L 546.444 99.616291 
L 547.56 67.563704 
L 548.676 71.705805 
L 549.792 67.71192 
L 550.908 67.601802 
L 553.14 68.097276 
L 554.256 67.669503 
L 555.372 67.591852 
L 556.488 68.567698 
L 557.604 68.033048 
L 558.72 67.289786 
L 559.836 67.352899 
L 560.952 68.350507 
L 562.068 68.051285 
L 563.184 67.588421 
L 564.3 68.143686 
L 565.416 67.765743 
L 566.532 68.097463 
L 568.764 67.725435 
L 569.88 68.289092 
L 570.996 67.900047 
L 572.112 67.957274 
L 573.228 67.334328 
L 574.344 67.696832 
L 575.46 67.569279 
L 576.576 67.896451 
L 577.692 68.08357 
L 579.924 67.788893 
L 581.04 68.402744 
L 582.156 67.573716 
L 583.272 67.813714 
L 584.388 67.515184 
L 585.504 67.840687 
L 586.62 67.137343 
L 587.736 67.671533 
L 588.852 67.752862 
L 589.968 67.494791 
L 592.2 67.998562 
L 594.432 67.670533 
L 595.548 67.904678 
L 596.664 67.933819 
L 597.78 67.694802 
L 598.896 67.61214 
L 600.012 67.683616 
L 601.128 68.339042 
L 602.244 67.795071 
L 603.36 67.650665 
L 604.476 67.99091 
L 605.592 69.252312 
L 606.708 67.591216 
L 607.824 67.583257 
L 608.94 67.791654 
L 610.056 67.829387 
L 611.172 67.736787 
L 612.288 67.845736 
L 613.404 67.560625 
L 614.52 67.562498 
L 615.636 67.739919 
L 616.752 67.27881 
L 617.868 67.524543 
L 618.984 67.373777 
L 620.1 67.58488 
L 621.216 66.96 
L 622.332 67.866444 
L 623.448 67.755297 
L 624.564 67.925103 
L 625.68 68.268485 
L 627.912 67.853428 
L 629.028 68.343558 
L 630.144 68.43646 
L 631.26 67.247613 
L 632.376 67.861739 
L 633.492 67.697655 
L 634.608 67.171134 
L 635.724 67.093512 
L 636.84 67.140749 
L 637.956 67.336697 
L 639.072 67.87227 
L 640.188 67.23324 
L 641.304 67.479969 
L 642.42 67.453022 
L 643.536 67.913841 
L 644.652 67.735653 
L 645.768 67.670968 
L 646.884 68.10351 
L 646.884 68.10351 
" clip-path="url(#p0ec5bc04cb)" style="fill: none; stroke: #ffa500; stroke-width: 2; stroke-linecap: square"/>
   </g>
   <g id="patch_3">
    <path d="M 90 384.48 
L 90 51.84 
" style="fill: none; stroke: #000000; stroke-width: 0.8; stroke-linejoin: miter; stroke-linecap: square"/>
   </g>
   <g id="patch_4">
    <path d="M 648 384.48 
L 648 51.84 
" style="fill: none; stroke: #000000; stroke-width: 0.8; stroke-linejoin: miter; stroke-linecap: square"/>
   </g>
   <g id="patch_5">
    <path d="M 90 384.48 
L 648 384.48 
" style="fill: none; stroke: #000000; stroke-width: 0.8; stroke-linejoin: miter; stroke-linecap: square"/>
   </g>
   <g id="patch_6">
    <path d="M 90 51.84 
L 648 51.84 
" style="fill: none; stroke: #000000; stroke-width: 0.8; stroke-linejoin: miter; stroke-linecap: square"/>
   </g>
   <g id="legend_1">
    <g id="patch_7">
     <path d="M 550.8 375.48 
L 635.4 375.48 
Q 639 375.48 639 371.88 
L 639 325.98 
Q 639 322.38 635.4 322.38 
L 550.8 322.38 
Q 547.2 322.38 547.2 325.98 
L 547.2 371.88 
Q 547.2 375.48 550.8 375.48 
z
" style="fill: #ffffff; opacity: 0.8; stroke: #cccccc; stroke-linejoin: miter"/>
    </g>
    <g id="line2d_33">
     <path d="M 554.4 335.88 
L 572.4 335.88 
L 590.4 335.88 
" style="fill: none; stroke: #008000; stroke-width: 2; stroke-linecap: square"/>
    </g>
    <g id="text_18">
     <!-- ppo -->
     <g transform="translate(604.8 342.18) scale(0.18 -0.18)">
      <defs>
       <path id="SimHei-70" d="M 2825 1525 
Q 2825 800 2475 425 
Q 2125 50 1625 50 
Q 1350 50 1150 162 
Q 950 275 800 500 
L 800 -800 
L 300 -800 
L 300 2925 
L 800 2925 
L 800 2550 
Q 950 2775 1150 2875 
Q 1350 2975 1625 2975 
Q 2125 2975 2475 2612 
Q 2825 2250 2825 1525 
z
M 2275 1525 
Q 2275 2000 2087 2262 
Q 1900 2525 1525 2525 
Q 1225 2525 1012 2262 
Q 800 2000 800 1525 
Q 800 1050 1012 775 
Q 1225 500 1525 500 
Q 1900 500 2087 775 
Q 2275 1050 2275 1525 
z
" transform="scale(0.015625)"/>
       <path id="SimHei-6f" d="M 2925 1525 
Q 2925 875 2525 475 
Q 2125 75 1575 75 
Q 1025 75 625 475 
Q 225 875 225 1525 
Q 225 2175 625 2575 
Q 1025 2975 1575 2975 
Q 2125 2975 2525 2575 
Q 2925 2175 2925 1525 
z
M 2375 1525 
Q 2375 2025 2125 2275 
Q 1875 2525 1575 2525 
Q 1275 2525 1025 2275 
Q 775 2025 775 1525 
Q 775 1025 1025 775 
Q 1275 525 1575 525 
Q 1875 525 2125 775 
Q 2375 1025 2375 1525 
z
" transform="scale(0.015625)"/>
      </defs>
      <use xlink:href="#SimHei-70"/>
      <use xlink:href="#SimHei-70" x="50"/>
      <use xlink:href="#SimHei-6f" x="100"/>
     </g>
    </g>
    <g id="line2d_34">
     <path d="M 554.4 359.73 
L 572.4 359.73 
L 590.4 359.73 
" style="fill: none; stroke: #ffa500; stroke-width: 2; stroke-linecap: square"/>
    </g>
    <g id="text_19">
     <!-- sac -->
     <g transform="translate(604.8 366.03) scale(0.18 -0.18)">
      <defs>
       <path id="SimHei-73" d="M 2750 900 
Q 2750 500 2437 287 
Q 2125 75 1650 75 
Q 1050 75 725 312 
Q 400 550 400 1000 
L 900 1000 
Q 900 700 1112 600 
Q 1325 500 1625 500 
Q 1925 500 2075 612 
Q 2225 725 2225 900 
Q 2225 1025 2100 1150 
Q 1975 1275 1475 1350 
Q 900 1425 687 1637 
Q 475 1850 475 2200 
Q 475 2500 762 2737 
Q 1050 2975 1600 2975 
Q 2100 2975 2387 2750 
Q 2675 2525 2675 2150 
L 2175 2150 
Q 2175 2375 2012 2462 
Q 1850 2550 1600 2550 
Q 1275 2550 1137 2437 
Q 1000 2325 1000 2175 
Q 1000 2000 1125 1900 
Q 1250 1800 1650 1750 
Q 2300 1650 2525 1437 
Q 2750 1225 2750 900 
z
" transform="scale(0.015625)"/>
       <path id="SimHei-63" d="M 2850 1250 
Q 2850 725 2487 400 
Q 2125 75 1575 75 
Q 1025 75 625 462 
Q 225 850 225 1525 
Q 225 2200 625 2587 
Q 1025 2975 1575 2975 
Q 2125 2975 2450 2687 
Q 2775 2400 2775 2000 
L 2225 2000 
Q 2200 2300 2012 2412 
Q 1825 2525 1575 2525 
Q 1275 2525 1025 2287 
Q 775 2050 775 1525 
Q 775 1000 1025 762 
Q 1275 525 1575 525 
Q 1900 525 2100 700 
Q 2300 875 2300 1250 
L 2850 1250 
z
" transform="scale(0.015625)"/>
      </defs>
      <use xlink:href="#SimHei-73"/>
      <use xlink:href="#SimHei-61" x="50"/>
      <use xlink:href="#SimHei-63" x="100"/>
     </g>
    </g>
   </g>
  </g>
 </g>
 <defs>
  <clipPath id="p0ec5bc04cb">
   <rect x="90" y="51.84" width="558" height="332.64"/>
  </clipPath>
 </defs>
</svg>
