<?xml version="1.0" encoding="utf-8" standalone="no"?>
<!DOCTYPE svg PUBLIC "-//W3C//DTD SVG 1.1//EN"
  "http://www.w3.org/Graphics/SVG/1.1/DTD/svg11.dtd">
<svg xmlns:xlink="http://www.w3.org/1999/xlink" width="720pt" height="432pt" viewBox="0 0 720 432" xmlns="http://www.w3.org/2000/svg" version="1.1">
 <metadata>
  <rdf:RDF xmlns:dc="http://purl.org/dc/elements/1.1/" xmlns:cc="http://creativecommons.org/ns#" xmlns:rdf="http://www.w3.org/1999/02/22-rdf-syntax-ns#">
   <cc:Work>
    <dc:type rdf:resource="http://purl.org/dc/dcmitype/StillImage"/>
    <dc:date>2024-05-28T22:26:32.593399</dc:date>
    <dc:format>image/svg+xml</dc:format>
    <dc:creator>
     <cc:Agent>
      <dc:title>Matplotlib v3.7.1, https://matplotlib.org/</dc:title>
     </cc:Agent>
    </dc:creator>
   </cc:Work>
  </rdf:RDF>
 </metadata>
 <defs>
  <style type="text/css">*{stroke-linejoin: round; stroke-linecap: butt}</style>
 </defs>
 <g id="figure_1">
  <g id="patch_1">
   <path d="M 0 432 
L 720 432 
L 720 0 
L 0 0 
z
" style="fill: #ffffff"/>
  </g>
  <g id="axes_1">
   <g id="patch_2">
    <path d="M 90 384.48 
L 648 384.48 
L 648 51.84 
L 90 51.84 
z
" style="fill: #ffffff"/>
   </g>
   <g id="matplotlib.axis_1">
    <g id="xtick_1">
     <g id="line2d_1">
      <path d="M 90 384.48 
L 90 51.84 
" clip-path="url(#pcbc885a8f5)" style="fill: none; stroke: #b0b0b0; stroke-width: 0.8; stroke-linecap: square"/>
     </g>
     <g id="line2d_2">
      <defs>
       <path id="m65d708de81" d="M 0 0 
L 0 3.5 
" style="stroke: #000000; stroke-width: 0.8"/>
      </defs>
      <g>
       <use xlink:href="#m65d708de81" x="90" y="384.48" style="stroke: #000000; stroke-width: 0.8"/>
      </g>
     </g>
     <g id="text_1">
      <!-- 0 -->
      <g transform="translate(85.5 403.855) scale(0.18 -0.18)">
       <defs>
        <path id="SimHei-30" d="M 225 2537 
Q 250 3200 412 3587 
Q 575 3975 875 4225 
Q 1175 4475 1612 4475 
Q 2050 4475 2375 4112 
Q 2700 3750 2800 3200 
Q 2900 2650 2862 1937 
Q 2825 1225 2612 775 
Q 2400 325 1975 150 
Q 1550 -25 1125 187 
Q 700 400 525 750 
Q 350 1100 275 1487 
Q 200 1875 225 2537 
z
M 750 2687 
Q 675 2000 800 1462 
Q 925 925 1212 700 
Q 1500 475 1800 612 
Q 2100 750 2237 1162 
Q 2375 1575 2375 2062 
Q 2375 2550 2337 2950 
Q 2300 3350 2112 3675 
Q 1925 4000 1612 4012 
Q 1300 4025 1062 3700 
Q 825 3375 750 2687 
z
" transform="scale(0.015625)"/>
       </defs>
       <use xlink:href="#SimHei-30"/>
      </g>
     </g>
    </g>
    <g id="xtick_2">
     <g id="line2d_3">
      <path d="M 201.6 384.48 
L 201.6 51.84 
" clip-path="url(#pcbc885a8f5)" style="fill: none; stroke: #b0b0b0; stroke-width: 0.8; stroke-linecap: square"/>
     </g>
     <g id="line2d_4">
      <g>
       <use xlink:href="#m65d708de81" x="201.6" y="384.48" style="stroke: #000000; stroke-width: 0.8"/>
      </g>
     </g>
     <g id="text_2">
      <!-- 100 -->
      <g transform="translate(188.1 403.855) scale(0.18 -0.18)">
       <defs>
        <path id="SimHei-31" d="M 1400 3600 
Q 1075 3275 575 2975 
L 575 3450 
Q 1200 3875 1600 4450 
L 1900 4450 
L 1900 150 
L 1400 150 
L 1400 3600 
z
" transform="scale(0.015625)"/>
       </defs>
       <use xlink:href="#SimHei-31"/>
       <use xlink:href="#SimHei-30" x="50"/>
       <use xlink:href="#SimHei-30" x="100"/>
      </g>
     </g>
    </g>
    <g id="xtick_3">
     <g id="line2d_5">
      <path d="M 313.2 384.48 
L 313.2 51.84 
" clip-path="url(#pcbc885a8f5)" style="fill: none; stroke: #b0b0b0; stroke-width: 0.8; stroke-linecap: square"/>
     </g>
     <g id="line2d_6">
      <g>
       <use xlink:href="#m65d708de81" x="313.2" y="384.48" style="stroke: #000000; stroke-width: 0.8"/>
      </g>
     </g>
     <g id="text_3">
      <!-- 200 -->
      <g transform="translate(299.7 403.855) scale(0.18 -0.18)">
       <defs>
        <path id="SimHei-32" d="M 300 250 
Q 325 625 650 925 
Q 975 1225 1475 1862 
Q 1975 2500 2125 2850 
Q 2275 3200 2237 3450 
Q 2200 3700 2000 3862 
Q 1800 4025 1537 4000 
Q 1275 3975 1037 3800 
Q 800 3625 675 3275 
L 200 3350 
Q 400 3925 712 4187 
Q 1025 4450 1450 4475 
Q 1700 4500 1900 4462 
Q 2100 4425 2312 4287 
Q 2525 4150 2662 3875 
Q 2800 3600 2762 3212 
Q 2725 2825 2375 2287 
Q 2025 1750 1025 600 
L 2825 600 
L 2825 150 
L 300 150 
L 300 250 
z
" transform="scale(0.015625)"/>
       </defs>
       <use xlink:href="#SimHei-32"/>
       <use xlink:href="#SimHei-30" x="50"/>
       <use xlink:href="#SimHei-30" x="100"/>
      </g>
     </g>
    </g>
    <g id="xtick_4">
     <g id="line2d_7">
      <path d="M 424.8 384.48 
L 424.8 51.84 
" clip-path="url(#pcbc885a8f5)" style="fill: none; stroke: #b0b0b0; stroke-width: 0.8; stroke-linecap: square"/>
     </g>
     <g id="line2d_8">
      <g>
       <use xlink:href="#m65d708de81" x="424.8" y="384.48" style="stroke: #000000; stroke-width: 0.8"/>
      </g>
     </g>
     <g id="text_4">
      <!-- 300 -->
      <g transform="translate(411.3 403.855) scale(0.18 -0.18)">
       <defs>
        <path id="SimHei-33" d="M 250 1225 
L 700 1300 
Q 800 975 1025 762 
Q 1250 550 1587 562 
Q 1925 575 2125 837 
Q 2325 1100 2300 1437 
Q 2275 1775 2037 1962 
Q 1800 2150 1275 2225 
L 1275 2550 
Q 1800 2600 2037 2825 
Q 2275 3050 2250 3412 
Q 2225 3775 1925 3937 
Q 1625 4100 1287 3975 
Q 950 3850 750 3275 
L 300 3350 
Q 450 3800 712 4100 
Q 975 4400 1425 4450 
Q 1875 4500 2212 4337 
Q 2550 4175 2687 3837 
Q 2825 3500 2725 3100 
Q 2625 2700 2150 2400 
Q 2500 2250 2687 1950 
Q 2875 1650 2812 1162 
Q 2750 675 2375 375 
Q 2000 75 1525 87 
Q 1050 100 700 387 
Q 350 675 250 1225 
z
" transform="scale(0.015625)"/>
       </defs>
       <use xlink:href="#SimHei-33"/>
       <use xlink:href="#SimHei-30" x="50"/>
       <use xlink:href="#SimHei-30" x="100"/>
      </g>
     </g>
    </g>
    <g id="xtick_5">
     <g id="line2d_9">
      <path d="M 536.4 384.48 
L 536.4 51.84 
" clip-path="url(#pcbc885a8f5)" style="fill: none; stroke: #b0b0b0; stroke-width: 0.8; stroke-linecap: square"/>
     </g>
     <g id="line2d_10">
      <g>
       <use xlink:href="#m65d708de81" x="536.4" y="384.48" style="stroke: #000000; stroke-width: 0.8"/>
      </g>
     </g>
     <g id="text_5">
      <!-- 400 -->
      <g transform="translate(522.9 403.855) scale(0.18 -0.18)">
       <defs>
        <path id="SimHei-34" d="M 2000 1100 
L 75 1100 
L 75 1525 
L 2100 4450 
L 2475 4450 
L 2475 1525 
L 3075 1525 
L 3075 1100 
L 2475 1100 
L 2475 150 
L 2000 150 
L 2000 1100 
z
M 2000 1525 
L 2000 3500 
L 600 1525 
L 2000 1525 
z
" transform="scale(0.015625)"/>
       </defs>
       <use xlink:href="#SimHei-34"/>
       <use xlink:href="#SimHei-30" x="50"/>
       <use xlink:href="#SimHei-30" x="100"/>
      </g>
     </g>
    </g>
    <g id="xtick_6">
     <g id="line2d_11">
      <path d="M 648 384.48 
L 648 51.84 
" clip-path="url(#pcbc885a8f5)" style="fill: none; stroke: #b0b0b0; stroke-width: 0.8; stroke-linecap: square"/>
     </g>
     <g id="line2d_12">
      <g>
       <use xlink:href="#m65d708de81" x="648" y="384.48" style="stroke: #000000; stroke-width: 0.8"/>
      </g>
     </g>
     <g id="text_6">
      <!-- 500 -->
      <g transform="translate(634.5 403.855) scale(0.18 -0.18)">
       <defs>
        <path id="SimHei-35" d="M 550 1325 
Q 725 650 1150 575 
Q 1575 500 1837 662 
Q 2100 825 2212 1087 
Q 2325 1350 2312 1675 
Q 2300 2000 2137 2225 
Q 1975 2450 1725 2525 
Q 1475 2600 1162 2525 
Q 850 2450 650 2175 
L 225 2225 
Q 275 2375 700 4375 
L 2675 4375 
L 2675 3925 
L 1075 3925 
Q 950 3250 825 2850 
Q 1200 3025 1525 3012 
Q 1850 3000 2150 2862 
Q 2450 2725 2587 2487 
Q 2725 2250 2787 2012 
Q 2850 1775 2837 1500 
Q 2825 1225 2725 937 
Q 2625 650 2425 462 
Q 2225 275 1937 162 
Q 1650 50 1275 75 
Q 900 100 562 350 
Q 225 600 100 1200 
L 550 1325 
z
" transform="scale(0.015625)"/>
       </defs>
       <use xlink:href="#SimHei-35"/>
       <use xlink:href="#SimHei-30" x="50"/>
       <use xlink:href="#SimHei-30" x="100"/>
      </g>
     </g>
    </g>
    <g id="text_7">
     <!-- 迭代次数 -->
     <g transform="translate(329 426.0425) scale(0.2 -0.2)">
      <defs>
       <path id="SimHei-8fed" d="M 3900 1875 
Q 3600 1350 3287 1012 
Q 2975 675 2450 275 
Q 2350 475 2025 700 
Q 2600 975 3012 1425 
Q 3425 1875 3600 2450 
Q 2350 2450 1950 2425 
L 1950 2900 
Q 2375 2875 3675 2875 
Q 3725 3250 3750 3775 
L 2800 3775 
Q 2675 3450 2550 3175 
Q 2300 3300 2075 3350 
Q 2275 3675 2425 4112 
Q 2575 4550 2700 5100 
Q 2850 5000 3225 4925 
Q 3075 4725 2950 4200 
L 3750 4200 
Q 3750 4850 3700 5250 
L 4275 5225 
Q 4225 4925 4200 4200 
L 4950 4200 
Q 5175 4200 5575 4225 
L 5575 3725 
Q 5175 3775 4875 3775 
L 4200 3775 
Q 4175 3250 4125 2875 
L 5150 2875 
Q 5475 2875 5925 2900 
L 5925 2425 
Q 5475 2450 5075 2450 
L 4100 2450 
L 4050 2300 
Q 4650 1775 5725 700 
Q 5600 650 5275 300 
Q 4775 975 3900 1875 
z
M 1550 2950 
L 1550 625 
Q 2200 -25 3712 -12 
Q 5225 0 6125 100 
Q 5950 -225 5900 -475 
L 3575 -475 
Q 2975 -475 2525 -387 
Q 2075 -300 1725 -50 
Q 1375 200 1162 12 
Q 950 -175 650 -550 
Q 500 -350 250 -175 
Q 775 275 1075 575 
L 1075 2525 
Q 750 2525 350 2500 
L 350 2975 
Q 775 2950 1075 2950 
L 1550 2950 
z
M 1125 5025 
Q 1525 4275 1675 3900 
Q 1450 3875 1175 3650 
Q 950 4275 650 4750 
Q 900 4850 1125 5025 
z
" transform="scale(0.015625)"/>
       <path id="SimHei-4ee3" d="M 3300 2950 
Q 3175 4575 3150 5100 
Q 3300 5075 3725 5025 
Q 3675 4725 3800 3050 
Q 5000 3275 5650 3475 
L 5775 3000 
Q 5500 2975 3850 2625 
Q 4150 1050 4737 450 
Q 5325 -150 5412 125 
Q 5500 400 5525 725 
Q 5800 550 6075 500 
Q 5900 -200 5737 -425 
Q 5575 -650 5137 -500 
Q 4700 -350 4187 300 
Q 3675 950 3350 2525 
Q 2400 2325 2175 2250 
L 2025 2725 
Q 2425 2775 3300 2950 
z
M 2250 4975 
Q 2100 4725 1700 3650 
L 1700 475 
Q 1700 -50 1725 -600 
L 1200 -600 
Q 1225 -50 1225 475 
L 1225 2750 
Q 850 2150 600 1850 
Q 450 2050 225 2225 
Q 625 2600 1050 3425 
Q 1475 4250 1675 5200 
Q 2050 5025 2250 4975 
z
M 4700 4875 
Q 5150 4325 5325 4050 
Q 5100 3900 4875 3725 
Q 4650 4150 4300 4575 
Q 4500 4700 4700 4875 
z
" transform="scale(0.015625)"/>
       <path id="SimHei-6b21" d="M 4150 3025 
Q 4000 2550 4050 2187 
Q 4100 1825 4275 1450 
Q 4450 1075 4800 750 
Q 5150 425 5475 212 
Q 5800 0 6150 -150 
Q 5875 -350 5750 -625 
Q 5250 -325 4887 -25 
Q 4525 275 4275 612 
Q 4025 950 3825 1425 
Q 3525 625 2950 125 
Q 2375 -375 1850 -650 
Q 1675 -400 1475 -225 
Q 2025 0 2487 362 
Q 2950 725 3162 1100 
Q 3375 1475 3450 1825 
Q 3525 2175 3537 2400 
Q 3550 2625 3525 3125 
Q 3825 3050 4150 3025 
z
M 3700 4975 
Q 3625 4900 3475 4575 
Q 3325 4250 3250 4075 
L 5775 4075 
Q 5650 3725 5550 3362 
Q 5450 3000 5275 2500 
Q 5000 2575 4775 2600 
Q 5025 3350 5100 3650 
L 3100 3650 
Q 2975 3400 2812 3100 
Q 2650 2800 2425 2450 
Q 2275 2600 1975 2700 
Q 2300 3050 2625 3762 
Q 2950 4475 3125 5200 
Q 3450 5025 3700 4975 
z
M 2025 2000 
Q 1825 1675 1475 1087 
Q 1125 500 725 -200 
Q 500 -25 250 175 
Q 725 725 1037 1262 
Q 1350 1800 1575 2325 
Q 1750 2175 2025 2000 
z
M 900 4750 
Q 1725 3725 1950 3375 
Q 1750 3250 1500 3050 
Q 1250 3525 500 4425 
Q 700 4575 900 4750 
z
" transform="scale(0.015625)"/>
       <path id="SimHei-6570" d="M 4525 4925 
Q 4475 4800 4400 4587 
Q 4325 4375 4175 3825 
L 5325 3825 
Q 5575 3825 5925 3850 
L 5925 3400 
Q 5650 3425 5500 3425 
Q 5500 3025 5362 2162 
Q 5225 1300 4875 675 
Q 5125 375 5437 137 
Q 5750 -100 6025 -200 
Q 5725 -425 5625 -625 
Q 5325 -450 5075 -225 
Q 4825 0 4575 325 
Q 4300 25 3987 -187 
Q 3675 -400 3200 -650 
Q 3075 -425 2850 -300 
Q 3225 -150 3650 125 
Q 4075 400 4300 675 
Q 4125 1025 3962 1425 
Q 3800 1825 3675 2475 
Q 3600 2275 3425 1950 
Q 3250 2050 3000 2150 
Q 3400 2850 3650 3675 
Q 3900 4500 3975 5100 
Q 4275 4975 4525 4925 
z
M 2100 2250 
Q 2000 2150 1875 1925 
L 3250 1925 
Q 3100 1300 2725 675 
Q 3125 525 3350 400 
Q 3225 225 3125 25 
Q 2900 175 2450 325 
Q 1950 -225 725 -650 
Q 600 -375 400 -275 
Q 1575 0 2000 475 
Q 1300 650 850 775 
Q 1000 1000 1250 1525 
Q 1000 1525 425 1500 
L 425 1950 
Q 900 1925 1400 1925 
Q 1500 2150 1550 2425 
Q 1825 2325 2100 2250 
z
M 1775 3950 
Q 1775 4550 1750 5100 
L 2250 5100 
Q 2225 4575 2225 3950 
Q 3075 3950 3425 3975 
L 3425 3525 
Q 3075 3550 2225 3550 
Q 2225 2825 2250 2425 
L 1750 2425 
Q 1775 2775 1775 3300 
Q 1650 3100 1300 2787 
Q 950 2475 650 2300 
Q 525 2525 275 2625 
Q 500 2700 875 2975 
Q 1250 3250 1450 3550 
Q 950 3550 500 3525 
L 500 3975 
Q 925 3950 1775 3950 
z
M 3975 3175 
Q 4200 1700 4600 1125 
Q 4850 1700 4937 2287 
Q 5025 2875 5050 3425 
L 4075 3425 
L 3975 3175 
z
M 1450 1000 
Q 1750 925 2275 800 
Q 2475 1050 2650 1525 
L 1725 1525 
Q 1600 1275 1450 1000 
z
M 3325 4825 
Q 3200 4625 3125 4450 
Q 3050 4275 2925 4025 
Q 2725 4125 2525 4175 
Q 2725 4500 2900 5000 
Q 3150 4875 3325 4825 
z
M 2575 3375 
Q 2900 3050 3200 2725 
Q 3050 2600 2875 2425 
Q 2525 2850 2300 3100 
Q 2450 3225 2575 3375 
z
M 925 5000 
Q 1275 4650 1500 4300 
L 1125 4075 
Q 950 4425 600 4725 
Q 825 4875 925 5000 
z
" transform="scale(0.015625)"/>
      </defs>
      <use xlink:href="#SimHei-8fed"/>
      <use xlink:href="#SimHei-4ee3" x="100"/>
      <use xlink:href="#SimHei-6b21" x="200"/>
      <use xlink:href="#SimHei-6570" x="300"/>
     </g>
    </g>
   </g>
   <g id="matplotlib.axis_2">
    <g id="ytick_1">
     <g id="line2d_13">
      <path d="M 90 369.607842 
L 648 369.607842 
" clip-path="url(#pcbc885a8f5)" style="fill: none; stroke: #b0b0b0; stroke-width: 0.8; stroke-linecap: square"/>
     </g>
     <g id="line2d_14">
      <defs>
       <path id="mabe7978ab3" d="M 0 0 
L -3.5 0 
" style="stroke: #000000; stroke-width: 0.8"/>
      </defs>
      <g>
       <use xlink:href="#mabe7978ab3" x="90" y="369.607842" style="stroke: #000000; stroke-width: 0.8"/>
      </g>
     </g>
     <g id="text_8">
      <!-- 0 -->
      <g transform="translate(74 375.795342) scale(0.18 -0.18)">
       <use xlink:href="#SimHei-30"/>
      </g>
     </g>
    </g>
    <g id="ytick_2">
     <g id="line2d_15">
      <path d="M 90 329.350463 
L 648 329.350463 
" clip-path="url(#pcbc885a8f5)" style="fill: none; stroke: #b0b0b0; stroke-width: 0.8; stroke-linecap: square"/>
     </g>
     <g id="line2d_16">
      <g>
       <use xlink:href="#mabe7978ab3" x="90" y="329.350463" style="stroke: #000000; stroke-width: 0.8"/>
      </g>
     </g>
     <g id="text_9">
      <!-- 100 -->
      <g transform="translate(56 335.537963) scale(0.18 -0.18)">
       <use xlink:href="#SimHei-31"/>
       <use xlink:href="#SimHei-30" x="50"/>
       <use xlink:href="#SimHei-30" x="100"/>
      </g>
     </g>
    </g>
    <g id="ytick_3">
     <g id="line2d_17">
      <path d="M 90 289.093083 
L 648 289.093083 
" clip-path="url(#pcbc885a8f5)" style="fill: none; stroke: #b0b0b0; stroke-width: 0.8; stroke-linecap: square"/>
     </g>
     <g id="line2d_18">
      <g>
       <use xlink:href="#mabe7978ab3" x="90" y="289.093083" style="stroke: #000000; stroke-width: 0.8"/>
      </g>
     </g>
     <g id="text_10">
      <!-- 200 -->
      <g transform="translate(56 295.280583) scale(0.18 -0.18)">
       <use xlink:href="#SimHei-32"/>
       <use xlink:href="#SimHei-30" x="50"/>
       <use xlink:href="#SimHei-30" x="100"/>
      </g>
     </g>
    </g>
    <g id="ytick_4">
     <g id="line2d_19">
      <path d="M 90 248.835704 
L 648 248.835704 
" clip-path="url(#pcbc885a8f5)" style="fill: none; stroke: #b0b0b0; stroke-width: 0.8; stroke-linecap: square"/>
     </g>
     <g id="line2d_20">
      <g>
       <use xlink:href="#mabe7978ab3" x="90" y="248.835704" style="stroke: #000000; stroke-width: 0.8"/>
      </g>
     </g>
     <g id="text_11">
      <!-- 300 -->
      <g transform="translate(56 255.023204) scale(0.18 -0.18)">
       <use xlink:href="#SimHei-33"/>
       <use xlink:href="#SimHei-30" x="50"/>
       <use xlink:href="#SimHei-30" x="100"/>
      </g>
     </g>
    </g>
    <g id="ytick_5">
     <g id="line2d_21">
      <path d="M 90 208.578324 
L 648 208.578324 
" clip-path="url(#pcbc885a8f5)" style="fill: none; stroke: #b0b0b0; stroke-width: 0.8; stroke-linecap: square"/>
     </g>
     <g id="line2d_22">
      <g>
       <use xlink:href="#mabe7978ab3" x="90" y="208.578324" style="stroke: #000000; stroke-width: 0.8"/>
      </g>
     </g>
     <g id="text_12">
      <!-- 400 -->
      <g transform="translate(56 214.765824) scale(0.18 -0.18)">
       <use xlink:href="#SimHei-34"/>
       <use xlink:href="#SimHei-30" x="50"/>
       <use xlink:href="#SimHei-30" x="100"/>
      </g>
     </g>
    </g>
    <g id="ytick_6">
     <g id="line2d_23">
      <path d="M 90 168.320945 
L 648 168.320945 
" clip-path="url(#pcbc885a8f5)" style="fill: none; stroke: #b0b0b0; stroke-width: 0.8; stroke-linecap: square"/>
     </g>
     <g id="line2d_24">
      <g>
       <use xlink:href="#mabe7978ab3" x="90" y="168.320945" style="stroke: #000000; stroke-width: 0.8"/>
      </g>
     </g>
     <g id="text_13">
      <!-- 500 -->
      <g transform="translate(56 174.508445) scale(0.18 -0.18)">
       <use xlink:href="#SimHei-35"/>
       <use xlink:href="#SimHei-30" x="50"/>
       <use xlink:href="#SimHei-30" x="100"/>
      </g>
     </g>
    </g>
    <g id="ytick_7">
     <g id="line2d_25">
      <path d="M 90 128.063565 
L 648 128.063565 
" clip-path="url(#pcbc885a8f5)" style="fill: none; stroke: #b0b0b0; stroke-width: 0.8; stroke-linecap: square"/>
     </g>
     <g id="line2d_26">
      <g>
       <use xlink:href="#mabe7978ab3" x="90" y="128.063565" style="stroke: #000000; stroke-width: 0.8"/>
      </g>
     </g>
     <g id="text_14">
      <!-- 600 -->
      <g transform="translate(56 134.251065) scale(0.18 -0.18)">
       <defs>
        <path id="SimHei-36" d="M 250 1612 
Q 275 1975 387 2225 
Q 500 2475 725 2850 
L 1750 4450 
L 2325 4450 
L 1275 2800 
Q 1950 2975 2350 2750 
Q 2750 2525 2887 2237 
Q 3025 1950 3037 1612 
Q 3050 1275 2937 950 
Q 2825 625 2537 362 
Q 2250 100 1737 75 
Q 1225 50 862 262 
Q 500 475 362 862 
Q 225 1250 250 1612 
z
M 1025 787 
Q 1250 550 1625 525 
Q 2000 500 2250 775 
Q 2500 1050 2500 1575 
Q 2500 2100 2187 2300 
Q 1875 2500 1487 2450 
Q 1100 2400 925 2075 
Q 750 1750 775 1387 
Q 800 1025 1025 787 
z
" transform="scale(0.015625)"/>
       </defs>
       <use xlink:href="#SimHei-36"/>
       <use xlink:href="#SimHei-30" x="50"/>
       <use xlink:href="#SimHei-30" x="100"/>
      </g>
     </g>
    </g>
    <g id="ytick_8">
     <g id="line2d_27">
      <path d="M 90 87.806186 
L 648 87.806186 
" clip-path="url(#pcbc885a8f5)" style="fill: none; stroke: #b0b0b0; stroke-width: 0.8; stroke-linecap: square"/>
     </g>
     <g id="line2d_28">
      <g>
       <use xlink:href="#mabe7978ab3" x="90" y="87.806186" style="stroke: #000000; stroke-width: 0.8"/>
      </g>
     </g>
     <g id="text_15">
      <!-- 700 -->
      <g transform="translate(56 93.993686) scale(0.18 -0.18)">
       <defs>
        <path id="SimHei-37" d="M 850 150 
Q 1300 2050 2425 3925 
L 275 3925 
L 275 4375 
L 2950 4375 
L 2950 3950 
Q 1775 2050 1400 150 
L 850 150 
z
" transform="scale(0.015625)"/>
       </defs>
       <use xlink:href="#SimHei-37"/>
       <use xlink:href="#SimHei-30" x="50"/>
       <use xlink:href="#SimHei-30" x="100"/>
      </g>
     </g>
    </g>
    <g id="text_16">
     <!-- 平均吞吐量（bits） -->
     <g transform="translate(49.5 308.16) rotate(-90) scale(0.2 -0.2)">
      <defs>
       <path id="SimHei-5e73" d="M 4525 4825 
Q 4900 4825 5450 4850 
L 5450 4375 
Q 4925 4400 4525 4400 
L 3475 4400 
L 3475 2025 
L 5000 2025 
Q 5550 2025 6025 2050 
L 6025 1575 
Q 5550 1600 5000 1600 
L 3475 1600 
L 3475 450 
Q 3475 -100 3500 -600 
L 2925 -600 
Q 2950 -100 2950 450 
L 2950 1600 
L 1125 1600 
Q 775 1600 375 1575 
L 375 2050 
Q 775 2025 1175 2025 
L 2950 2025 
L 2950 4400 
L 1775 4400 
Q 1400 4400 875 4375 
L 875 4850 
Q 1400 4825 1750 4825 
L 4525 4825 
z
M 3925 2600 
Q 4500 3300 4900 4125 
Q 5150 3950 5400 3825 
Q 4775 2850 4350 2300 
Q 4150 2475 3925 2600 
z
M 1975 2350 
Q 1600 3100 1050 3725 
Q 1250 3875 1450 4050 
Q 2075 3300 2450 2725 
Q 2150 2500 1975 2350 
z
" transform="scale(0.015625)"/>
       <path id="SimHei-5747" d="M 5775 275 
Q 5775 -325 5362 -450 
Q 4950 -575 4425 -600 
Q 4375 -275 4250 25 
Q 4950 -25 5125 62 
Q 5300 150 5300 500 
L 5375 3700 
L 3550 3700 
Q 3425 3375 3262 3037 
Q 3100 2700 2925 2400 
Q 2675 2550 2475 2625 
Q 3150 3625 3500 5200 
Q 3800 5100 4075 5025 
Q 3975 4875 3875 4650 
Q 3775 4425 3675 4125 
L 5900 4125 
L 5775 275 
z
M 1250 3625 
L 1250 4375 
Q 1250 4775 1225 5100 
L 1775 5100 
Q 1750 4725 1750 4375 
L 1750 3625 
L 1900 3625 
Q 2200 3625 2525 3650 
L 2525 3150 
Q 2200 3175 1900 3175 
L 1750 3175 
L 1750 1100 
L 2500 1375 
Q 2475 1125 2525 900 
Q 1225 475 962 362 
Q 700 250 475 150 
Q 375 475 250 750 
Q 575 800 800 850 
Q 1025 900 1250 975 
L 1250 3175 
L 1125 3175 
Q 850 3175 400 3150 
L 400 3650 
Q 850 3625 1100 3625 
L 1250 3625 
z
M 4950 1625 
Q 4675 1425 4137 1050 
Q 3600 675 3175 300 
Q 3000 575 2850 775 
Q 3350 1050 3762 1325 
Q 4175 1600 4775 2075 
Q 4825 1850 4950 1625 
z
M 3775 3150 
Q 4125 2800 4475 2300 
Q 4250 2125 4100 1975 
Q 3900 2325 3450 2825 
Q 3600 3000 3775 3150 
z
" transform="scale(0.015625)"/>
       <path id="SimHei-541e" d="M 4425 4975 
Q 4800 4975 5250 5000 
L 5250 4525 
Q 4800 4550 4425 4550 
L 3300 4550 
Q 3275 4150 3175 3675 
L 4975 3675 
Q 5450 3675 5850 3700 
L 5850 3225 
Q 5475 3250 4975 3250 
L 4075 3250 
Q 4200 2900 4675 2512 
Q 5150 2125 6200 1975 
Q 6000 1800 5875 1425 
Q 5550 1475 4975 1800 
Q 4950 1450 4950 650 
Q 4950 -150 4975 -575 
L 4450 -575 
L 4450 -75 
L 2050 -75 
L 2050 -600 
L 1525 -600 
Q 1550 -200 1550 550 
L 1550 1600 
Q 1125 1350 750 1175 
Q 675 1400 300 1625 
Q 750 1725 1400 2112 
Q 2050 2500 2500 3250 
L 1300 3250 
Q 925 3250 525 3225 
L 525 3700 
Q 925 3675 1300 3675 
L 2675 3675 
Q 2775 4125 2800 4550 
L 2025 4550 
Q 1525 4550 1125 4525 
L 1125 5000 
Q 1525 4975 2000 4975 
L 4425 4975 
z
M 4450 350 
L 4450 1450 
L 2050 1450 
L 2050 350 
L 4450 350 
z
M 4725 1900 
Q 4025 2275 3550 3250 
L 3050 3250 
Q 2625 2425 1925 1900 
L 4725 1900 
z
" transform="scale(0.015625)"/>
       <path id="SimHei-5410" d="M 2425 4250 
Q 2400 3775 2400 3275 
L 2400 1250 
Q 2400 800 2425 475 
L 1925 475 
L 1925 950 
L 950 950 
L 950 -25 
L 425 -25 
Q 425 450 450 925 
L 450 3275 
Q 450 3775 425 4250 
L 2425 4250 
z
M 4000 3225 
L 4000 4350 
Q 4000 4875 3925 5100 
L 4550 5100 
Q 4500 4825 4500 4350 
L 4500 3225 
L 5000 3225 
Q 5450 3225 5750 3250 
L 5750 2775 
Q 5475 2800 5025 2800 
L 4500 2800 
L 4500 150 
L 5300 150 
Q 5750 150 6100 175 
L 6100 -300 
Q 5775 -275 5325 -275 
L 3275 -275 
Q 2775 -275 2400 -300 
L 2400 175 
Q 2775 150 3275 150 
L 4000 150 
L 4000 2800 
L 3550 2800 
Q 3100 2800 2725 2775 
L 2725 3250 
Q 3100 3225 3550 3225 
L 4000 3225 
z
M 1925 1375 
L 1925 3825 
L 950 3825 
L 950 1375 
L 1925 1375 
z
" transform="scale(0.015625)"/>
       <path id="SimHei-91cf" d="M 5250 2500 
Q 5225 2200 5225 1700 
Q 5225 1225 5250 950 
L 3425 950 
L 3425 625 
L 4575 625 
Q 5000 625 5375 650 
L 5375 275 
Q 5025 300 4575 300 
L 3425 300 
L 3425 -75 
L 5125 -75 
Q 5525 -75 5925 -50 
L 5925 -425 
Q 5525 -400 5125 -400 
L 1275 -400 
Q 900 -400 475 -425 
L 475 -50 
Q 925 -50 1275 -75 
L 2975 -75 
L 2975 300 
L 1725 300 
Q 1350 300 975 250 
L 975 650 
Q 1375 625 1725 625 
L 2975 625 
L 2975 950 
L 1150 950 
Q 1175 1375 1175 1775 
Q 1175 2175 1150 2500 
L 5250 2500 
z
M 5200 4950 
Q 5175 4575 5175 4250 
Q 5175 3925 5200 3400 
L 1200 3400 
Q 1225 3925 1225 4250 
Q 1225 4575 1200 4950 
L 5200 4950 
z
M 4900 3100 
Q 5500 3125 6000 3150 
L 6000 2750 
Q 5500 2775 4925 2775 
L 1650 2775 
Q 975 2775 325 2750 
L 325 3150 
Q 975 3125 1650 3100 
L 4900 3100 
z
M 4725 3700 
L 4725 4025 
L 1675 4025 
L 1675 3700 
L 4725 3700 
z
M 4725 4350 
L 4725 4650 
L 1675 4650 
L 1675 4350 
L 4725 4350 
z
M 4750 1875 
L 4750 2175 
L 3425 2175 
L 3425 1875 
L 4750 1875 
z
M 2975 1875 
L 2975 2175 
L 1650 2175 
L 1650 1875 
L 2975 1875 
z
M 2975 1275 
L 2975 1550 
L 1650 1550 
L 1650 1275 
L 2975 1275 
z
M 4750 1275 
L 4750 1550 
L 3425 1550 
L 3425 1275 
L 4750 1275 
z
" transform="scale(0.015625)"/>
       <path id="SimHei-ff08" d="M 5425 5100 
L 5700 4775 
Q 4275 3725 4325 2350 
Q 4350 1025 5675 50 
L 5400 -275 
Q 3875 825 3925 2500 
Q 3925 3875 5425 5100 
z
" transform="scale(0.015625)"/>
       <path id="SimHei-62" d="M 2825 1525 
Q 2825 800 2475 437 
Q 2125 75 1625 75 
Q 1350 75 1150 175 
Q 950 275 800 500 
L 800 125 
L 300 125 
L 300 4400 
L 800 4400 
L 800 2550 
Q 950 2775 1150 2887 
Q 1350 3000 1625 3000 
Q 2125 3000 2475 2625 
Q 2825 2250 2825 1525 
z
M 2275 1525 
Q 2275 2000 2087 2275 
Q 1900 2550 1525 2550 
Q 1225 2550 1012 2275 
Q 800 2000 800 1525 
Q 800 1050 1012 787 
Q 1225 525 1525 525 
Q 1900 525 2087 787 
Q 2275 1050 2275 1525 
z
" transform="scale(0.015625)"/>
       <path id="SimHei-69" d="M 1800 3725 
L 1300 3725 
L 1300 4375 
L 1800 4375 
L 1800 3725 
z
M 1800 125 
L 1300 125 
L 1300 2925 
L 1800 2925 
L 1800 125 
z
" transform="scale(0.015625)"/>
       <path id="SimHei-74" d="M 2750 200 
Q 2625 150 2462 112 
Q 2300 75 2025 75 
Q 1575 75 1300 325 
Q 1025 575 1025 1025 
L 1025 2525 
L 175 2525 
L 175 2925 
L 1025 2925 
L 1025 3900 
L 1525 3900 
L 1525 2925 
L 2550 2925 
L 2550 2525 
L 1525 2525 
L 1525 1000 
Q 1525 800 1625 662 
Q 1725 525 2000 525 
Q 2275 525 2450 575 
Q 2625 625 2750 700 
L 2750 200 
z
" transform="scale(0.015625)"/>
       <path id="SimHei-73" d="M 2750 900 
Q 2750 500 2437 287 
Q 2125 75 1650 75 
Q 1050 75 725 312 
Q 400 550 400 1000 
L 900 1000 
Q 900 700 1112 600 
Q 1325 500 1625 500 
Q 1925 500 2075 612 
Q 2225 725 2225 900 
Q 2225 1025 2100 1150 
Q 1975 1275 1475 1350 
Q 900 1425 687 1637 
Q 475 1850 475 2200 
Q 475 2500 762 2737 
Q 1050 2975 1600 2975 
Q 2100 2975 2387 2750 
Q 2675 2525 2675 2150 
L 2175 2150 
Q 2175 2375 2012 2462 
Q 1850 2550 1600 2550 
Q 1275 2550 1137 2437 
Q 1000 2325 1000 2175 
Q 1000 2000 1125 1900 
Q 1250 1800 1650 1750 
Q 2300 1650 2525 1437 
Q 2750 1225 2750 900 
z
" transform="scale(0.015625)"/>
       <path id="SimHei-ff09" d="M 1000 5100 
Q 2500 3875 2500 2500 
Q 2550 825 1025 -275 
L 750 50 
Q 2075 1025 2100 2350 
Q 2150 3725 725 4775 
L 1000 5100 
z
" transform="scale(0.015625)"/>
      </defs>
      <use xlink:href="#SimHei-5e73"/>
      <use xlink:href="#SimHei-5747" x="100"/>
      <use xlink:href="#SimHei-541e" x="200"/>
      <use xlink:href="#SimHei-5410" x="300"/>
      <use xlink:href="#SimHei-91cf" x="400"/>
      <use xlink:href="#SimHei-ff08" x="500"/>
      <use xlink:href="#SimHei-62" x="600"/>
      <use xlink:href="#SimHei-69" x="650"/>
      <use xlink:href="#SimHei-74" x="700"/>
      <use xlink:href="#SimHei-73" x="750"/>
      <use xlink:href="#SimHei-ff09" x="800"/>
     </g>
    </g>
   </g>
   <g id="line2d_29">
    <path d="M 90 89.016023 
L 646.884 89.016023 
L 646.884 89.016023 
" clip-path="url(#pcbc885a8f5)" style="fill: none; stroke-dasharray: 7.4,3.2; stroke-dashoffset: 0; stroke: #0000ff; stroke-width: 2"/>
   </g>
   <g id="line2d_30">
    <path d="M 90 369.36 
L 91.116 359.928558 
L 92.232 352.734799 
L 93.348 346.277927 
L 97.812 333.345994 
L 98.928 328.56405 
L 100.044 330.041299 
L 101.16 330.078404 
L 102.276 329.151145 
L 103.392 323.791727 
L 104.508 324.357015 
L 105.624 326.159195 
L 106.74 325.256644 
L 107.856 327.203825 
L 108.972 324.510572 
L 110.088 324.270228 
L 111.204 322.282957 
L 112.32 321.157517 
L 113.436 319.255421 
L 114.552 316.782488 
L 116.784 308.428712 
L 117.9 307.323955 
L 119.016 309.168635 
L 120.132 308.674098 
L 121.248 311.077811 
L 122.364 312.48826 
L 123.48 310.492818 
L 124.596 310.581274 
L 125.712 310.935057 
L 129.06 305.578487 
L 130.176 302.906499 
L 132.408 307.880874 
L 133.524 305.908121 
L 134.64 306.630413 
L 136.872 305.601648 
L 137.988 304.020422 
L 140.22 300.148582 
L 141.336 298.979939 
L 142.452 296.296829 
L 143.568 293.986054 
L 144.684 294.59599 
L 145.8 291.701418 
L 146.916 289.424991 
L 148.032 287.952665 
L 149.148 283.67861 
L 150.264 282.11413 
L 151.38 281.556783 
L 152.496 281.44629 
L 153.612 278.94686 
L 154.728 277.255426 
L 155.844 274.658708 
L 156.96 269.809977 
L 158.076 269.199849 
L 159.192 267.273043 
L 160.308 266.887499 
L 162.54 263.392252 
L 163.656 264.356279 
L 164.772 263.790976 
L 165.888 262.16292 
L 167.004 262.593813 
L 168.12 259.869355 
L 169.236 259.680186 
L 170.352 258.658277 
L 171.468 259.253173 
L 172.584 257.417246 
L 173.7 256.818017 
L 174.816 258.960942 
L 175.932 258.256593 
L 177.048 258.09624 
L 178.164 257.014337 
L 179.28 257.365974 
L 180.396 258.085784 
L 182.628 257.808642 
L 183.744 259.77602 
L 184.86 259.367625 
L 185.976 261.670717 
L 187.092 265.031454 
L 188.208 265.048946 
L 190.44 264.222674 
L 191.556 264.290589 
L 192.672 263.528038 
L 193.788 263.329005 
L 194.904 264.361439 
L 196.02 263.928773 
L 197.136 263.765106 
L 198.252 264.081534 
L 199.368 265.685339 
L 200.484 263.151737 
L 201.6 266.264185 
L 202.716 264.840454 
L 203.832 265.404974 
L 204.948 264.57846 
L 206.064 265.860929 
L 207.18 265.597563 
L 208.296 262.901505 
L 209.412 264.38469 
L 210.528 264.714787 
L 212.76 262.977303 
L 213.876 263.563539 
L 214.992 263.881768 
L 216.108 264.367817 
L 217.224 262.623185 
L 218.34 262.650271 
L 219.456 261.923692 
L 220.572 261.811163 
L 221.688 261.100163 
L 222.804 262.422549 
L 223.92 263.508017 
L 225.036 261.501707 
L 226.152 260.586645 
L 227.268 261.217124 
L 228.384 261.30566 
L 229.5 261.139941 
L 230.616 260.300998 
L 231.732 260.583908 
L 232.848 259.794429 
L 233.964 260.037659 
L 235.08 259.330609 
L 236.196 257.033757 
L 237.312 255.943361 
L 238.428 255.798964 
L 239.544 256.704369 
L 240.66 255.644303 
L 241.776 254.869469 
L 242.892 254.673894 
L 244.008 253.487817 
L 246.24 251.735816 
L 247.356 253.132635 
L 248.472 254.124345 
L 249.588 254.336899 
L 250.704 253.217331 
L 251.82 252.514789 
L 252.936 251.440413 
L 254.052 251.126234 
L 256.284 251.953048 
L 257.4 251.799575 
L 258.516 251.929918 
L 259.632 251.214782 
L 260.748 250.640554 
L 261.864 250.386914 
L 262.98 250.649867 
L 264.096 252.026128 
L 265.212 251.730699 
L 266.328 250.05937 
L 267.444 249.075773 
L 268.56 250.888437 
L 269.676 249.562536 
L 270.792 248.636571 
L 271.908 247.387376 
L 273.024 247.825997 
L 274.14 246.910664 
L 275.256 247.357053 
L 277.488 246.05243 
L 279.72 246.61384 
L 283.068 245.854065 
L 285.3 246.137003 
L 286.416 244.963701 
L 287.532 245.516607 
L 288.648 245.56681 
L 289.764 247.118638 
L 290.88 246.810232 
L 291.996 247.076055 
L 293.112 246.466537 
L 294.228 245.43929 
L 295.344 244.903714 
L 296.46 243.909601 
L 297.576 243.666796 
L 299.808 243.784084 
L 300.924 243.310011 
L 302.04 243.733145 
L 303.156 242.742842 
L 304.272 242.429488 
L 305.388 242.792066 
L 306.504 241.490774 
L 307.62 241.106547 
L 309.852 243.530096 
L 310.968 243.176589 
L 312.084 243.566407 
L 313.2 242.831631 
L 314.316 241.963409 
L 315.432 242.30631 
L 316.548 243.1448 
L 317.664 244.780393 
L 318.78 244.081831 
L 319.896 243.578991 
L 321.012 244.548528 
L 322.128 244.320586 
L 323.244 244.787772 
L 324.36 244.915785 
L 325.476 244.257785 
L 326.592 243.804851 
L 327.708 244.430233 
L 328.824 243.986016 
L 329.94 243.896718 
L 331.056 244.027351 
L 332.172 244.920976 
L 333.288 244.112573 
L 334.404 243.520953 
L 335.52 244.183649 
L 336.636 243.724671 
L 337.752 242.345576 
L 339.984 242.094704 
L 341.1 241.895348 
L 342.216 242.916965 
L 343.332 242.553307 
L 344.448 242.399445 
L 345.564 241.543442 
L 346.68 241.41538 
L 347.796 240.988235 
L 348.912 240.376466 
L 350.028 241.003663 
L 351.144 241.796201 
L 352.26 241.315662 
L 353.376 241.943262 
L 354.492 241.13963 
L 355.608 241.073796 
L 356.724 240.336034 
L 357.84 239.994433 
L 358.956 240.124347 
L 360.072 240.403692 
L 361.188 241.053758 
L 362.304 242.177226 
L 363.42 242.47795 
L 364.536 241.45281 
L 365.652 241.724006 
L 366.768 240.883504 
L 367.884 241.200725 
L 369 241.705942 
L 370.116 241.57752 
L 371.232 241.252432 
L 372.348 240.737018 
L 373.464 240.698927 
L 374.58 240.470377 
L 375.696 240.647979 
L 376.812 239.85491 
L 377.928 240.587456 
L 380.16 240.50442 
L 381.276 239.74911 
L 382.392 240.633023 
L 383.508 240.230314 
L 384.624 240.224954 
L 389.088 238.632015 
L 390.204 237.823493 
L 391.32 238.198235 
L 392.436 237.858376 
L 393.552 237.061054 
L 394.668 236.710426 
L 395.784 236.920935 
L 396.9 236.767749 
L 398.016 236.961815 
L 400.248 236.06355 
L 401.364 236.10254 
L 402.48 235.337922 
L 403.596 235.720751 
L 404.712 235.897019 
L 405.828 235.541841 
L 406.944 236.319591 
L 408.06 235.721629 
L 409.176 235.608391 
L 410.292 235.01563 
L 411.408 234.698293 
L 412.524 234.142297 
L 413.64 233.790898 
L 414.756 233.590734 
L 415.872 234.246673 
L 416.988 234.281414 
L 420.336 232.762564 
L 421.452 232.234329 
L 422.568 232.242152 
L 423.684 231.509012 
L 424.8 231.352347 
L 425.916 231.032218 
L 427.032 231.260876 
L 428.148 231.653683 
L 431.496 230.950962 
L 432.612 230.19489 
L 433.728 229.75129 
L 434.844 230.531839 
L 435.96 230.766148 
L 438.192 230.274146 
L 439.308 229.925355 
L 440.424 229.337527 
L 441.54 230.431809 
L 442.656 229.94237 
L 443.772 230.125783 
L 444.888 229.938669 
L 446.004 229.274391 
L 447.12 228.158817 
L 448.236 228.113204 
L 449.352 228.30123 
L 450.468 228.662789 
L 451.584 227.753793 
L 452.7 227.565177 
L 453.816 227.655815 
L 454.932 227.057157 
L 456.048 226.647099 
L 457.164 225.976818 
L 459.396 225.099896 
L 460.512 225.512234 
L 461.628 226.684628 
L 462.744 225.874012 
L 463.86 225.960547 
L 464.976 225.473231 
L 466.092 225.113363 
L 467.208 224.206329 
L 468.324 224.109017 
L 469.44 222.934757 
L 470.556 222.879445 
L 471.672 223.157302 
L 472.788 222.299541 
L 473.904 222.485826 
L 475.02 222.000249 
L 476.136 221.276578 
L 477.252 220.759928 
L 478.368 219.976378 
L 479.484 220.419444 
L 480.6 221.468967 
L 481.716 221.456218 
L 482.832 221.597916 
L 483.948 221.32661 
L 485.064 221.316947 
L 486.18 220.895816 
L 487.296 220.876279 
L 488.412 221.321094 
L 489.528 221.45419 
L 490.644 221.914911 
L 491.76 220.823847 
L 492.876 221.252911 
L 493.992 221.416158 
L 495.108 221.208067 
L 497.34 220.317207 
L 498.456 221.240661 
L 499.572 221.571542 
L 500.688 221.592581 
L 501.804 222.519805 
L 502.92 222.373203 
L 504.036 222.398167 
L 505.152 222.605445 
L 506.268 222.354347 
L 507.384 221.508183 
L 509.616 221.28241 
L 510.732 221.711781 
L 511.848 221.847731 
L 514.08 221.069519 
L 515.196 220.404001 
L 516.312 220.285347 
L 517.428 220.535779 
L 518.544 219.752271 
L 519.66 219.70218 
L 520.776 220.294779 
L 521.892 220.421077 
L 523.008 220.79798 
L 524.124 220.579464 
L 525.24 220.687925 
L 526.356 221.550266 
L 527.472 220.717496 
L 528.588 220.493416 
L 529.704 220.493732 
L 533.052 220.103783 
L 534.168 219.749973 
L 535.284 219.089221 
L 536.4 219.232308 
L 538.632 219.747835 
L 539.748 219.77055 
L 540.864 220.508272 
L 541.98 219.742356 
L 544.212 219.933714 
L 545.328 219.481874 
L 546.444 219.56008 
L 548.676 218.799062 
L 552.024 219.186509 
L 553.14 218.98511 
L 554.256 219.474173 
L 555.372 218.983875 
L 557.604 218.837986 
L 560.952 218.346807 
L 562.068 218.426628 
L 564.3 219.051949 
L 565.416 218.808603 
L 566.532 219.101301 
L 567.648 219.277662 
L 568.764 218.989837 
L 569.88 219.098333 
L 570.996 219.462375 
L 572.112 219.525781 
L 573.228 219.098056 
L 574.344 219.230927 
L 575.46 219.535854 
L 576.576 219.308024 
L 577.692 219.442503 
L 579.924 219.143941 
L 581.04 220.151379 
L 582.156 220.295374 
L 583.272 219.951469 
L 584.388 220.727665 
L 585.504 220.239211 
L 587.736 219.933553 
L 588.852 219.755595 
L 589.968 219.894418 
L 591.084 219.312099 
L 593.316 219.666872 
L 594.432 219.549275 
L 595.548 219.701013 
L 596.664 218.989455 
L 598.896 219.813705 
L 600.012 219.812676 
L 601.128 219.604089 
L 602.244 220.226644 
L 603.36 220.112212 
L 604.476 219.558132 
L 605.592 220.120458 
L 606.708 219.293269 
L 608.94 219.607272 
L 611.172 219.30001 
L 612.288 219.219729 
L 613.404 218.726279 
L 614.52 218.904248 
L 615.636 218.900195 
L 616.752 218.765505 
L 618.984 219.143809 
L 620.1 219.09759 
L 621.216 219.51303 
L 622.332 219.541409 
L 623.448 220.068409 
L 624.564 220.070597 
L 627.912 219.669777 
L 629.028 219.760735 
L 630.144 219.701279 
L 631.26 219.428108 
L 632.376 219.583119 
L 633.492 219.250081 
L 634.608 219.145393 
L 635.724 219.169064 
L 636.84 219.986022 
L 637.956 220.208457 
L 639.072 219.477403 
L 640.188 220.009252 
L 641.304 219.44295 
L 642.42 218.697556 
L 643.536 217.40226 
L 644.652 217.641171 
L 645.768 218.027422 
L 646.884 218.055769 
L 646.884 218.055769 
" clip-path="url(#pcbc885a8f5)" style="fill: none; stroke-dasharray: 7.4,3.2; stroke-dashoffset: 0; stroke: #008000; stroke-width: 2"/>
   </g>
   <g id="line2d_31">
    <path d="M 90 89.015993 
L 91.116 86.844349 
L 92.232 85.339289 
L 93.348 87.557381 
L 94.464 86.180853 
L 95.58 78.250591 
L 96.696 82.862812 
L 97.812 80.86431 
L 98.928 82.755129 
L 100.044 86.914447 
L 101.16 88.207893 
L 102.276 94.294184 
L 103.392 87.933009 
L 104.508 86.563067 
L 105.624 87.869007 
L 106.74 86.580197 
L 107.856 87.190327 
L 108.972 85.547917 
L 110.088 89.414441 
L 111.204 85.422936 
L 112.32 87.181481 
L 113.436 89.39788 
L 114.552 87.64674 
L 115.668 88.872566 
L 116.784 86.436177 
L 117.9 85.711537 
L 119.016 85.808209 
L 120.132 87.865876 
L 121.248 86.29156 
L 122.364 85.969597 
L 123.48 86.342891 
L 124.596 86.965593 
L 125.712 84.974125 
L 126.828 89.166601 
L 127.944 88.349905 
L 129.06 88.875443 
L 130.176 88.701395 
L 131.292 89.298142 
L 132.408 90.106355 
L 133.524 93.629663 
L 134.64 91.67989 
L 135.756 90.127997 
L 136.872 92.417532 
L 137.988 91.412065 
L 139.104 91.509338 
L 140.22 96.295132 
L 141.336 95.817836 
L 142.452 99.775732 
L 143.568 95.426817 
L 144.684 94.918249 
L 145.8 94.865058 
L 146.916 94.684343 
L 148.032 98.807125 
L 149.148 91.94716 
L 150.264 97.465734 
L 151.38 95.668641 
L 152.496 95.530886 
L 153.612 96.57329 
L 154.728 98.450367 
L 155.844 92.266814 
L 156.96 93.283563 
L 158.076 91.394684 
L 159.192 93.550625 
L 160.308 90.623045 
L 161.424 92.553266 
L 162.54 88.464892 
L 163.656 91.824678 
L 164.772 86.694961 
L 165.888 89.71872 
L 167.004 91.162142 
L 168.12 95.136579 
L 169.236 91.328322 
L 170.352 90.74401 
L 171.468 88.830478 
L 172.584 90.214146 
L 173.7 85.349233 
L 174.816 90.15484 
L 175.932 89.01635 
L 177.048 87.300083 
L 178.164 86.599376 
L 179.28 88.949839 
L 180.396 85.890531 
L 181.512 87.57428 
L 182.628 90.979867 
L 183.744 86.787768 
L 185.976 86.771988 
L 187.092 89.833136 
L 188.208 83.466905 
L 189.324 87.723649 
L 190.44 82.878103 
L 191.556 85.809962 
L 192.672 85.319932 
L 193.788 83.688323 
L 194.904 84.854616 
L 197.136 84.859514 
L 198.252 83.649435 
L 199.368 81.812373 
L 201.6 82.822847 
L 202.716 82.136414 
L 203.832 82.597724 
L 204.948 83.299095 
L 206.064 82.90121 
L 207.18 81.775948 
L 208.296 82.898595 
L 209.412 81.424895 
L 210.528 80.21382 
L 211.644 81.18293 
L 212.76 83.158187 
L 213.876 81.798759 
L 214.992 81.247016 
L 216.108 79.678292 
L 217.224 79.351158 
L 218.34 79.715003 
L 219.456 79.664035 
L 220.572 81.809773 
L 221.688 79.412666 
L 222.804 80.036662 
L 223.92 80.464644 
L 225.036 79.0069 
L 226.152 78.935486 
L 227.268 79.520469 
L 228.384 78.066757 
L 230.616 79.343271 
L 231.732 78.634792 
L 232.848 77.277925 
L 233.964 77.661347 
L 235.08 79.240533 
L 236.196 78.026701 
L 237.312 77.386339 
L 238.428 78.626765 
L 239.544 77.005743 
L 240.66 76.176467 
L 241.776 76.092382 
L 242.892 76.96884 
L 245.124 77.513144 
L 246.24 76.850576 
L 247.356 76.838118 
L 248.472 76.017813 
L 249.588 77.015599 
L 250.704 76.89761 
L 251.82 76.307845 
L 252.936 76.417804 
L 254.052 76.116742 
L 255.168 77.887937 
L 256.284 77.37487 
L 257.4 77.802553 
L 258.516 76.980455 
L 259.632 77.476531 
L 260.748 76.969404 
L 261.864 75.763168 
L 262.98 77.264414 
L 264.096 76.330571 
L 265.212 75.929417 
L 267.444 76.595166 
L 268.56 75.266245 
L 269.676 75.399296 
L 270.792 75.960829 
L 271.908 77.893281 
L 273.024 75.657331 
L 274.14 77.012601 
L 275.256 76.471114 
L 276.372 75.731948 
L 277.488 75.43377 
L 278.604 76.140488 
L 279.72 76.31897 
L 280.836 75.974045 
L 281.952 74.43359 
L 283.068 74.272718 
L 284.184 75.917365 
L 285.3 74.760985 
L 286.416 74.367305 
L 287.532 75.377559 
L 288.648 74.82866 
L 289.764 75.582936 
L 291.996 73.98611 
L 293.112 74.623995 
L 294.228 74.480937 
L 295.344 74.920729 
L 296.46 74.153662 
L 297.576 74.787939 
L 299.808 75.199564 
L 300.924 75.121836 
L 302.04 74.380518 
L 303.156 74.94391 
L 304.272 74.34766 
L 305.388 73.603602 
L 306.504 73.331105 
L 307.62 74.422052 
L 308.736 73.909929 
L 309.852 75.061369 
L 310.968 74.423927 
L 312.084 73.928737 
L 313.2 73.20217 
L 314.316 75.627336 
L 315.432 73.584648 
L 317.664 73.615325 
L 319.896 75.000431 
L 321.012 73.306933 
L 322.128 73.749233 
L 323.244 73.264907 
L 324.36 73.663967 
L 325.476 73.701965 
L 326.592 74.31502 
L 327.708 72.211448 
L 328.824 72.003991 
L 329.94 72.298539 
L 331.056 73.387868 
L 332.172 73.88955 
L 333.288 72.915646 
L 334.404 73.189593 
L 335.52 74.100491 
L 336.636 73.506135 
L 337.752 72.689699 
L 339.984 73.356412 
L 341.1 73.470617 
L 342.216 73.248413 
L 343.332 72.784217 
L 344.448 73.11603 
L 345.564 73.213999 
L 346.68 73.032501 
L 347.796 73.269236 
L 348.912 72.875492 
L 350.028 71.975196 
L 351.144 72.40122 
L 352.26 71.647825 
L 353.376 72.849619 
L 355.608 72.526943 
L 356.724 71.379876 
L 358.956 73.316009 
L 360.072 72.755235 
L 361.188 73.15273 
L 362.304 72.871916 
L 363.42 71.601074 
L 364.536 72.625275 
L 365.652 72.167311 
L 366.768 72.715027 
L 367.884 72.424341 
L 369 71.060736 
L 372.348 72.056567 
L 374.58 72.215528 
L 376.812 71.657328 
L 377.928 71.436168 
L 380.16 71.672145 
L 381.276 70.930739 
L 382.392 71.552897 
L 383.508 71.254748 
L 384.624 71.754194 
L 385.74 70.743716 
L 386.856 71.333696 
L 389.088 72.108021 
L 390.204 71.963162 
L 391.32 72.448946 
L 392.436 71.700222 
L 393.552 72.146286 
L 394.668 71.622349 
L 396.9 70.916349 
L 398.016 70.840376 
L 399.132 71.186981 
L 400.248 71.696631 
L 401.364 71.491251 
L 402.48 71.512257 
L 403.596 71.795965 
L 404.712 71.358739 
L 405.828 71.662643 
L 406.944 71.573577 
L 408.06 71.076778 
L 409.176 71.41475 
L 410.292 70.152399 
L 411.408 71.588954 
L 412.524 71.077827 
L 413.64 70.998014 
L 414.756 71.134919 
L 415.872 71.886443 
L 416.988 70.130566 
L 418.104 70.649525 
L 421.452 70.266554 
L 422.568 71.228597 
L 423.684 70.577402 
L 424.8 71.129935 
L 425.916 71.120138 
L 427.032 69.992931 
L 428.148 70.261513 
L 429.264 69.363698 
L 430.38 70.675596 
L 431.496 71.305367 
L 432.612 70.191456 
L 433.728 70.879228 
L 434.844 70.549194 
L 435.96 70.357324 
L 437.076 69.832642 
L 438.192 69.799703 
L 439.308 69.020417 
L 440.424 70.614406 
L 441.54 70.659029 
L 442.656 70.479939 
L 443.772 70.159827 
L 444.888 69.721391 
L 446.004 70.278578 
L 447.12 70.077775 
L 448.236 70.090039 
L 449.352 69.672435 
L 450.468 69.59919 
L 451.584 70.223364 
L 452.7 70.158668 
L 453.816 69.451413 
L 454.932 69.731595 
L 456.048 69.020093 
L 457.164 68.731857 
L 458.28 69.783505 
L 459.396 69.026156 
L 460.512 69.981467 
L 461.628 69.635151 
L 462.744 69.966431 
L 463.86 68.57218 
L 464.976 69.61261 
L 466.092 68.798837 
L 467.208 70.353718 
L 468.324 69.918847 
L 469.44 70.148514 
L 471.672 68.796682 
L 472.788 69.222038 
L 473.904 68.697331 
L 475.02 69.909235 
L 476.136 68.741077 
L 477.252 69.245904 
L 478.368 69.199927 
L 479.484 69.74261 
L 480.6 69.25773 
L 481.716 70.319174 
L 482.832 69.911304 
L 483.948 68.958106 
L 485.064 70.198525 
L 486.18 69.251429 
L 487.296 69.004155 
L 488.412 70.514538 
L 489.528 70.212565 
L 490.644 70.442409 
L 491.76 69.381939 
L 492.876 70.390966 
L 493.992 70.246771 
L 495.108 70.665775 
L 496.224 70.244731 
L 497.34 69.209523 
L 498.456 69.799353 
L 499.572 70.078262 
L 500.688 69.441416 
L 501.804 69.790628 
L 502.92 69.220751 
L 505.152 70.851975 
L 506.268 69.72298 
L 507.384 69.096065 
L 509.616 69.241753 
L 510.732 69.538 
L 511.848 69.594649 
L 512.964 69.919993 
L 514.08 68.842305 
L 515.196 69.061278 
L 516.312 69.839997 
L 517.428 69.655579 
L 518.544 68.58473 
L 519.66 69.704671 
L 520.776 69.489181 
L 521.892 68.877246 
L 523.008 69.645319 
L 525.24 69.121118 
L 526.356 69.25124 
L 527.472 68.84576 
L 528.588 69.134307 
L 529.704 69.546244 
L 530.82 69.043947 
L 531.936 69.737494 
L 533.052 69.783534 
L 534.168 68.695839 
L 535.284 68.67584 
L 536.4 68.237917 
L 537.516 69.735735 
L 539.748 69.419603 
L 540.864 68.733727 
L 541.98 71.32179 
L 543.096 70.091546 
L 544.212 69.455394 
L 545.328 69.517977 
L 546.444 69.083475 
L 547.56 68.207741 
L 548.676 68.563267 
L 549.792 68.756573 
L 550.908 68.778377 
L 552.024 69.517973 
L 553.14 69.278047 
L 554.256 69.657777 
L 555.372 69.845955 
L 556.488 68.19539 
L 557.604 68.371937 
L 558.72 69.078827 
L 559.836 69.120864 
L 560.952 68.169699 
L 562.068 68.591646 
L 563.184 67.669102 
L 564.3 69.712979 
L 565.416 69.700099 
L 567.648 68.107916 
L 568.764 68.665852 
L 569.88 68.726997 
L 570.996 69.90408 
L 572.112 68.836192 
L 573.228 69.90756 
L 574.344 69.071984 
L 575.46 68.793839 
L 576.576 67.900972 
L 577.692 67.777821 
L 578.808 68.009835 
L 581.04 71.004164 
L 582.156 70.316139 
L 583.272 69.07199 
L 584.388 68.675717 
L 585.504 68.045614 
L 586.62 69.114775 
L 587.736 68.301334 
L 588.852 69.294429 
L 589.968 68.724911 
L 591.084 68.577371 
L 592.2 67.655814 
L 593.316 68.670437 
L 594.432 66.96 
L 595.548 67.854224 
L 596.664 67.805719 
L 597.78 68.860287 
L 598.896 68.841581 
L 600.012 68.662016 
L 602.244 67.670553 
L 603.36 67.872204 
L 604.476 68.415382 
L 607.824 68.019964 
L 608.94 68.668062 
L 610.056 68.895676 
L 611.172 67.792092 
L 612.288 68.982517 
L 613.404 69.380287 
L 614.52 67.990946 
L 615.636 68.319979 
L 616.752 68.396168 
L 617.868 68.244902 
L 618.984 68.926673 
L 620.1 68.191918 
L 621.216 69.366144 
L 622.332 68.993916 
L 623.448 69.81011 
L 624.564 69.169446 
L 625.68 68.821511 
L 626.796 69.219184 
L 627.912 68.593131 
L 629.028 68.641511 
L 631.26 68.213982 
L 632.376 69.28332 
L 633.492 68.820476 
L 634.608 68.592411 
L 635.724 67.4725 
L 636.84 68.058746 
L 637.956 68.470839 
L 640.188 68.497307 
L 641.304 68.162041 
L 642.42 68.546112 
L 643.536 68.376464 
L 644.652 69.560601 
L 645.768 68.645538 
L 646.884 68.649348 
L 646.884 68.649348 
" clip-path="url(#pcbc885a8f5)" style="fill: none; stroke-dasharray: 7.4,3.2; stroke-dashoffset: 0; stroke: #ffa500; stroke-width: 2"/>
   </g>
   <g id="patch_3">
    <path d="M 90 384.48 
L 90 51.84 
" style="fill: none; stroke: #000000; stroke-width: 0.8; stroke-linejoin: miter; stroke-linecap: square"/>
   </g>
   <g id="patch_4">
    <path d="M 648 384.48 
L 648 51.84 
" style="fill: none; stroke: #000000; stroke-width: 0.8; stroke-linejoin: miter; stroke-linecap: square"/>
   </g>
   <g id="patch_5">
    <path d="M 90 384.48 
L 648 384.48 
" style="fill: none; stroke: #000000; stroke-width: 0.8; stroke-linejoin: miter; stroke-linecap: square"/>
   </g>
   <g id="patch_6">
    <path d="M 90 51.84 
L 648 51.84 
" style="fill: none; stroke: #000000; stroke-width: 0.8; stroke-linejoin: miter; stroke-linecap: square"/>
   </g>
   <g id="legend_1">
    <g id="patch_7">
     <path d="M 514.8 375.48 
L 635.4 375.48 
Q 639 375.48 639 371.88 
L 639 302.13 
Q 639 298.53 635.4 298.53 
L 514.8 298.53 
Q 511.2 298.53 511.2 302.13 
L 511.2 371.88 
Q 511.2 375.48 514.8 375.48 
z
" style="fill: #ffffff; opacity: 0.8; stroke: #cccccc; stroke-linejoin: miter"/>
    </g>
    <g id="line2d_32">
     <path d="M 518.4 312.03 
L 536.4 312.03 
L 554.4 312.03 
" style="fill: none; stroke-dasharray: 7.4,3.2; stroke-dashoffset: 0; stroke: #0000ff; stroke-width: 2"/>
    </g>
    <g id="text_17">
     <!-- greedy  -->
     <g transform="translate(568.8 318.33) scale(0.18 -0.18)">
      <defs>
       <path id="SimHei-67" d="M 2975 2500 
Q 2800 2550 2637 2562 
Q 2475 2575 2300 2525 
Q 2375 2450 2425 2337 
Q 2475 2225 2475 2000 
Q 2475 1575 2187 1300 
Q 1900 1025 1475 1025 
Q 1375 1025 1212 1062 
Q 1050 1100 950 1150 
Q 875 1100 850 1050 
Q 825 1000 825 925 
Q 825 800 1000 737 
Q 1175 675 1625 675 
Q 2350 675 2612 475 
Q 2875 275 2875 -25 
Q 2875 -425 2487 -612 
Q 2100 -800 1575 -800 
Q 900 -800 575 -625 
Q 250 -450 250 -150 
Q 250 0 375 150 
Q 500 300 700 400 
Q 550 475 462 587 
Q 375 700 375 875 
Q 375 1025 487 1137 
Q 600 1250 750 1325 
Q 625 1450 550 1625 
Q 475 1800 475 2000 
Q 475 2425 762 2700 
Q 1050 2975 1475 2975 
Q 1700 2975 1862 2912 
Q 2025 2850 2150 2725 
Q 2350 2875 2550 2937 
Q 2750 3000 2975 2975 
L 2975 2500 
z
M 1975 2000 
Q 1975 2250 1850 2400 
Q 1725 2550 1475 2550 
Q 1225 2550 1100 2400 
Q 975 2250 975 2000 
Q 975 1750 1100 1600 
Q 1225 1450 1475 1450 
Q 1725 1450 1850 1600 
Q 1975 1750 1975 2000 
z
M 2400 -75 
Q 2400 25 2287 125 
Q 2175 225 1725 225 
Q 1625 225 1450 237 
Q 1275 250 1050 275 
Q 850 200 775 100 
Q 700 0 700 -100 
Q 700 -250 900 -350 
Q 1100 -450 1600 -450 
Q 2025 -450 2212 -337 
Q 2400 -225 2400 -75 
z
" transform="scale(0.015625)"/>
       <path id="SimHei-72" d="M 2500 2425 
Q 2025 2500 1700 2287 
Q 1375 2075 1150 1550 
L 1150 125 
L 650 125 
L 650 2925 
L 1150 2925 
L 1150 2200 
Q 1375 2600 1712 2787 
Q 2050 2975 2500 2975 
L 2500 2425 
z
" transform="scale(0.015625)"/>
       <path id="SimHei-65" d="M 2850 1075 
Q 2800 625 2450 350 
Q 2100 75 1625 75 
Q 1025 75 637 462 
Q 250 850 250 1525 
Q 250 2200 637 2587 
Q 1025 2975 1625 2975 
Q 2150 2975 2487 2637 
Q 2825 2300 2825 1525 
L 800 1525 
Q 800 975 1037 750 
Q 1275 525 1625 525 
Q 1900 525 2075 662 
Q 2250 800 2300 1075 
L 2850 1075 
z
M 2250 1925 
Q 2200 2275 2025 2412 
Q 1850 2550 1575 2550 
Q 1325 2550 1125 2412 
Q 925 2275 825 1925 
L 2250 1925 
z
" transform="scale(0.015625)"/>
       <path id="SimHei-64" d="M 2750 125 
L 2250 125 
L 2250 500 
Q 2100 275 1900 175 
Q 1700 75 1425 75 
Q 925 75 575 437 
Q 225 800 225 1525 
Q 225 2250 575 2625 
Q 925 3000 1425 3000 
Q 1700 3000 1900 2887 
Q 2100 2775 2250 2550 
L 2250 4400 
L 2750 4400 
L 2750 125 
z
M 2250 1525 
Q 2250 2000 2037 2275 
Q 1825 2550 1525 2550 
Q 1150 2550 962 2275 
Q 775 2000 775 1525 
Q 775 1050 962 787 
Q 1150 525 1525 525 
Q 1825 525 2037 787 
Q 2250 1050 2250 1525 
z
" transform="scale(0.015625)"/>
       <path id="SimHei-79" d="M 2900 2925 
L 1750 -100 
Q 1650 -450 1450 -625 
Q 1250 -800 950 -800 
Q 825 -800 712 -787 
Q 600 -775 500 -725 
L 500 -225 
Q 600 -275 700 -300 
Q 800 -325 875 -325 
Q 1075 -325 1150 -262 
Q 1225 -200 1300 25 
L 200 2925 
L 750 2925 
L 1550 725 
L 1575 725 
L 2350 2925 
L 2900 2925 
z
" transform="scale(0.015625)"/>
       <path id="SimHei-20" transform="scale(0.015625)"/>
      </defs>
      <use xlink:href="#SimHei-67"/>
      <use xlink:href="#SimHei-72" x="50"/>
      <use xlink:href="#SimHei-65" x="100"/>
      <use xlink:href="#SimHei-65" x="150"/>
      <use xlink:href="#SimHei-64" x="200"/>
      <use xlink:href="#SimHei-79" x="250"/>
      <use xlink:href="#SimHei-20" x="300"/>
     </g>
    </g>
    <g id="line2d_33">
     <path d="M 518.4 335.88 
L 536.4 335.88 
L 554.4 335.88 
" style="fill: none; stroke-dasharray: 7.4,3.2; stroke-dashoffset: 0; stroke: #008000; stroke-width: 2"/>
    </g>
    <g id="text_18">
     <!-- ppo -->
     <g transform="translate(568.8 342.18) scale(0.18 -0.18)">
      <defs>
       <path id="SimHei-70" d="M 2825 1525 
Q 2825 800 2475 425 
Q 2125 50 1625 50 
Q 1350 50 1150 162 
Q 950 275 800 500 
L 800 -800 
L 300 -800 
L 300 2925 
L 800 2925 
L 800 2550 
Q 950 2775 1150 2875 
Q 1350 2975 1625 2975 
Q 2125 2975 2475 2612 
Q 2825 2250 2825 1525 
z
M 2275 1525 
Q 2275 2000 2087 2262 
Q 1900 2525 1525 2525 
Q 1225 2525 1012 2262 
Q 800 2000 800 1525 
Q 800 1050 1012 775 
Q 1225 500 1525 500 
Q 1900 500 2087 775 
Q 2275 1050 2275 1525 
z
" transform="scale(0.015625)"/>
       <path id="SimHei-6f" d="M 2925 1525 
Q 2925 875 2525 475 
Q 2125 75 1575 75 
Q 1025 75 625 475 
Q 225 875 225 1525 
Q 225 2175 625 2575 
Q 1025 2975 1575 2975 
Q 2125 2975 2525 2575 
Q 2925 2175 2925 1525 
z
M 2375 1525 
Q 2375 2025 2125 2275 
Q 1875 2525 1575 2525 
Q 1275 2525 1025 2275 
Q 775 2025 775 1525 
Q 775 1025 1025 775 
Q 1275 525 1575 525 
Q 1875 525 2125 775 
Q 2375 1025 2375 1525 
z
" transform="scale(0.015625)"/>
      </defs>
      <use xlink:href="#SimHei-70"/>
      <use xlink:href="#SimHei-70" x="50"/>
      <use xlink:href="#SimHei-6f" x="100"/>
     </g>
    </g>
    <g id="line2d_34">
     <path d="M 518.4 359.73 
L 536.4 359.73 
L 554.4 359.73 
" style="fill: none; stroke-dasharray: 7.4,3.2; stroke-dashoffset: 0; stroke: #ffa500; stroke-width: 2"/>
    </g>
    <g id="text_19">
     <!-- sac -->
     <g transform="translate(568.8 366.03) scale(0.18 -0.18)">
      <defs>
       <path id="SimHei-61" d="M 2875 125 
L 2275 125 
Q 2225 175 2200 262 
Q 2175 350 2175 475 
Q 2000 275 1750 175 
Q 1500 75 1225 75 
Q 825 75 550 275 
Q 275 475 275 850 
Q 275 1225 525 1450 
Q 775 1675 1300 1750 
Q 1650 1800 1912 1875 
Q 2175 1950 2175 2075 
Q 2175 2225 2062 2375 
Q 1950 2525 1575 2525 
Q 1275 2525 1137 2412 
Q 1000 2300 950 2100 
L 400 2100 
Q 450 2500 762 2737 
Q 1075 2975 1575 2975 
Q 2125 2975 2400 2725 
Q 2675 2475 2675 2025 
L 2675 650 
Q 2675 500 2725 375 
Q 2775 250 2875 125 
z
M 2175 1050 
L 2175 1550 
Q 2025 1500 1887 1462 
Q 1750 1425 1425 1375 
Q 1050 1325 937 1200 
Q 825 1075 825 900 
Q 825 750 937 637 
Q 1050 525 1275 525 
Q 1500 525 1762 650 
Q 2025 775 2175 1050 
z
" transform="scale(0.015625)"/>
       <path id="SimHei-63" d="M 2850 1250 
Q 2850 725 2487 400 
Q 2125 75 1575 75 
Q 1025 75 625 462 
Q 225 850 225 1525 
Q 225 2200 625 2587 
Q 1025 2975 1575 2975 
Q 2125 2975 2450 2687 
Q 2775 2400 2775 2000 
L 2225 2000 
Q 2200 2300 2012 2412 
Q 1825 2525 1575 2525 
Q 1275 2525 1025 2287 
Q 775 2050 775 1525 
Q 775 1000 1025 762 
Q 1275 525 1575 525 
Q 1900 525 2100 700 
Q 2300 875 2300 1250 
L 2850 1250 
z
" transform="scale(0.015625)"/>
      </defs>
      <use xlink:href="#SimHei-73"/>
      <use xlink:href="#SimHei-61" x="50"/>
      <use xlink:href="#SimHei-63" x="100"/>
     </g>
    </g>
   </g>
  </g>
 </g>
 <defs>
  <clipPath id="pcbc885a8f5">
   <rect x="90" y="51.84" width="558" height="332.64"/>
  </clipPath>
 </defs>
</svg>
