<?xml version="1.0" encoding="utf-8" standalone="no"?>
<!DOCTYPE svg PUBLIC "-//W3C//DTD SVG 1.1//EN"
  "http://www.w3.org/Graphics/SVG/1.1/DTD/svg11.dtd">
<svg xmlns:xlink="http://www.w3.org/1999/xlink" width="720pt" height="432pt" viewBox="0 0 720 432" xmlns="http://www.w3.org/2000/svg" version="1.1">
 <metadata>
  <rdf:RDF xmlns:dc="http://purl.org/dc/elements/1.1/" xmlns:cc="http://creativecommons.org/ns#" xmlns:rdf="http://www.w3.org/1999/02/22-rdf-syntax-ns#">
   <cc:Work>
    <dc:type rdf:resource="http://purl.org/dc/dcmitype/StillImage"/>
    <dc:date>2024-05-24T16:02:22.614006</dc:date>
    <dc:format>image/svg+xml</dc:format>
    <dc:creator>
     <cc:Agent>
      <dc:title>Matplotlib v3.7.1, https://matplotlib.org/</dc:title>
     </cc:Agent>
    </dc:creator>
   </cc:Work>
  </rdf:RDF>
 </metadata>
 <defs>
  <style type="text/css">*{stroke-linejoin: round; stroke-linecap: butt}</style>
 </defs>
 <g id="figure_1">
  <g id="patch_1">
   <path d="M 0 432 
L 720 432 
L 720 0 
L 0 0 
z
" style="fill: #ffffff"/>
  </g>
  <g id="axes_1">
   <g id="patch_2">
    <path d="M 90 384.48 
L 648 384.48 
L 648 51.84 
L 90 51.84 
z
" style="fill: #ffffff"/>
   </g>
   <g id="matplotlib.axis_1">
    <g id="xtick_1">
     <g id="line2d_1">
      <path d="M 90 384.48 
L 90 51.84 
" clip-path="url(#p7bb7172154)" style="fill: none; stroke: #b0b0b0; stroke-width: 0.8; stroke-linecap: square"/>
     </g>
     <g id="line2d_2">
      <defs>
       <path id="m33dc9ba670" d="M 0 0 
L 0 3.5 
" style="stroke: #000000; stroke-width: 0.8"/>
      </defs>
      <g>
       <use xlink:href="#m33dc9ba670" x="90" y="384.48" style="stroke: #000000; stroke-width: 0.8"/>
      </g>
     </g>
     <g id="text_1">
      <!-- 0 -->
      <g transform="translate(85.5 403.855) scale(0.18 -0.18)">
       <defs>
        <path id="SimHei-30" d="M 225 2537 
Q 250 3200 412 3587 
Q 575 3975 875 4225 
Q 1175 4475 1612 4475 
Q 2050 4475 2375 4112 
Q 2700 3750 2800 3200 
Q 2900 2650 2862 1937 
Q 2825 1225 2612 775 
Q 2400 325 1975 150 
Q 1550 -25 1125 187 
Q 700 400 525 750 
Q 350 1100 275 1487 
Q 200 1875 225 2537 
z
M 750 2687 
Q 675 2000 800 1462 
Q 925 925 1212 700 
Q 1500 475 1800 612 
Q 2100 750 2237 1162 
Q 2375 1575 2375 2062 
Q 2375 2550 2337 2950 
Q 2300 3350 2112 3675 
Q 1925 4000 1612 4012 
Q 1300 4025 1062 3700 
Q 825 3375 750 2687 
z
" transform="scale(0.015625)"/>
       </defs>
       <use xlink:href="#SimHei-30"/>
      </g>
     </g>
    </g>
    <g id="xtick_2">
     <g id="line2d_3">
      <path d="M 201.6 384.48 
L 201.6 51.84 
" clip-path="url(#p7bb7172154)" style="fill: none; stroke: #b0b0b0; stroke-width: 0.8; stroke-linecap: square"/>
     </g>
     <g id="line2d_4">
      <g>
       <use xlink:href="#m33dc9ba670" x="201.6" y="384.48" style="stroke: #000000; stroke-width: 0.8"/>
      </g>
     </g>
     <g id="text_2">
      <!-- 100 -->
      <g transform="translate(188.1 403.855) scale(0.18 -0.18)">
       <defs>
        <path id="SimHei-31" d="M 1400 3600 
Q 1075 3275 575 2975 
L 575 3450 
Q 1200 3875 1600 4450 
L 1900 4450 
L 1900 150 
L 1400 150 
L 1400 3600 
z
" transform="scale(0.015625)"/>
       </defs>
       <use xlink:href="#SimHei-31"/>
       <use xlink:href="#SimHei-30" x="50"/>
       <use xlink:href="#SimHei-30" x="100"/>
      </g>
     </g>
    </g>
    <g id="xtick_3">
     <g id="line2d_5">
      <path d="M 313.2 384.48 
L 313.2 51.84 
" clip-path="url(#p7bb7172154)" style="fill: none; stroke: #b0b0b0; stroke-width: 0.8; stroke-linecap: square"/>
     </g>
     <g id="line2d_6">
      <g>
       <use xlink:href="#m33dc9ba670" x="313.2" y="384.48" style="stroke: #000000; stroke-width: 0.8"/>
      </g>
     </g>
     <g id="text_3">
      <!-- 200 -->
      <g transform="translate(299.7 403.855) scale(0.18 -0.18)">
       <defs>
        <path id="SimHei-32" d="M 300 250 
Q 325 625 650 925 
Q 975 1225 1475 1862 
Q 1975 2500 2125 2850 
Q 2275 3200 2237 3450 
Q 2200 3700 2000 3862 
Q 1800 4025 1537 4000 
Q 1275 3975 1037 3800 
Q 800 3625 675 3275 
L 200 3350 
Q 400 3925 712 4187 
Q 1025 4450 1450 4475 
Q 1700 4500 1900 4462 
Q 2100 4425 2312 4287 
Q 2525 4150 2662 3875 
Q 2800 3600 2762 3212 
Q 2725 2825 2375 2287 
Q 2025 1750 1025 600 
L 2825 600 
L 2825 150 
L 300 150 
L 300 250 
z
" transform="scale(0.015625)"/>
       </defs>
       <use xlink:href="#SimHei-32"/>
       <use xlink:href="#SimHei-30" x="50"/>
       <use xlink:href="#SimHei-30" x="100"/>
      </g>
     </g>
    </g>
    <g id="xtick_4">
     <g id="line2d_7">
      <path d="M 424.8 384.48 
L 424.8 51.84 
" clip-path="url(#p7bb7172154)" style="fill: none; stroke: #b0b0b0; stroke-width: 0.8; stroke-linecap: square"/>
     </g>
     <g id="line2d_8">
      <g>
       <use xlink:href="#m33dc9ba670" x="424.8" y="384.48" style="stroke: #000000; stroke-width: 0.8"/>
      </g>
     </g>
     <g id="text_4">
      <!-- 300 -->
      <g transform="translate(411.3 403.855) scale(0.18 -0.18)">
       <defs>
        <path id="SimHei-33" d="M 250 1225 
L 700 1300 
Q 800 975 1025 762 
Q 1250 550 1587 562 
Q 1925 575 2125 837 
Q 2325 1100 2300 1437 
Q 2275 1775 2037 1962 
Q 1800 2150 1275 2225 
L 1275 2550 
Q 1800 2600 2037 2825 
Q 2275 3050 2250 3412 
Q 2225 3775 1925 3937 
Q 1625 4100 1287 3975 
Q 950 3850 750 3275 
L 300 3350 
Q 450 3800 712 4100 
Q 975 4400 1425 4450 
Q 1875 4500 2212 4337 
Q 2550 4175 2687 3837 
Q 2825 3500 2725 3100 
Q 2625 2700 2150 2400 
Q 2500 2250 2687 1950 
Q 2875 1650 2812 1162 
Q 2750 675 2375 375 
Q 2000 75 1525 87 
Q 1050 100 700 387 
Q 350 675 250 1225 
z
" transform="scale(0.015625)"/>
       </defs>
       <use xlink:href="#SimHei-33"/>
       <use xlink:href="#SimHei-30" x="50"/>
       <use xlink:href="#SimHei-30" x="100"/>
      </g>
     </g>
    </g>
    <g id="xtick_5">
     <g id="line2d_9">
      <path d="M 536.4 384.48 
L 536.4 51.84 
" clip-path="url(#p7bb7172154)" style="fill: none; stroke: #b0b0b0; stroke-width: 0.8; stroke-linecap: square"/>
     </g>
     <g id="line2d_10">
      <g>
       <use xlink:href="#m33dc9ba670" x="536.4" y="384.48" style="stroke: #000000; stroke-width: 0.8"/>
      </g>
     </g>
     <g id="text_5">
      <!-- 400 -->
      <g transform="translate(522.9 403.855) scale(0.18 -0.18)">
       <defs>
        <path id="SimHei-34" d="M 2000 1100 
L 75 1100 
L 75 1525 
L 2100 4450 
L 2475 4450 
L 2475 1525 
L 3075 1525 
L 3075 1100 
L 2475 1100 
L 2475 150 
L 2000 150 
L 2000 1100 
z
M 2000 1525 
L 2000 3500 
L 600 1525 
L 2000 1525 
z
" transform="scale(0.015625)"/>
       </defs>
       <use xlink:href="#SimHei-34"/>
       <use xlink:href="#SimHei-30" x="50"/>
       <use xlink:href="#SimHei-30" x="100"/>
      </g>
     </g>
    </g>
    <g id="xtick_6">
     <g id="line2d_11">
      <path d="M 648 384.48 
L 648 51.84 
" clip-path="url(#p7bb7172154)" style="fill: none; stroke: #b0b0b0; stroke-width: 0.8; stroke-linecap: square"/>
     </g>
     <g id="line2d_12">
      <g>
       <use xlink:href="#m33dc9ba670" x="648" y="384.48" style="stroke: #000000; stroke-width: 0.8"/>
      </g>
     </g>
     <g id="text_6">
      <!-- 500 -->
      <g transform="translate(634.5 403.855) scale(0.18 -0.18)">
       <defs>
        <path id="SimHei-35" d="M 550 1325 
Q 725 650 1150 575 
Q 1575 500 1837 662 
Q 2100 825 2212 1087 
Q 2325 1350 2312 1675 
Q 2300 2000 2137 2225 
Q 1975 2450 1725 2525 
Q 1475 2600 1162 2525 
Q 850 2450 650 2175 
L 225 2225 
Q 275 2375 700 4375 
L 2675 4375 
L 2675 3925 
L 1075 3925 
Q 950 3250 825 2850 
Q 1200 3025 1525 3012 
Q 1850 3000 2150 2862 
Q 2450 2725 2587 2487 
Q 2725 2250 2787 2012 
Q 2850 1775 2837 1500 
Q 2825 1225 2725 937 
Q 2625 650 2425 462 
Q 2225 275 1937 162 
Q 1650 50 1275 75 
Q 900 100 562 350 
Q 225 600 100 1200 
L 550 1325 
z
" transform="scale(0.015625)"/>
       </defs>
       <use xlink:href="#SimHei-35"/>
       <use xlink:href="#SimHei-30" x="50"/>
       <use xlink:href="#SimHei-30" x="100"/>
      </g>
     </g>
    </g>
    <g id="text_7">
     <!-- 迭代次数 -->
     <g transform="translate(329 426.0425) scale(0.2 -0.2)">
      <defs>
       <path id="SimHei-8fed" d="M 3900 1875 
Q 3600 1350 3287 1012 
Q 2975 675 2450 275 
Q 2350 475 2025 700 
Q 2600 975 3012 1425 
Q 3425 1875 3600 2450 
Q 2350 2450 1950 2425 
L 1950 2900 
Q 2375 2875 3675 2875 
Q 3725 3250 3750 3775 
L 2800 3775 
Q 2675 3450 2550 3175 
Q 2300 3300 2075 3350 
Q 2275 3675 2425 4112 
Q 2575 4550 2700 5100 
Q 2850 5000 3225 4925 
Q 3075 4725 2950 4200 
L 3750 4200 
Q 3750 4850 3700 5250 
L 4275 5225 
Q 4225 4925 4200 4200 
L 4950 4200 
Q 5175 4200 5575 4225 
L 5575 3725 
Q 5175 3775 4875 3775 
L 4200 3775 
Q 4175 3250 4125 2875 
L 5150 2875 
Q 5475 2875 5925 2900 
L 5925 2425 
Q 5475 2450 5075 2450 
L 4100 2450 
L 4050 2300 
Q 4650 1775 5725 700 
Q 5600 650 5275 300 
Q 4775 975 3900 1875 
z
M 1550 2950 
L 1550 625 
Q 2200 -25 3712 -12 
Q 5225 0 6125 100 
Q 5950 -225 5900 -475 
L 3575 -475 
Q 2975 -475 2525 -387 
Q 2075 -300 1725 -50 
Q 1375 200 1162 12 
Q 950 -175 650 -550 
Q 500 -350 250 -175 
Q 775 275 1075 575 
L 1075 2525 
Q 750 2525 350 2500 
L 350 2975 
Q 775 2950 1075 2950 
L 1550 2950 
z
M 1125 5025 
Q 1525 4275 1675 3900 
Q 1450 3875 1175 3650 
Q 950 4275 650 4750 
Q 900 4850 1125 5025 
z
" transform="scale(0.015625)"/>
       <path id="SimHei-4ee3" d="M 3300 2950 
Q 3175 4575 3150 5100 
Q 3300 5075 3725 5025 
Q 3675 4725 3800 3050 
Q 5000 3275 5650 3475 
L 5775 3000 
Q 5500 2975 3850 2625 
Q 4150 1050 4737 450 
Q 5325 -150 5412 125 
Q 5500 400 5525 725 
Q 5800 550 6075 500 
Q 5900 -200 5737 -425 
Q 5575 -650 5137 -500 
Q 4700 -350 4187 300 
Q 3675 950 3350 2525 
Q 2400 2325 2175 2250 
L 2025 2725 
Q 2425 2775 3300 2950 
z
M 2250 4975 
Q 2100 4725 1700 3650 
L 1700 475 
Q 1700 -50 1725 -600 
L 1200 -600 
Q 1225 -50 1225 475 
L 1225 2750 
Q 850 2150 600 1850 
Q 450 2050 225 2225 
Q 625 2600 1050 3425 
Q 1475 4250 1675 5200 
Q 2050 5025 2250 4975 
z
M 4700 4875 
Q 5150 4325 5325 4050 
Q 5100 3900 4875 3725 
Q 4650 4150 4300 4575 
Q 4500 4700 4700 4875 
z
" transform="scale(0.015625)"/>
       <path id="SimHei-6b21" d="M 4150 3025 
Q 4000 2550 4050 2187 
Q 4100 1825 4275 1450 
Q 4450 1075 4800 750 
Q 5150 425 5475 212 
Q 5800 0 6150 -150 
Q 5875 -350 5750 -625 
Q 5250 -325 4887 -25 
Q 4525 275 4275 612 
Q 4025 950 3825 1425 
Q 3525 625 2950 125 
Q 2375 -375 1850 -650 
Q 1675 -400 1475 -225 
Q 2025 0 2487 362 
Q 2950 725 3162 1100 
Q 3375 1475 3450 1825 
Q 3525 2175 3537 2400 
Q 3550 2625 3525 3125 
Q 3825 3050 4150 3025 
z
M 3700 4975 
Q 3625 4900 3475 4575 
Q 3325 4250 3250 4075 
L 5775 4075 
Q 5650 3725 5550 3362 
Q 5450 3000 5275 2500 
Q 5000 2575 4775 2600 
Q 5025 3350 5100 3650 
L 3100 3650 
Q 2975 3400 2812 3100 
Q 2650 2800 2425 2450 
Q 2275 2600 1975 2700 
Q 2300 3050 2625 3762 
Q 2950 4475 3125 5200 
Q 3450 5025 3700 4975 
z
M 2025 2000 
Q 1825 1675 1475 1087 
Q 1125 500 725 -200 
Q 500 -25 250 175 
Q 725 725 1037 1262 
Q 1350 1800 1575 2325 
Q 1750 2175 2025 2000 
z
M 900 4750 
Q 1725 3725 1950 3375 
Q 1750 3250 1500 3050 
Q 1250 3525 500 4425 
Q 700 4575 900 4750 
z
" transform="scale(0.015625)"/>
       <path id="SimHei-6570" d="M 4525 4925 
Q 4475 4800 4400 4587 
Q 4325 4375 4175 3825 
L 5325 3825 
Q 5575 3825 5925 3850 
L 5925 3400 
Q 5650 3425 5500 3425 
Q 5500 3025 5362 2162 
Q 5225 1300 4875 675 
Q 5125 375 5437 137 
Q 5750 -100 6025 -200 
Q 5725 -425 5625 -625 
Q 5325 -450 5075 -225 
Q 4825 0 4575 325 
Q 4300 25 3987 -187 
Q 3675 -400 3200 -650 
Q 3075 -425 2850 -300 
Q 3225 -150 3650 125 
Q 4075 400 4300 675 
Q 4125 1025 3962 1425 
Q 3800 1825 3675 2475 
Q 3600 2275 3425 1950 
Q 3250 2050 3000 2150 
Q 3400 2850 3650 3675 
Q 3900 4500 3975 5100 
Q 4275 4975 4525 4925 
z
M 2100 2250 
Q 2000 2150 1875 1925 
L 3250 1925 
Q 3100 1300 2725 675 
Q 3125 525 3350 400 
Q 3225 225 3125 25 
Q 2900 175 2450 325 
Q 1950 -225 725 -650 
Q 600 -375 400 -275 
Q 1575 0 2000 475 
Q 1300 650 850 775 
Q 1000 1000 1250 1525 
Q 1000 1525 425 1500 
L 425 1950 
Q 900 1925 1400 1925 
Q 1500 2150 1550 2425 
Q 1825 2325 2100 2250 
z
M 1775 3950 
Q 1775 4550 1750 5100 
L 2250 5100 
Q 2225 4575 2225 3950 
Q 3075 3950 3425 3975 
L 3425 3525 
Q 3075 3550 2225 3550 
Q 2225 2825 2250 2425 
L 1750 2425 
Q 1775 2775 1775 3300 
Q 1650 3100 1300 2787 
Q 950 2475 650 2300 
Q 525 2525 275 2625 
Q 500 2700 875 2975 
Q 1250 3250 1450 3550 
Q 950 3550 500 3525 
L 500 3975 
Q 925 3950 1775 3950 
z
M 3975 3175 
Q 4200 1700 4600 1125 
Q 4850 1700 4937 2287 
Q 5025 2875 5050 3425 
L 4075 3425 
L 3975 3175 
z
M 1450 1000 
Q 1750 925 2275 800 
Q 2475 1050 2650 1525 
L 1725 1525 
Q 1600 1275 1450 1000 
z
M 3325 4825 
Q 3200 4625 3125 4450 
Q 3050 4275 2925 4025 
Q 2725 4125 2525 4175 
Q 2725 4500 2900 5000 
Q 3150 4875 3325 4825 
z
M 2575 3375 
Q 2900 3050 3200 2725 
Q 3050 2600 2875 2425 
Q 2525 2850 2300 3100 
Q 2450 3225 2575 3375 
z
M 925 5000 
Q 1275 4650 1500 4300 
L 1125 4075 
Q 950 4425 600 4725 
Q 825 4875 925 5000 
z
" transform="scale(0.015625)"/>
      </defs>
      <use xlink:href="#SimHei-8fed"/>
      <use xlink:href="#SimHei-4ee3" x="100"/>
      <use xlink:href="#SimHei-6b21" x="200"/>
      <use xlink:href="#SimHei-6570" x="300"/>
     </g>
    </g>
   </g>
   <g id="matplotlib.axis_2">
    <g id="ytick_1">
     <g id="line2d_13">
      <path d="M 90 365.102144 
L 648 365.102144 
" clip-path="url(#p7bb7172154)" style="fill: none; stroke: #b0b0b0; stroke-width: 0.8; stroke-linecap: square"/>
     </g>
     <g id="line2d_14">
      <defs>
       <path id="mdb540d9002" d="M 0 0 
L -3.5 0 
" style="stroke: #000000; stroke-width: 0.8"/>
      </defs>
      <g>
       <use xlink:href="#mdb540d9002" x="90" y="365.102144" style="stroke: #000000; stroke-width: 0.8"/>
      </g>
     </g>
     <g id="text_8">
      <!-- 640 -->
      <g transform="translate(56 371.289644) scale(0.18 -0.18)">
       <defs>
        <path id="SimHei-36" d="M 250 1612 
Q 275 1975 387 2225 
Q 500 2475 725 2850 
L 1750 4450 
L 2325 4450 
L 1275 2800 
Q 1950 2975 2350 2750 
Q 2750 2525 2887 2237 
Q 3025 1950 3037 1612 
Q 3050 1275 2937 950 
Q 2825 625 2537 362 
Q 2250 100 1737 75 
Q 1225 50 862 262 
Q 500 475 362 862 
Q 225 1250 250 1612 
z
M 1025 787 
Q 1250 550 1625 525 
Q 2000 500 2250 775 
Q 2500 1050 2500 1575 
Q 2500 2100 2187 2300 
Q 1875 2500 1487 2450 
Q 1100 2400 925 2075 
Q 750 1750 775 1387 
Q 800 1025 1025 787 
z
" transform="scale(0.015625)"/>
       </defs>
       <use xlink:href="#SimHei-36"/>
       <use xlink:href="#SimHei-34" x="50"/>
       <use xlink:href="#SimHei-30" x="100"/>
      </g>
     </g>
    </g>
    <g id="ytick_2">
     <g id="line2d_15">
      <path d="M 90 312.699655 
L 648 312.699655 
" clip-path="url(#p7bb7172154)" style="fill: none; stroke: #b0b0b0; stroke-width: 0.8; stroke-linecap: square"/>
     </g>
     <g id="line2d_16">
      <g>
       <use xlink:href="#mdb540d9002" x="90" y="312.699655" style="stroke: #000000; stroke-width: 0.8"/>
      </g>
     </g>
     <g id="text_9">
      <!-- 660 -->
      <g transform="translate(56 318.887155) scale(0.18 -0.18)">
       <use xlink:href="#SimHei-36"/>
       <use xlink:href="#SimHei-36" x="50"/>
       <use xlink:href="#SimHei-30" x="100"/>
      </g>
     </g>
    </g>
    <g id="ytick_3">
     <g id="line2d_17">
      <path d="M 90 260.297166 
L 648 260.297166 
" clip-path="url(#p7bb7172154)" style="fill: none; stroke: #b0b0b0; stroke-width: 0.8; stroke-linecap: square"/>
     </g>
     <g id="line2d_18">
      <g>
       <use xlink:href="#mdb540d9002" x="90" y="260.297166" style="stroke: #000000; stroke-width: 0.8"/>
      </g>
     </g>
     <g id="text_10">
      <!-- 680 -->
      <g transform="translate(56 266.484666) scale(0.18 -0.18)">
       <defs>
        <path id="SimHei-38" d="M 175 1375 
Q 175 1675 325 1962 
Q 475 2250 825 2425 
Q 525 2600 425 2812 
Q 325 3025 312 3300 
Q 300 3575 387 3775 
Q 475 3975 650 4150 
Q 825 4325 1037 4387 
Q 1250 4450 1500 4450 
Q 1750 4450 1950 4400 
Q 2150 4350 2375 4187 
Q 2600 4025 2700 3725 
Q 2800 3425 2687 3025 
Q 2575 2625 2100 2400 
Q 2525 2275 2700 2012 
Q 2875 1750 2875 1375 
Q 2875 1000 2762 775 
Q 2650 550 2512 400 
Q 2375 250 2137 162 
Q 1900 75 1537 75 
Q 1175 75 912 162 
Q 650 250 475 425 
Q 300 600 237 837 
Q 175 1075 175 1375 
z
M 687 1400 
Q 675 1100 787 875 
Q 900 650 1200 587 
Q 1500 525 1825 600 
Q 2150 675 2275 950 
Q 2400 1225 2362 1500 
Q 2325 1775 2050 1962 
Q 1775 2150 1450 2125 
Q 1125 2100 912 1900 
Q 700 1700 687 1400 
z
M 775 3350 
Q 775 3100 950 2875 
Q 1125 2650 1500 2650 
Q 1875 2650 2062 2875 
Q 2250 3100 2237 3412 
Q 2225 3725 2012 3875 
Q 1800 4025 1437 4000 
Q 1075 3975 925 3787 
Q 775 3600 775 3350 
z
" transform="scale(0.015625)"/>
       </defs>
       <use xlink:href="#SimHei-36"/>
       <use xlink:href="#SimHei-38" x="50"/>
       <use xlink:href="#SimHei-30" x="100"/>
      </g>
     </g>
    </g>
    <g id="ytick_4">
     <g id="line2d_19">
      <path d="M 90 207.894677 
L 648 207.894677 
" clip-path="url(#p7bb7172154)" style="fill: none; stroke: #b0b0b0; stroke-width: 0.8; stroke-linecap: square"/>
     </g>
     <g id="line2d_20">
      <g>
       <use xlink:href="#mdb540d9002" x="90" y="207.894677" style="stroke: #000000; stroke-width: 0.8"/>
      </g>
     </g>
     <g id="text_11">
      <!-- 700 -->
      <g transform="translate(56 214.082177) scale(0.18 -0.18)">
       <defs>
        <path id="SimHei-37" d="M 850 150 
Q 1300 2050 2425 3925 
L 275 3925 
L 275 4375 
L 2950 4375 
L 2950 3950 
Q 1775 2050 1400 150 
L 850 150 
z
" transform="scale(0.015625)"/>
       </defs>
       <use xlink:href="#SimHei-37"/>
       <use xlink:href="#SimHei-30" x="50"/>
       <use xlink:href="#SimHei-30" x="100"/>
      </g>
     </g>
    </g>
    <g id="ytick_5">
     <g id="line2d_21">
      <path d="M 90 155.492189 
L 648 155.492189 
" clip-path="url(#p7bb7172154)" style="fill: none; stroke: #b0b0b0; stroke-width: 0.8; stroke-linecap: square"/>
     </g>
     <g id="line2d_22">
      <g>
       <use xlink:href="#mdb540d9002" x="90" y="155.492189" style="stroke: #000000; stroke-width: 0.8"/>
      </g>
     </g>
     <g id="text_12">
      <!-- 720 -->
      <g transform="translate(56 161.679689) scale(0.18 -0.18)">
       <use xlink:href="#SimHei-37"/>
       <use xlink:href="#SimHei-32" x="50"/>
       <use xlink:href="#SimHei-30" x="100"/>
      </g>
     </g>
    </g>
    <g id="ytick_6">
     <g id="line2d_23">
      <path d="M 90 103.0897 
L 648 103.0897 
" clip-path="url(#p7bb7172154)" style="fill: none; stroke: #b0b0b0; stroke-width: 0.8; stroke-linecap: square"/>
     </g>
     <g id="line2d_24">
      <g>
       <use xlink:href="#mdb540d9002" x="90" y="103.0897" style="stroke: #000000; stroke-width: 0.8"/>
      </g>
     </g>
     <g id="text_13">
      <!-- 740 -->
      <g transform="translate(56 109.2772) scale(0.18 -0.18)">
       <use xlink:href="#SimHei-37"/>
       <use xlink:href="#SimHei-34" x="50"/>
       <use xlink:href="#SimHei-30" x="100"/>
      </g>
     </g>
    </g>
    <g id="text_14">
     <!-- 平均吞吐量（bits） -->
     <g transform="translate(49.5 308.16) rotate(-90) scale(0.2 -0.2)">
      <defs>
       <path id="SimHei-5e73" d="M 4525 4825 
Q 4900 4825 5450 4850 
L 5450 4375 
Q 4925 4400 4525 4400 
L 3475 4400 
L 3475 2025 
L 5000 2025 
Q 5550 2025 6025 2050 
L 6025 1575 
Q 5550 1600 5000 1600 
L 3475 1600 
L 3475 450 
Q 3475 -100 3500 -600 
L 2925 -600 
Q 2950 -100 2950 450 
L 2950 1600 
L 1125 1600 
Q 775 1600 375 1575 
L 375 2050 
Q 775 2025 1175 2025 
L 2950 2025 
L 2950 4400 
L 1775 4400 
Q 1400 4400 875 4375 
L 875 4850 
Q 1400 4825 1750 4825 
L 4525 4825 
z
M 3925 2600 
Q 4500 3300 4900 4125 
Q 5150 3950 5400 3825 
Q 4775 2850 4350 2300 
Q 4150 2475 3925 2600 
z
M 1975 2350 
Q 1600 3100 1050 3725 
Q 1250 3875 1450 4050 
Q 2075 3300 2450 2725 
Q 2150 2500 1975 2350 
z
" transform="scale(0.015625)"/>
       <path id="SimHei-5747" d="M 5775 275 
Q 5775 -325 5362 -450 
Q 4950 -575 4425 -600 
Q 4375 -275 4250 25 
Q 4950 -25 5125 62 
Q 5300 150 5300 500 
L 5375 3700 
L 3550 3700 
Q 3425 3375 3262 3037 
Q 3100 2700 2925 2400 
Q 2675 2550 2475 2625 
Q 3150 3625 3500 5200 
Q 3800 5100 4075 5025 
Q 3975 4875 3875 4650 
Q 3775 4425 3675 4125 
L 5900 4125 
L 5775 275 
z
M 1250 3625 
L 1250 4375 
Q 1250 4775 1225 5100 
L 1775 5100 
Q 1750 4725 1750 4375 
L 1750 3625 
L 1900 3625 
Q 2200 3625 2525 3650 
L 2525 3150 
Q 2200 3175 1900 3175 
L 1750 3175 
L 1750 1100 
L 2500 1375 
Q 2475 1125 2525 900 
Q 1225 475 962 362 
Q 700 250 475 150 
Q 375 475 250 750 
Q 575 800 800 850 
Q 1025 900 1250 975 
L 1250 3175 
L 1125 3175 
Q 850 3175 400 3150 
L 400 3650 
Q 850 3625 1100 3625 
L 1250 3625 
z
M 4950 1625 
Q 4675 1425 4137 1050 
Q 3600 675 3175 300 
Q 3000 575 2850 775 
Q 3350 1050 3762 1325 
Q 4175 1600 4775 2075 
Q 4825 1850 4950 1625 
z
M 3775 3150 
Q 4125 2800 4475 2300 
Q 4250 2125 4100 1975 
Q 3900 2325 3450 2825 
Q 3600 3000 3775 3150 
z
" transform="scale(0.015625)"/>
       <path id="SimHei-541e" d="M 4425 4975 
Q 4800 4975 5250 5000 
L 5250 4525 
Q 4800 4550 4425 4550 
L 3300 4550 
Q 3275 4150 3175 3675 
L 4975 3675 
Q 5450 3675 5850 3700 
L 5850 3225 
Q 5475 3250 4975 3250 
L 4075 3250 
Q 4200 2900 4675 2512 
Q 5150 2125 6200 1975 
Q 6000 1800 5875 1425 
Q 5550 1475 4975 1800 
Q 4950 1450 4950 650 
Q 4950 -150 4975 -575 
L 4450 -575 
L 4450 -75 
L 2050 -75 
L 2050 -600 
L 1525 -600 
Q 1550 -200 1550 550 
L 1550 1600 
Q 1125 1350 750 1175 
Q 675 1400 300 1625 
Q 750 1725 1400 2112 
Q 2050 2500 2500 3250 
L 1300 3250 
Q 925 3250 525 3225 
L 525 3700 
Q 925 3675 1300 3675 
L 2675 3675 
Q 2775 4125 2800 4550 
L 2025 4550 
Q 1525 4550 1125 4525 
L 1125 5000 
Q 1525 4975 2000 4975 
L 4425 4975 
z
M 4450 350 
L 4450 1450 
L 2050 1450 
L 2050 350 
L 4450 350 
z
M 4725 1900 
Q 4025 2275 3550 3250 
L 3050 3250 
Q 2625 2425 1925 1900 
L 4725 1900 
z
" transform="scale(0.015625)"/>
       <path id="SimHei-5410" d="M 2425 4250 
Q 2400 3775 2400 3275 
L 2400 1250 
Q 2400 800 2425 475 
L 1925 475 
L 1925 950 
L 950 950 
L 950 -25 
L 425 -25 
Q 425 450 450 925 
L 450 3275 
Q 450 3775 425 4250 
L 2425 4250 
z
M 4000 3225 
L 4000 4350 
Q 4000 4875 3925 5100 
L 4550 5100 
Q 4500 4825 4500 4350 
L 4500 3225 
L 5000 3225 
Q 5450 3225 5750 3250 
L 5750 2775 
Q 5475 2800 5025 2800 
L 4500 2800 
L 4500 150 
L 5300 150 
Q 5750 150 6100 175 
L 6100 -300 
Q 5775 -275 5325 -275 
L 3275 -275 
Q 2775 -275 2400 -300 
L 2400 175 
Q 2775 150 3275 150 
L 4000 150 
L 4000 2800 
L 3550 2800 
Q 3100 2800 2725 2775 
L 2725 3250 
Q 3100 3225 3550 3225 
L 4000 3225 
z
M 1925 1375 
L 1925 3825 
L 950 3825 
L 950 1375 
L 1925 1375 
z
" transform="scale(0.015625)"/>
       <path id="SimHei-91cf" d="M 5250 2500 
Q 5225 2200 5225 1700 
Q 5225 1225 5250 950 
L 3425 950 
L 3425 625 
L 4575 625 
Q 5000 625 5375 650 
L 5375 275 
Q 5025 300 4575 300 
L 3425 300 
L 3425 -75 
L 5125 -75 
Q 5525 -75 5925 -50 
L 5925 -425 
Q 5525 -400 5125 -400 
L 1275 -400 
Q 900 -400 475 -425 
L 475 -50 
Q 925 -50 1275 -75 
L 2975 -75 
L 2975 300 
L 1725 300 
Q 1350 300 975 250 
L 975 650 
Q 1375 625 1725 625 
L 2975 625 
L 2975 950 
L 1150 950 
Q 1175 1375 1175 1775 
Q 1175 2175 1150 2500 
L 5250 2500 
z
M 5200 4950 
Q 5175 4575 5175 4250 
Q 5175 3925 5200 3400 
L 1200 3400 
Q 1225 3925 1225 4250 
Q 1225 4575 1200 4950 
L 5200 4950 
z
M 4900 3100 
Q 5500 3125 6000 3150 
L 6000 2750 
Q 5500 2775 4925 2775 
L 1650 2775 
Q 975 2775 325 2750 
L 325 3150 
Q 975 3125 1650 3100 
L 4900 3100 
z
M 4725 3700 
L 4725 4025 
L 1675 4025 
L 1675 3700 
L 4725 3700 
z
M 4725 4350 
L 4725 4650 
L 1675 4650 
L 1675 4350 
L 4725 4350 
z
M 4750 1875 
L 4750 2175 
L 3425 2175 
L 3425 1875 
L 4750 1875 
z
M 2975 1875 
L 2975 2175 
L 1650 2175 
L 1650 1875 
L 2975 1875 
z
M 2975 1275 
L 2975 1550 
L 1650 1550 
L 1650 1275 
L 2975 1275 
z
M 4750 1275 
L 4750 1550 
L 3425 1550 
L 3425 1275 
L 4750 1275 
z
" transform="scale(0.015625)"/>
       <path id="SimHei-ff08" d="M 5425 5100 
L 5700 4775 
Q 4275 3725 4325 2350 
Q 4350 1025 5675 50 
L 5400 -275 
Q 3875 825 3925 2500 
Q 3925 3875 5425 5100 
z
" transform="scale(0.015625)"/>
       <path id="SimHei-62" d="M 2825 1525 
Q 2825 800 2475 437 
Q 2125 75 1625 75 
Q 1350 75 1150 175 
Q 950 275 800 500 
L 800 125 
L 300 125 
L 300 4400 
L 800 4400 
L 800 2550 
Q 950 2775 1150 2887 
Q 1350 3000 1625 3000 
Q 2125 3000 2475 2625 
Q 2825 2250 2825 1525 
z
M 2275 1525 
Q 2275 2000 2087 2275 
Q 1900 2550 1525 2550 
Q 1225 2550 1012 2275 
Q 800 2000 800 1525 
Q 800 1050 1012 787 
Q 1225 525 1525 525 
Q 1900 525 2087 787 
Q 2275 1050 2275 1525 
z
" transform="scale(0.015625)"/>
       <path id="SimHei-69" d="M 1800 3725 
L 1300 3725 
L 1300 4375 
L 1800 4375 
L 1800 3725 
z
M 1800 125 
L 1300 125 
L 1300 2925 
L 1800 2925 
L 1800 125 
z
" transform="scale(0.015625)"/>
       <path id="SimHei-74" d="M 2750 200 
Q 2625 150 2462 112 
Q 2300 75 2025 75 
Q 1575 75 1300 325 
Q 1025 575 1025 1025 
L 1025 2525 
L 175 2525 
L 175 2925 
L 1025 2925 
L 1025 3900 
L 1525 3900 
L 1525 2925 
L 2550 2925 
L 2550 2525 
L 1525 2525 
L 1525 1000 
Q 1525 800 1625 662 
Q 1725 525 2000 525 
Q 2275 525 2450 575 
Q 2625 625 2750 700 
L 2750 200 
z
" transform="scale(0.015625)"/>
       <path id="SimHei-73" d="M 2750 900 
Q 2750 500 2437 287 
Q 2125 75 1650 75 
Q 1050 75 725 312 
Q 400 550 400 1000 
L 900 1000 
Q 900 700 1112 600 
Q 1325 500 1625 500 
Q 1925 500 2075 612 
Q 2225 725 2225 900 
Q 2225 1025 2100 1150 
Q 1975 1275 1475 1350 
Q 900 1425 687 1637 
Q 475 1850 475 2200 
Q 475 2500 762 2737 
Q 1050 2975 1600 2975 
Q 2100 2975 2387 2750 
Q 2675 2525 2675 2150 
L 2175 2150 
Q 2175 2375 2012 2462 
Q 1850 2550 1600 2550 
Q 1275 2550 1137 2437 
Q 1000 2325 1000 2175 
Q 1000 2000 1125 1900 
Q 1250 1800 1650 1750 
Q 2300 1650 2525 1437 
Q 2750 1225 2750 900 
z
" transform="scale(0.015625)"/>
       <path id="SimHei-ff09" d="M 1000 5100 
Q 2500 3875 2500 2500 
Q 2550 825 1025 -275 
L 750 50 
Q 2075 1025 2100 2350 
Q 2150 3725 725 4775 
L 1000 5100 
z
" transform="scale(0.015625)"/>
      </defs>
      <use xlink:href="#SimHei-5e73"/>
      <use xlink:href="#SimHei-5747" x="100"/>
      <use xlink:href="#SimHei-541e" x="200"/>
      <use xlink:href="#SimHei-5410" x="300"/>
      <use xlink:href="#SimHei-91cf" x="400"/>
      <use xlink:href="#SimHei-ff08" x="500"/>
      <use xlink:href="#SimHei-62" x="600"/>
      <use xlink:href="#SimHei-69" x="650"/>
      <use xlink:href="#SimHei-74" x="700"/>
      <use xlink:href="#SimHei-73" x="750"/>
      <use xlink:href="#SimHei-ff09" x="800"/>
     </g>
    </g>
   </g>
   <g id="line2d_25">
    <path d="M 90 171.032043 
L 646.884 171.032043 
L 646.884 171.032043 
" clip-path="url(#p7bb7172154)" style="fill: none; stroke-dasharray: 7.4,3.2; stroke-dashoffset: 0; stroke: #0000ff; stroke-width: 2"/>
   </g>
   <g id="line2d_26">
    <path d="M 90 243.967702 
L 91.116 203.624982 
L 92.232 239.265611 
L 93.348 197.960945 
L 94.464 206.708141 
L 95.58 200.529401 
L 96.696 211.635659 
L 97.812 204.582 
L 98.928 199.392615 
L 100.044 174.276309 
L 102.276 155.515143 
L 103.392 180.528793 
L 104.508 236.225429 
L 105.624 199.10007 
L 106.74 205.89137 
L 107.856 228.155116 
L 108.972 244.025306 
L 110.088 252.399428 
L 111.204 369.36 
L 112.32 230.361753 
L 113.436 207.63635 
L 114.552 270.534643 
L 115.668 208.817086 
L 116.784 253.200802 
L 117.9 305.856539 
L 119.016 239.655555 
L 120.132 257.30785 
L 121.248 228.365126 
L 122.364 217.824509 
L 123.48 248.493968 
L 124.596 230.038255 
L 125.712 209.083868 
L 126.828 208.234321 
L 127.944 236.031539 
L 129.06 235.10831 
L 130.176 270.417349 
L 131.292 234.321981 
L 132.408 253.934107 
L 133.524 239.269632 
L 134.64 245.131269 
L 135.756 256.468277 
L 136.872 257.352244 
L 139.104 230.277465 
L 140.22 253.840234 
L 141.336 269.71833 
L 142.452 249.322279 
L 143.568 247.382069 
L 144.684 247.530928 
L 145.8 220.244939 
L 146.916 305.121363 
L 148.032 248.18556 
L 149.148 243.072217 
L 150.264 244.290583 
L 151.38 254.169244 
L 152.496 257.615107 
L 153.612 243.817298 
L 154.728 228.452147 
L 155.844 269.402451 
L 156.96 242.071366 
L 158.076 254.292534 
L 159.192 249.346734 
L 160.308 246.529812 
L 161.424 232.354799 
L 162.54 228.829833 
L 163.656 215.969988 
L 164.772 240.815562 
L 165.888 219.838816 
L 167.004 215.576238 
L 168.12 232.0141 
L 169.236 229.423986 
L 170.352 207.840229 
L 171.468 243.147134 
L 172.584 220.821288 
L 173.7 222.898669 
L 174.816 246.416897 
L 175.932 229.782152 
L 177.048 221.136854 
L 178.164 228.804819 
L 179.28 217.514966 
L 180.396 207.880528 
L 181.512 215.951717 
L 182.628 234.050531 
L 183.744 212.469448 
L 184.86 211.166016 
L 185.976 213.069287 
L 187.092 218.55759 
L 188.208 200.187354 
L 189.324 190.431636 
L 190.44 192.94512 
L 191.556 218.274119 
L 192.672 208.714509 
L 193.788 207.242221 
L 194.904 185.200575 
L 196.02 199.004004 
L 197.136 202.571035 
L 198.252 190.09989 
L 199.368 184.173495 
L 200.484 208.213327 
L 201.6 217.755209 
L 202.716 179.155834 
L 203.832 178.692034 
L 204.948 191.146447 
L 206.064 198.310621 
L 207.18 185.428995 
L 208.296 163.329089 
L 209.412 176.337601 
L 210.528 166.799924 
L 211.644 167.404579 
L 212.76 155.622415 
L 213.876 170.897659 
L 214.992 160.85592 
L 216.108 171.422721 
L 217.224 165.80515 
L 218.34 158.16175 
L 219.456 166.864674 
L 220.572 166.583817 
L 221.688 165.5006 
L 222.804 163.177875 
L 223.92 162.838395 
L 225.036 158.099578 
L 226.152 155.999894 
L 227.268 153.08555 
L 228.384 153.007869 
L 229.5 154.953028 
L 230.616 155.347246 
L 231.732 156.274273 
L 232.848 156.512585 
L 233.964 159.116882 
L 235.08 154.911503 
L 236.196 147.705204 
L 237.312 144.735217 
L 238.428 140.073704 
L 239.544 148.647446 
L 240.66 150.162661 
L 241.776 144.970768 
L 242.892 147.830281 
L 244.008 139.147722 
L 245.124 142.724273 
L 246.24 134.997123 
L 247.356 144.485856 
L 248.472 136.476498 
L 249.588 144.788768 
L 250.704 144.161642 
L 251.82 134.308895 
L 252.936 140.994543 
L 254.052 136.377641 
L 255.168 144.756158 
L 256.284 126.90355 
L 257.4 139.114252 
L 258.516 129.300585 
L 259.632 136.890064 
L 262.98 126.52438 
L 264.096 135.592992 
L 265.212 132.876245 
L 266.328 136.56782 
L 267.444 126.874231 
L 268.56 128.040606 
L 269.676 126.187652 
L 271.908 119.558317 
L 273.024 122.285467 
L 274.14 123.387742 
L 275.256 120.429573 
L 276.372 120.310234 
L 277.488 121.297087 
L 278.604 135.98941 
L 279.72 122.181067 
L 280.836 125.052787 
L 283.068 124.729342 
L 284.184 131.950378 
L 285.3 120.901203 
L 287.532 130.79994 
L 288.648 131.562767 
L 289.764 122.526199 
L 290.88 118.886602 
L 291.996 121.767488 
L 293.112 117.86566 
L 294.228 131.364907 
L 295.344 119.830218 
L 296.46 116.771638 
L 297.576 120.003434 
L 298.692 132.430618 
L 299.808 125.702643 
L 300.924 122.025501 
L 302.04 113.82478 
L 303.156 117.469022 
L 304.272 118.512711 
L 305.388 109.681027 
L 306.504 122.507714 
L 307.62 125.076028 
L 308.736 112.196063 
L 309.852 105.093345 
L 310.968 113.179915 
L 312.084 107.552465 
L 313.2 112.873534 
L 314.316 110.964043 
L 315.432 103.049966 
L 316.548 117.465927 
L 317.664 107.736193 
L 318.78 119.269127 
L 319.896 106.677566 
L 321.012 104.07207 
L 322.128 104.722094 
L 323.244 108.145245 
L 324.36 123.586051 
L 325.476 105.946783 
L 326.592 105.011763 
L 327.708 104.504288 
L 328.824 110.734232 
L 329.94 106.087608 
L 331.056 112.834672 
L 332.172 103.80604 
L 333.288 117.813345 
L 334.404 116.684356 
L 335.52 101.713951 
L 336.636 99.416754 
L 337.752 99.611093 
L 338.868 125.279655 
L 339.984 105.235966 
L 341.1 100.076943 
L 342.216 101.688606 
L 343.332 96.402041 
L 344.448 95.807433 
L 345.564 112.872132 
L 346.68 96.758753 
L 347.796 101.505746 
L 348.912 103.744734 
L 350.028 100.414782 
L 351.144 104.334734 
L 353.376 98.494037 
L 354.492 106.083973 
L 355.608 105.754751 
L 356.724 96.822308 
L 357.84 96.257715 
L 358.956 97.633893 
L 360.072 100.568034 
L 361.188 106.153362 
L 362.304 106.432518 
L 363.42 93.793814 
L 364.536 96.635885 
L 365.652 102.271324 
L 366.768 92.558668 
L 367.884 100.839375 
L 369 104.85682 
L 370.116 97.747929 
L 371.232 105.012651 
L 372.348 106.02972 
L 373.464 105.140391 
L 374.58 113.255981 
L 375.696 97.118508 
L 376.812 95.228481 
L 377.928 97.872943 
L 379.044 95.0486 
L 380.16 94.555995 
L 382.392 107.920608 
L 383.508 98.732569 
L 384.624 91.319331 
L 385.74 96.548413 
L 386.856 93.430187 
L 387.972 92.793379 
L 389.088 93.788982 
L 390.204 101.205176 
L 391.32 91.224256 
L 392.436 100.346262 
L 393.552 99.563299 
L 394.668 94.652342 
L 395.784 97.134404 
L 396.9 98.700375 
L 398.016 99.7097 
L 399.132 87.861749 
L 400.248 97.070519 
L 403.596 91.705134 
L 404.712 91.976957 
L 405.828 97.317387 
L 406.944 93.928404 
L 408.06 94.40386 
L 409.176 90.068812 
L 410.292 97.134947 
L 411.408 97.279985 
L 412.524 89.565538 
L 413.64 102.711284 
L 414.756 96.926613 
L 415.872 97.762426 
L 416.988 93.518363 
L 418.104 97.388686 
L 419.22 87.483105 
L 420.336 95.086099 
L 421.452 86.964555 
L 422.568 92.945508 
L 423.684 94.170539 
L 424.8 85.356273 
L 425.916 92.463466 
L 427.032 89.307033 
L 428.148 94.833866 
L 429.264 95.721888 
L 430.38 94.429369 
L 431.496 96.929549 
L 432.612 92.78274 
L 433.728 95.599512 
L 434.844 103.812031 
L 435.96 93.225423 
L 437.076 93.383884 
L 438.192 92.604468 
L 439.308 86.784062 
L 440.424 89.426503 
L 441.54 86.599468 
L 442.656 95.875588 
L 443.772 86.348053 
L 444.888 94.322497 
L 446.004 87.668974 
L 447.12 91.386397 
L 448.236 98.577092 
L 449.352 94.128762 
L 450.468 96.871934 
L 451.584 91.225969 
L 452.7 87.867916 
L 453.816 88.825673 
L 454.932 89.245915 
L 456.048 85.224439 
L 457.164 82.943162 
L 458.28 85.691571 
L 459.396 82.996554 
L 460.512 86.264683 
L 461.628 87.211005 
L 462.744 94.179545 
L 463.86 84.27632 
L 464.976 84.96449 
L 466.092 90.136681 
L 467.208 86.625173 
L 468.324 85.635354 
L 469.44 90.370393 
L 470.556 82.231448 
L 471.672 82.414185 
L 472.788 96.414052 
L 473.904 84.086369 
L 475.02 82.686407 
L 476.136 87.268188 
L 477.252 86.964989 
L 478.368 94.28804 
L 479.484 91.868182 
L 480.6 84.533511 
L 481.716 87.084888 
L 482.832 94.056146 
L 483.948 89.446192 
L 485.064 92.986891 
L 486.18 85.285665 
L 487.296 89.075708 
L 488.412 87.197017 
L 489.528 90.059452 
L 490.644 87.950829 
L 491.76 88.0969 
L 492.876 83.452009 
L 493.992 82.910264 
L 495.108 82.843455 
L 496.224 82.039799 
L 497.34 81.781805 
L 498.456 83.893036 
L 499.572 93.194833 
L 500.688 85.280405 
L 501.804 81.19071 
L 502.92 84.895877 
L 504.036 85.131467 
L 505.152 84.612884 
L 506.268 81.260618 
L 507.384 87.655333 
L 508.5 79.582114 
L 509.616 86.211102 
L 510.732 85.651557 
L 511.848 88.253154 
L 512.964 78.875334 
L 514.08 85.597972 
L 515.196 82.120559 
L 516.312 92.093691 
L 517.428 83.2936 
L 518.544 85.830289 
L 519.66 80.159157 
L 520.776 76.072382 
L 521.892 76.30657 
L 523.008 80.646362 
L 524.124 77.391323 
L 525.24 91.084135 
L 526.356 83.339768 
L 527.472 84.449522 
L 528.588 80.994612 
L 529.704 88.960304 
L 530.82 79.442627 
L 531.936 85.382987 
L 533.052 79.543963 
L 534.168 79.236504 
L 535.284 84.23239 
L 536.4 71.80997 
L 537.516 81.981771 
L 538.632 75.622071 
L 539.748 83.833137 
L 540.864 85.686988 
L 541.98 76.151945 
L 543.096 81.795684 
L 544.212 81.002302 
L 545.328 90.876424 
L 547.56 77.320829 
L 548.676 79.296888 
L 549.792 78.866834 
L 550.908 83.804036 
L 552.024 78.079406 
L 553.14 79.142834 
L 554.256 78.227546 
L 555.372 76.917358 
L 556.488 77.795744 
L 557.604 81.013493 
L 558.72 78.523043 
L 559.836 86.430432 
L 560.952 80.485234 
L 562.068 78.559589 
L 563.184 85.543561 
L 564.3 79.154108 
L 565.416 76.730241 
L 566.532 81.363462 
L 567.648 79.799758 
L 568.764 77.465662 
L 569.88 82.201157 
L 570.996 74.982661 
L 572.112 75.676284 
L 573.228 83.125152 
L 574.344 79.968311 
L 575.46 78.432928 
L 576.576 81.740229 
L 577.692 75.996061 
L 578.808 68.952231 
L 579.924 73.923858 
L 581.04 73.943889 
L 582.156 66.96 
L 583.272 79.16677 
L 584.388 80.946571 
L 585.504 73.479358 
L 586.62 80.804951 
L 587.736 74.775101 
L 588.852 75.160281 
L 589.968 75.902731 
L 591.084 79.165875 
L 592.2 80.805583 
L 593.316 75.068238 
L 594.432 78.560289 
L 595.548 75.781686 
L 596.664 74.799414 
L 598.896 75.027052 
L 600.012 78.53143 
L 601.128 76.918761 
L 602.244 76.815599 
L 604.476 75.399598 
L 605.592 72.686362 
L 606.708 75.262654 
L 607.824 73.287516 
L 608.94 82.094411 
L 610.056 74.79506 
L 611.172 74.432246 
L 612.288 77.816554 
L 613.404 78.876573 
L 614.52 74.235185 
L 615.636 81.944027 
L 616.752 76.078064 
L 617.868 75.390373 
L 618.984 71.654797 
L 620.1 76.437354 
L 621.216 76.027737 
L 622.332 78.223716 
L 623.448 68.843333 
L 624.564 71.707023 
L 625.68 73.451035 
L 626.796 76.787147 
L 627.912 78.680136 
L 629.028 68.880191 
L 630.144 78.736373 
L 631.26 82.645084 
L 632.376 75.09974 
L 633.492 82.547991 
L 634.608 81.900901 
L 635.724 80.839138 
L 636.84 76.461192 
L 637.956 81.950078 
L 639.072 68.965614 
L 640.188 83.229269 
L 641.304 75.866129 
L 642.42 75.723293 
L 643.536 76.200137 
L 644.652 74.74288 
L 645.768 74.965578 
L 646.884 73.806701 
L 646.884 73.806701 
" clip-path="url(#p7bb7172154)" style="fill: none; stroke-dasharray: 7.4,3.2; stroke-dashoffset: 0; stroke: #ffa500; stroke-width: 2"/>
   </g>
   <g id="patch_3">
    <path d="M 90 384.48 
L 90 51.84 
" style="fill: none; stroke: #000000; stroke-width: 0.8; stroke-linejoin: miter; stroke-linecap: square"/>
   </g>
   <g id="patch_4">
    <path d="M 648 384.48 
L 648 51.84 
" style="fill: none; stroke: #000000; stroke-width: 0.8; stroke-linejoin: miter; stroke-linecap: square"/>
   </g>
   <g id="patch_5">
    <path d="M 90 384.48 
L 648 384.48 
" style="fill: none; stroke: #000000; stroke-width: 0.8; stroke-linejoin: miter; stroke-linecap: square"/>
   </g>
   <g id="patch_6">
    <path d="M 90 51.84 
L 648 51.84 
" style="fill: none; stroke: #000000; stroke-width: 0.8; stroke-linejoin: miter; stroke-linecap: square"/>
   </g>
   <g id="legend_1">
    <g id="patch_7">
     <path d="M 514.8 375.48 
L 635.4 375.48 
Q 639 375.48 639 371.88 
L 639 325.98 
Q 639 322.38 635.4 322.38 
L 514.8 322.38 
Q 511.2 322.38 511.2 325.98 
L 511.2 371.88 
Q 511.2 375.48 514.8 375.48 
z
" style="fill: #ffffff; opacity: 0.8; stroke: #cccccc; stroke-linejoin: miter"/>
    </g>
    <g id="line2d_27">
     <path d="M 518.4 335.88 
L 536.4 335.88 
L 554.4 335.88 
" style="fill: none; stroke-dasharray: 7.4,3.2; stroke-dashoffset: 0; stroke: #0000ff; stroke-width: 2"/>
    </g>
    <g id="text_15">
     <!-- greedy  -->
     <g transform="translate(568.8 342.18) scale(0.18 -0.18)">
      <defs>
       <path id="SimHei-67" d="M 2975 2500 
Q 2800 2550 2637 2562 
Q 2475 2575 2300 2525 
Q 2375 2450 2425 2337 
Q 2475 2225 2475 2000 
Q 2475 1575 2187 1300 
Q 1900 1025 1475 1025 
Q 1375 1025 1212 1062 
Q 1050 1100 950 1150 
Q 875 1100 850 1050 
Q 825 1000 825 925 
Q 825 800 1000 737 
Q 1175 675 1625 675 
Q 2350 675 2612 475 
Q 2875 275 2875 -25 
Q 2875 -425 2487 -612 
Q 2100 -800 1575 -800 
Q 900 -800 575 -625 
Q 250 -450 250 -150 
Q 250 0 375 150 
Q 500 300 700 400 
Q 550 475 462 587 
Q 375 700 375 875 
Q 375 1025 487 1137 
Q 600 1250 750 1325 
Q 625 1450 550 1625 
Q 475 1800 475 2000 
Q 475 2425 762 2700 
Q 1050 2975 1475 2975 
Q 1700 2975 1862 2912 
Q 2025 2850 2150 2725 
Q 2350 2875 2550 2937 
Q 2750 3000 2975 2975 
L 2975 2500 
z
M 1975 2000 
Q 1975 2250 1850 2400 
Q 1725 2550 1475 2550 
Q 1225 2550 1100 2400 
Q 975 2250 975 2000 
Q 975 1750 1100 1600 
Q 1225 1450 1475 1450 
Q 1725 1450 1850 1600 
Q 1975 1750 1975 2000 
z
M 2400 -75 
Q 2400 25 2287 125 
Q 2175 225 1725 225 
Q 1625 225 1450 237 
Q 1275 250 1050 275 
Q 850 200 775 100 
Q 700 0 700 -100 
Q 700 -250 900 -350 
Q 1100 -450 1600 -450 
Q 2025 -450 2212 -337 
Q 2400 -225 2400 -75 
z
" transform="scale(0.015625)"/>
       <path id="SimHei-72" d="M 2500 2425 
Q 2025 2500 1700 2287 
Q 1375 2075 1150 1550 
L 1150 125 
L 650 125 
L 650 2925 
L 1150 2925 
L 1150 2200 
Q 1375 2600 1712 2787 
Q 2050 2975 2500 2975 
L 2500 2425 
z
" transform="scale(0.015625)"/>
       <path id="SimHei-65" d="M 2850 1075 
Q 2800 625 2450 350 
Q 2100 75 1625 75 
Q 1025 75 637 462 
Q 250 850 250 1525 
Q 250 2200 637 2587 
Q 1025 2975 1625 2975 
Q 2150 2975 2487 2637 
Q 2825 2300 2825 1525 
L 800 1525 
Q 800 975 1037 750 
Q 1275 525 1625 525 
Q 1900 525 2075 662 
Q 2250 800 2300 1075 
L 2850 1075 
z
M 2250 1925 
Q 2200 2275 2025 2412 
Q 1850 2550 1575 2550 
Q 1325 2550 1125 2412 
Q 925 2275 825 1925 
L 2250 1925 
z
" transform="scale(0.015625)"/>
       <path id="SimHei-64" d="M 2750 125 
L 2250 125 
L 2250 500 
Q 2100 275 1900 175 
Q 1700 75 1425 75 
Q 925 75 575 437 
Q 225 800 225 1525 
Q 225 2250 575 2625 
Q 925 3000 1425 3000 
Q 1700 3000 1900 2887 
Q 2100 2775 2250 2550 
L 2250 4400 
L 2750 4400 
L 2750 125 
z
M 2250 1525 
Q 2250 2000 2037 2275 
Q 1825 2550 1525 2550 
Q 1150 2550 962 2275 
Q 775 2000 775 1525 
Q 775 1050 962 787 
Q 1150 525 1525 525 
Q 1825 525 2037 787 
Q 2250 1050 2250 1525 
z
" transform="scale(0.015625)"/>
       <path id="SimHei-79" d="M 2900 2925 
L 1750 -100 
Q 1650 -450 1450 -625 
Q 1250 -800 950 -800 
Q 825 -800 712 -787 
Q 600 -775 500 -725 
L 500 -225 
Q 600 -275 700 -300 
Q 800 -325 875 -325 
Q 1075 -325 1150 -262 
Q 1225 -200 1300 25 
L 200 2925 
L 750 2925 
L 1550 725 
L 1575 725 
L 2350 2925 
L 2900 2925 
z
" transform="scale(0.015625)"/>
       <path id="SimHei-20" transform="scale(0.015625)"/>
      </defs>
      <use xlink:href="#SimHei-67"/>
      <use xlink:href="#SimHei-72" x="50"/>
      <use xlink:href="#SimHei-65" x="100"/>
      <use xlink:href="#SimHei-65" x="150"/>
      <use xlink:href="#SimHei-64" x="200"/>
      <use xlink:href="#SimHei-79" x="250"/>
      <use xlink:href="#SimHei-20" x="300"/>
     </g>
    </g>
    <g id="line2d_28">
     <path d="M 518.4 359.73 
L 536.4 359.73 
L 554.4 359.73 
" style="fill: none; stroke-dasharray: 7.4,3.2; stroke-dashoffset: 0; stroke: #ffa500; stroke-width: 2"/>
    </g>
    <g id="text_16">
     <!-- sac -->
     <g transform="translate(568.8 366.03) scale(0.18 -0.18)">
      <defs>
       <path id="SimHei-61" d="M 2875 125 
L 2275 125 
Q 2225 175 2200 262 
Q 2175 350 2175 475 
Q 2000 275 1750 175 
Q 1500 75 1225 75 
Q 825 75 550 275 
Q 275 475 275 850 
Q 275 1225 525 1450 
Q 775 1675 1300 1750 
Q 1650 1800 1912 1875 
Q 2175 1950 2175 2075 
Q 2175 2225 2062 2375 
Q 1950 2525 1575 2525 
Q 1275 2525 1137 2412 
Q 1000 2300 950 2100 
L 400 2100 
Q 450 2500 762 2737 
Q 1075 2975 1575 2975 
Q 2125 2975 2400 2725 
Q 2675 2475 2675 2025 
L 2675 650 
Q 2675 500 2725 375 
Q 2775 250 2875 125 
z
M 2175 1050 
L 2175 1550 
Q 2025 1500 1887 1462 
Q 1750 1425 1425 1375 
Q 1050 1325 937 1200 
Q 825 1075 825 900 
Q 825 750 937 637 
Q 1050 525 1275 525 
Q 1500 525 1762 650 
Q 2025 775 2175 1050 
z
" transform="scale(0.015625)"/>
       <path id="SimHei-63" d="M 2850 1250 
Q 2850 725 2487 400 
Q 2125 75 1575 75 
Q 1025 75 625 462 
Q 225 850 225 1525 
Q 225 2200 625 2587 
Q 1025 2975 1575 2975 
Q 2125 2975 2450 2687 
Q 2775 2400 2775 2000 
L 2225 2000 
Q 2200 2300 2012 2412 
Q 1825 2525 1575 2525 
Q 1275 2525 1025 2287 
Q 775 2050 775 1525 
Q 775 1000 1025 762 
Q 1275 525 1575 525 
Q 1900 525 2100 700 
Q 2300 875 2300 1250 
L 2850 1250 
z
" transform="scale(0.015625)"/>
      </defs>
      <use xlink:href="#SimHei-73"/>
      <use xlink:href="#SimHei-61" x="50"/>
      <use xlink:href="#SimHei-63" x="100"/>
     </g>
    </g>
   </g>
  </g>
 </g>
 <defs>
  <clipPath id="p7bb7172154">
   <rect x="90" y="51.84" width="558" height="332.64"/>
  </clipPath>
 </defs>
</svg>
