<?xml version="1.0" encoding="utf-8" standalone="no"?>
<!DOCTYPE svg PUBLIC "-//W3C//DTD SVG 1.1//EN"
  "http://www.w3.org/Graphics/SVG/1.1/DTD/svg11.dtd">
<svg xmlns:xlink="http://www.w3.org/1999/xlink" width="720pt" height="432pt" viewBox="0 0 720 432" xmlns="http://www.w3.org/2000/svg" version="1.1">
 <metadata>
  <rdf:RDF xmlns:dc="http://purl.org/dc/elements/1.1/" xmlns:cc="http://creativecommons.org/ns#" xmlns:rdf="http://www.w3.org/1999/02/22-rdf-syntax-ns#">
   <cc:Work>
    <dc:type rdf:resource="http://purl.org/dc/dcmitype/StillImage"/>
    <dc:date>2024-05-24T16:02:21.843006</dc:date>
    <dc:format>image/svg+xml</dc:format>
    <dc:creator>
     <cc:Agent>
      <dc:title>Matplotlib v3.7.1, https://matplotlib.org/</dc:title>
     </cc:Agent>
    </dc:creator>
   </cc:Work>
  </rdf:RDF>
 </metadata>
 <defs>
  <style type="text/css">*{stroke-linejoin: round; stroke-linecap: butt}</style>
 </defs>
 <g id="figure_1">
  <g id="patch_1">
   <path d="M 0 432 
L 720 432 
L 720 0 
L 0 0 
z
" style="fill: #ffffff"/>
  </g>
  <g id="axes_1">
   <g id="patch_2">
    <path d="M 90 384.48 
L 648 384.48 
L 648 51.84 
L 90 51.84 
z
" style="fill: #ffffff"/>
   </g>
   <g id="matplotlib.axis_1">
    <g id="xtick_1">
     <g id="line2d_1">
      <path d="M 90 384.48 
L 90 51.84 
" clip-path="url(#p7e73b1a9e2)" style="fill: none; stroke: #b0b0b0; stroke-width: 0.8; stroke-linecap: square"/>
     </g>
     <g id="line2d_2">
      <defs>
       <path id="m4d83439878" d="M 0 0 
L 0 3.5 
" style="stroke: #000000; stroke-width: 0.8"/>
      </defs>
      <g>
       <use xlink:href="#m4d83439878" x="90" y="384.48" style="stroke: #000000; stroke-width: 0.8"/>
      </g>
     </g>
     <g id="text_1">
      <!-- 0 -->
      <g transform="translate(85.5 403.855) scale(0.18 -0.18)">
       <defs>
        <path id="SimHei-30" d="M 225 2537 
Q 250 3200 412 3587 
Q 575 3975 875 4225 
Q 1175 4475 1612 4475 
Q 2050 4475 2375 4112 
Q 2700 3750 2800 3200 
Q 2900 2650 2862 1937 
Q 2825 1225 2612 775 
Q 2400 325 1975 150 
Q 1550 -25 1125 187 
Q 700 400 525 750 
Q 350 1100 275 1487 
Q 200 1875 225 2537 
z
M 750 2687 
Q 675 2000 800 1462 
Q 925 925 1212 700 
Q 1500 475 1800 612 
Q 2100 750 2237 1162 
Q 2375 1575 2375 2062 
Q 2375 2550 2337 2950 
Q 2300 3350 2112 3675 
Q 1925 4000 1612 4012 
Q 1300 4025 1062 3700 
Q 825 3375 750 2687 
z
" transform="scale(0.015625)"/>
       </defs>
       <use xlink:href="#SimHei-30"/>
      </g>
     </g>
    </g>
    <g id="xtick_2">
     <g id="line2d_3">
      <path d="M 201.6 384.48 
L 201.6 51.84 
" clip-path="url(#p7e73b1a9e2)" style="fill: none; stroke: #b0b0b0; stroke-width: 0.8; stroke-linecap: square"/>
     </g>
     <g id="line2d_4">
      <g>
       <use xlink:href="#m4d83439878" x="201.6" y="384.48" style="stroke: #000000; stroke-width: 0.8"/>
      </g>
     </g>
     <g id="text_2">
      <!-- 100 -->
      <g transform="translate(188.1 403.855) scale(0.18 -0.18)">
       <defs>
        <path id="SimHei-31" d="M 1400 3600 
Q 1075 3275 575 2975 
L 575 3450 
Q 1200 3875 1600 4450 
L 1900 4450 
L 1900 150 
L 1400 150 
L 1400 3600 
z
" transform="scale(0.015625)"/>
       </defs>
       <use xlink:href="#SimHei-31"/>
       <use xlink:href="#SimHei-30" x="50"/>
       <use xlink:href="#SimHei-30" x="100"/>
      </g>
     </g>
    </g>
    <g id="xtick_3">
     <g id="line2d_5">
      <path d="M 313.2 384.48 
L 313.2 51.84 
" clip-path="url(#p7e73b1a9e2)" style="fill: none; stroke: #b0b0b0; stroke-width: 0.8; stroke-linecap: square"/>
     </g>
     <g id="line2d_6">
      <g>
       <use xlink:href="#m4d83439878" x="313.2" y="384.48" style="stroke: #000000; stroke-width: 0.8"/>
      </g>
     </g>
     <g id="text_3">
      <!-- 200 -->
      <g transform="translate(299.7 403.855) scale(0.18 -0.18)">
       <defs>
        <path id="SimHei-32" d="M 300 250 
Q 325 625 650 925 
Q 975 1225 1475 1862 
Q 1975 2500 2125 2850 
Q 2275 3200 2237 3450 
Q 2200 3700 2000 3862 
Q 1800 4025 1537 4000 
Q 1275 3975 1037 3800 
Q 800 3625 675 3275 
L 200 3350 
Q 400 3925 712 4187 
Q 1025 4450 1450 4475 
Q 1700 4500 1900 4462 
Q 2100 4425 2312 4287 
Q 2525 4150 2662 3875 
Q 2800 3600 2762 3212 
Q 2725 2825 2375 2287 
Q 2025 1750 1025 600 
L 2825 600 
L 2825 150 
L 300 150 
L 300 250 
z
" transform="scale(0.015625)"/>
       </defs>
       <use xlink:href="#SimHei-32"/>
       <use xlink:href="#SimHei-30" x="50"/>
       <use xlink:href="#SimHei-30" x="100"/>
      </g>
     </g>
    </g>
    <g id="xtick_4">
     <g id="line2d_7">
      <path d="M 424.8 384.48 
L 424.8 51.84 
" clip-path="url(#p7e73b1a9e2)" style="fill: none; stroke: #b0b0b0; stroke-width: 0.8; stroke-linecap: square"/>
     </g>
     <g id="line2d_8">
      <g>
       <use xlink:href="#m4d83439878" x="424.8" y="384.48" style="stroke: #000000; stroke-width: 0.8"/>
      </g>
     </g>
     <g id="text_4">
      <!-- 300 -->
      <g transform="translate(411.3 403.855) scale(0.18 -0.18)">
       <defs>
        <path id="SimHei-33" d="M 250 1225 
L 700 1300 
Q 800 975 1025 762 
Q 1250 550 1587 562 
Q 1925 575 2125 837 
Q 2325 1100 2300 1437 
Q 2275 1775 2037 1962 
Q 1800 2150 1275 2225 
L 1275 2550 
Q 1800 2600 2037 2825 
Q 2275 3050 2250 3412 
Q 2225 3775 1925 3937 
Q 1625 4100 1287 3975 
Q 950 3850 750 3275 
L 300 3350 
Q 450 3800 712 4100 
Q 975 4400 1425 4450 
Q 1875 4500 2212 4337 
Q 2550 4175 2687 3837 
Q 2825 3500 2725 3100 
Q 2625 2700 2150 2400 
Q 2500 2250 2687 1950 
Q 2875 1650 2812 1162 
Q 2750 675 2375 375 
Q 2000 75 1525 87 
Q 1050 100 700 387 
Q 350 675 250 1225 
z
" transform="scale(0.015625)"/>
       </defs>
       <use xlink:href="#SimHei-33"/>
       <use xlink:href="#SimHei-30" x="50"/>
       <use xlink:href="#SimHei-30" x="100"/>
      </g>
     </g>
    </g>
    <g id="xtick_5">
     <g id="line2d_9">
      <path d="M 536.4 384.48 
L 536.4 51.84 
" clip-path="url(#p7e73b1a9e2)" style="fill: none; stroke: #b0b0b0; stroke-width: 0.8; stroke-linecap: square"/>
     </g>
     <g id="line2d_10">
      <g>
       <use xlink:href="#m4d83439878" x="536.4" y="384.48" style="stroke: #000000; stroke-width: 0.8"/>
      </g>
     </g>
     <g id="text_5">
      <!-- 400 -->
      <g transform="translate(522.9 403.855) scale(0.18 -0.18)">
       <defs>
        <path id="SimHei-34" d="M 2000 1100 
L 75 1100 
L 75 1525 
L 2100 4450 
L 2475 4450 
L 2475 1525 
L 3075 1525 
L 3075 1100 
L 2475 1100 
L 2475 150 
L 2000 150 
L 2000 1100 
z
M 2000 1525 
L 2000 3500 
L 600 1525 
L 2000 1525 
z
" transform="scale(0.015625)"/>
       </defs>
       <use xlink:href="#SimHei-34"/>
       <use xlink:href="#SimHei-30" x="50"/>
       <use xlink:href="#SimHei-30" x="100"/>
      </g>
     </g>
    </g>
    <g id="xtick_6">
     <g id="line2d_11">
      <path d="M 648 384.48 
L 648 51.84 
" clip-path="url(#p7e73b1a9e2)" style="fill: none; stroke: #b0b0b0; stroke-width: 0.8; stroke-linecap: square"/>
     </g>
     <g id="line2d_12">
      <g>
       <use xlink:href="#m4d83439878" x="648" y="384.48" style="stroke: #000000; stroke-width: 0.8"/>
      </g>
     </g>
     <g id="text_6">
      <!-- 500 -->
      <g transform="translate(634.5 403.855) scale(0.18 -0.18)">
       <defs>
        <path id="SimHei-35" d="M 550 1325 
Q 725 650 1150 575 
Q 1575 500 1837 662 
Q 2100 825 2212 1087 
Q 2325 1350 2312 1675 
Q 2300 2000 2137 2225 
Q 1975 2450 1725 2525 
Q 1475 2600 1162 2525 
Q 850 2450 650 2175 
L 225 2225 
Q 275 2375 700 4375 
L 2675 4375 
L 2675 3925 
L 1075 3925 
Q 950 3250 825 2850 
Q 1200 3025 1525 3012 
Q 1850 3000 2150 2862 
Q 2450 2725 2587 2487 
Q 2725 2250 2787 2012 
Q 2850 1775 2837 1500 
Q 2825 1225 2725 937 
Q 2625 650 2425 462 
Q 2225 275 1937 162 
Q 1650 50 1275 75 
Q 900 100 562 350 
Q 225 600 100 1200 
L 550 1325 
z
" transform="scale(0.015625)"/>
       </defs>
       <use xlink:href="#SimHei-35"/>
       <use xlink:href="#SimHei-30" x="50"/>
       <use xlink:href="#SimHei-30" x="100"/>
      </g>
     </g>
    </g>
    <g id="text_7">
     <!-- 迭代次数 -->
     <g transform="translate(329 426.0425) scale(0.2 -0.2)">
      <defs>
       <path id="SimHei-8fed" d="M 3900 1875 
Q 3600 1350 3287 1012 
Q 2975 675 2450 275 
Q 2350 475 2025 700 
Q 2600 975 3012 1425 
Q 3425 1875 3600 2450 
Q 2350 2450 1950 2425 
L 1950 2900 
Q 2375 2875 3675 2875 
Q 3725 3250 3750 3775 
L 2800 3775 
Q 2675 3450 2550 3175 
Q 2300 3300 2075 3350 
Q 2275 3675 2425 4112 
Q 2575 4550 2700 5100 
Q 2850 5000 3225 4925 
Q 3075 4725 2950 4200 
L 3750 4200 
Q 3750 4850 3700 5250 
L 4275 5225 
Q 4225 4925 4200 4200 
L 4950 4200 
Q 5175 4200 5575 4225 
L 5575 3725 
Q 5175 3775 4875 3775 
L 4200 3775 
Q 4175 3250 4125 2875 
L 5150 2875 
Q 5475 2875 5925 2900 
L 5925 2425 
Q 5475 2450 5075 2450 
L 4100 2450 
L 4050 2300 
Q 4650 1775 5725 700 
Q 5600 650 5275 300 
Q 4775 975 3900 1875 
z
M 1550 2950 
L 1550 625 
Q 2200 -25 3712 -12 
Q 5225 0 6125 100 
Q 5950 -225 5900 -475 
L 3575 -475 
Q 2975 -475 2525 -387 
Q 2075 -300 1725 -50 
Q 1375 200 1162 12 
Q 950 -175 650 -550 
Q 500 -350 250 -175 
Q 775 275 1075 575 
L 1075 2525 
Q 750 2525 350 2500 
L 350 2975 
Q 775 2950 1075 2950 
L 1550 2950 
z
M 1125 5025 
Q 1525 4275 1675 3900 
Q 1450 3875 1175 3650 
Q 950 4275 650 4750 
Q 900 4850 1125 5025 
z
" transform="scale(0.015625)"/>
       <path id="SimHei-4ee3" d="M 3300 2950 
Q 3175 4575 3150 5100 
Q 3300 5075 3725 5025 
Q 3675 4725 3800 3050 
Q 5000 3275 5650 3475 
L 5775 3000 
Q 5500 2975 3850 2625 
Q 4150 1050 4737 450 
Q 5325 -150 5412 125 
Q 5500 400 5525 725 
Q 5800 550 6075 500 
Q 5900 -200 5737 -425 
Q 5575 -650 5137 -500 
Q 4700 -350 4187 300 
Q 3675 950 3350 2525 
Q 2400 2325 2175 2250 
L 2025 2725 
Q 2425 2775 3300 2950 
z
M 2250 4975 
Q 2100 4725 1700 3650 
L 1700 475 
Q 1700 -50 1725 -600 
L 1200 -600 
Q 1225 -50 1225 475 
L 1225 2750 
Q 850 2150 600 1850 
Q 450 2050 225 2225 
Q 625 2600 1050 3425 
Q 1475 4250 1675 5200 
Q 2050 5025 2250 4975 
z
M 4700 4875 
Q 5150 4325 5325 4050 
Q 5100 3900 4875 3725 
Q 4650 4150 4300 4575 
Q 4500 4700 4700 4875 
z
" transform="scale(0.015625)"/>
       <path id="SimHei-6b21" d="M 4150 3025 
Q 4000 2550 4050 2187 
Q 4100 1825 4275 1450 
Q 4450 1075 4800 750 
Q 5150 425 5475 212 
Q 5800 0 6150 -150 
Q 5875 -350 5750 -625 
Q 5250 -325 4887 -25 
Q 4525 275 4275 612 
Q 4025 950 3825 1425 
Q 3525 625 2950 125 
Q 2375 -375 1850 -650 
Q 1675 -400 1475 -225 
Q 2025 0 2487 362 
Q 2950 725 3162 1100 
Q 3375 1475 3450 1825 
Q 3525 2175 3537 2400 
Q 3550 2625 3525 3125 
Q 3825 3050 4150 3025 
z
M 3700 4975 
Q 3625 4900 3475 4575 
Q 3325 4250 3250 4075 
L 5775 4075 
Q 5650 3725 5550 3362 
Q 5450 3000 5275 2500 
Q 5000 2575 4775 2600 
Q 5025 3350 5100 3650 
L 3100 3650 
Q 2975 3400 2812 3100 
Q 2650 2800 2425 2450 
Q 2275 2600 1975 2700 
Q 2300 3050 2625 3762 
Q 2950 4475 3125 5200 
Q 3450 5025 3700 4975 
z
M 2025 2000 
Q 1825 1675 1475 1087 
Q 1125 500 725 -200 
Q 500 -25 250 175 
Q 725 725 1037 1262 
Q 1350 1800 1575 2325 
Q 1750 2175 2025 2000 
z
M 900 4750 
Q 1725 3725 1950 3375 
Q 1750 3250 1500 3050 
Q 1250 3525 500 4425 
Q 700 4575 900 4750 
z
" transform="scale(0.015625)"/>
       <path id="SimHei-6570" d="M 4525 4925 
Q 4475 4800 4400 4587 
Q 4325 4375 4175 3825 
L 5325 3825 
Q 5575 3825 5925 3850 
L 5925 3400 
Q 5650 3425 5500 3425 
Q 5500 3025 5362 2162 
Q 5225 1300 4875 675 
Q 5125 375 5437 137 
Q 5750 -100 6025 -200 
Q 5725 -425 5625 -625 
Q 5325 -450 5075 -225 
Q 4825 0 4575 325 
Q 4300 25 3987 -187 
Q 3675 -400 3200 -650 
Q 3075 -425 2850 -300 
Q 3225 -150 3650 125 
Q 4075 400 4300 675 
Q 4125 1025 3962 1425 
Q 3800 1825 3675 2475 
Q 3600 2275 3425 1950 
Q 3250 2050 3000 2150 
Q 3400 2850 3650 3675 
Q 3900 4500 3975 5100 
Q 4275 4975 4525 4925 
z
M 2100 2250 
Q 2000 2150 1875 1925 
L 3250 1925 
Q 3100 1300 2725 675 
Q 3125 525 3350 400 
Q 3225 225 3125 25 
Q 2900 175 2450 325 
Q 1950 -225 725 -650 
Q 600 -375 400 -275 
Q 1575 0 2000 475 
Q 1300 650 850 775 
Q 1000 1000 1250 1525 
Q 1000 1525 425 1500 
L 425 1950 
Q 900 1925 1400 1925 
Q 1500 2150 1550 2425 
Q 1825 2325 2100 2250 
z
M 1775 3950 
Q 1775 4550 1750 5100 
L 2250 5100 
Q 2225 4575 2225 3950 
Q 3075 3950 3425 3975 
L 3425 3525 
Q 3075 3550 2225 3550 
Q 2225 2825 2250 2425 
L 1750 2425 
Q 1775 2775 1775 3300 
Q 1650 3100 1300 2787 
Q 950 2475 650 2300 
Q 525 2525 275 2625 
Q 500 2700 875 2975 
Q 1250 3250 1450 3550 
Q 950 3550 500 3525 
L 500 3975 
Q 925 3950 1775 3950 
z
M 3975 3175 
Q 4200 1700 4600 1125 
Q 4850 1700 4937 2287 
Q 5025 2875 5050 3425 
L 4075 3425 
L 3975 3175 
z
M 1450 1000 
Q 1750 925 2275 800 
Q 2475 1050 2650 1525 
L 1725 1525 
Q 1600 1275 1450 1000 
z
M 3325 4825 
Q 3200 4625 3125 4450 
Q 3050 4275 2925 4025 
Q 2725 4125 2525 4175 
Q 2725 4500 2900 5000 
Q 3150 4875 3325 4825 
z
M 2575 3375 
Q 2900 3050 3200 2725 
Q 3050 2600 2875 2425 
Q 2525 2850 2300 3100 
Q 2450 3225 2575 3375 
z
M 925 5000 
Q 1275 4650 1500 4300 
L 1125 4075 
Q 950 4425 600 4725 
Q 825 4875 925 5000 
z
" transform="scale(0.015625)"/>
      </defs>
      <use xlink:href="#SimHei-8fed"/>
      <use xlink:href="#SimHei-4ee3" x="100"/>
      <use xlink:href="#SimHei-6b21" x="200"/>
      <use xlink:href="#SimHei-6570" x="300"/>
     </g>
    </g>
   </g>
   <g id="matplotlib.axis_2">
    <g id="ytick_1">
     <g id="line2d_13">
      <path d="M 90 360.72 
L 648 360.72 
" clip-path="url(#p7e73b1a9e2)" style="fill: none; stroke: #b0b0b0; stroke-width: 0.8; stroke-linecap: square"/>
     </g>
     <g id="line2d_14">
      <defs>
       <path id="m242ff67edf" d="M 0 0 
L -3.5 0 
" style="stroke: #000000; stroke-width: 0.8"/>
      </defs>
      <g>
       <use xlink:href="#m242ff67edf" x="90" y="360.72" style="stroke: #000000; stroke-width: 0.8"/>
      </g>
     </g>
     <g id="text_8">
      <!-- −600 -->
      <g transform="translate(38 366.9075) scale(0.18 -0.18)">
       <defs>
        <path id="SimHei-2212" d="M 5600 -325 
L 700 -325 
L 700 4825 
L 5600 4825 
L 5600 -325 
z
M 5400 4650 
L 875 4650 
L 875 -150 
L 5400 -150 
L 5400 4650 
z
" transform="scale(0.015625)"/>
        <path id="SimHei-36" d="M 250 1612 
Q 275 1975 387 2225 
Q 500 2475 725 2850 
L 1750 4450 
L 2325 4450 
L 1275 2800 
Q 1950 2975 2350 2750 
Q 2750 2525 2887 2237 
Q 3025 1950 3037 1612 
Q 3050 1275 2937 950 
Q 2825 625 2537 362 
Q 2250 100 1737 75 
Q 1225 50 862 262 
Q 500 475 362 862 
Q 225 1250 250 1612 
z
M 1025 787 
Q 1250 550 1625 525 
Q 2000 500 2250 775 
Q 2500 1050 2500 1575 
Q 2500 2100 2187 2300 
Q 1875 2500 1487 2450 
Q 1100 2400 925 2075 
Q 750 1750 775 1387 
Q 800 1025 1025 787 
z
" transform="scale(0.015625)"/>
       </defs>
       <use xlink:href="#SimHei-2212"/>
       <use xlink:href="#SimHei-36" x="100"/>
       <use xlink:href="#SimHei-30" x="150"/>
       <use xlink:href="#SimHei-30" x="200"/>
      </g>
     </g>
    </g>
    <g id="ytick_2">
     <g id="line2d_15">
      <path d="M 90 313.2 
L 648 313.2 
" clip-path="url(#p7e73b1a9e2)" style="fill: none; stroke: #b0b0b0; stroke-width: 0.8; stroke-linecap: square"/>
     </g>
     <g id="line2d_16">
      <g>
       <use xlink:href="#m242ff67edf" x="90" y="313.2" style="stroke: #000000; stroke-width: 0.8"/>
      </g>
     </g>
     <g id="text_9">
      <!-- −400 -->
      <g transform="translate(38 319.3875) scale(0.18 -0.18)">
       <use xlink:href="#SimHei-2212"/>
       <use xlink:href="#SimHei-34" x="100"/>
       <use xlink:href="#SimHei-30" x="150"/>
       <use xlink:href="#SimHei-30" x="200"/>
      </g>
     </g>
    </g>
    <g id="ytick_3">
     <g id="line2d_17">
      <path d="M 90 265.68 
L 648 265.68 
" clip-path="url(#p7e73b1a9e2)" style="fill: none; stroke: #b0b0b0; stroke-width: 0.8; stroke-linecap: square"/>
     </g>
     <g id="line2d_18">
      <g>
       <use xlink:href="#m242ff67edf" x="90" y="265.68" style="stroke: #000000; stroke-width: 0.8"/>
      </g>
     </g>
     <g id="text_10">
      <!-- −200 -->
      <g transform="translate(38 271.8675) scale(0.18 -0.18)">
       <use xlink:href="#SimHei-2212"/>
       <use xlink:href="#SimHei-32" x="100"/>
       <use xlink:href="#SimHei-30" x="150"/>
       <use xlink:href="#SimHei-30" x="200"/>
      </g>
     </g>
    </g>
    <g id="ytick_4">
     <g id="line2d_19">
      <path d="M 90 218.16 
L 648 218.16 
" clip-path="url(#p7e73b1a9e2)" style="fill: none; stroke: #b0b0b0; stroke-width: 0.8; stroke-linecap: square"/>
     </g>
     <g id="line2d_20">
      <g>
       <use xlink:href="#m242ff67edf" x="90" y="218.16" style="stroke: #000000; stroke-width: 0.8"/>
      </g>
     </g>
     <g id="text_11">
      <!-- 0 -->
      <g transform="translate(74 224.3475) scale(0.18 -0.18)">
       <use xlink:href="#SimHei-30"/>
      </g>
     </g>
    </g>
    <g id="ytick_5">
     <g id="line2d_21">
      <path d="M 90 170.64 
L 648 170.64 
" clip-path="url(#p7e73b1a9e2)" style="fill: none; stroke: #b0b0b0; stroke-width: 0.8; stroke-linecap: square"/>
     </g>
     <g id="line2d_22">
      <g>
       <use xlink:href="#m242ff67edf" x="90" y="170.64" style="stroke: #000000; stroke-width: 0.8"/>
      </g>
     </g>
     <g id="text_12">
      <!-- 200 -->
      <g transform="translate(56 176.8275) scale(0.18 -0.18)">
       <use xlink:href="#SimHei-32"/>
       <use xlink:href="#SimHei-30" x="50"/>
       <use xlink:href="#SimHei-30" x="100"/>
      </g>
     </g>
    </g>
    <g id="ytick_6">
     <g id="line2d_23">
      <path d="M 90 123.12 
L 648 123.12 
" clip-path="url(#p7e73b1a9e2)" style="fill: none; stroke: #b0b0b0; stroke-width: 0.8; stroke-linecap: square"/>
     </g>
     <g id="line2d_24">
      <g>
       <use xlink:href="#m242ff67edf" x="90" y="123.12" style="stroke: #000000; stroke-width: 0.8"/>
      </g>
     </g>
     <g id="text_13">
      <!-- 400 -->
      <g transform="translate(56 129.3075) scale(0.18 -0.18)">
       <use xlink:href="#SimHei-34"/>
       <use xlink:href="#SimHei-30" x="50"/>
       <use xlink:href="#SimHei-30" x="100"/>
      </g>
     </g>
    </g>
    <g id="ytick_7">
     <g id="line2d_25">
      <path d="M 90 75.6 
L 648 75.6 
" clip-path="url(#p7e73b1a9e2)" style="fill: none; stroke: #b0b0b0; stroke-width: 0.8; stroke-linecap: square"/>
     </g>
     <g id="line2d_26">
      <g>
       <use xlink:href="#m242ff67edf" x="90" y="75.6" style="stroke: #000000; stroke-width: 0.8"/>
      </g>
     </g>
     <g id="text_14">
      <!-- 600 -->
      <g transform="translate(56 81.7875) scale(0.18 -0.18)">
       <use xlink:href="#SimHei-36"/>
       <use xlink:href="#SimHei-30" x="50"/>
       <use xlink:href="#SimHei-30" x="100"/>
      </g>
     </g>
    </g>
    <g id="text_15">
     <!-- 平均reward -->
     <g transform="translate(31.5 268.16) rotate(-90) scale(0.2 -0.2)">
      <defs>
       <path id="SimHei-5e73" d="M 4525 4825 
Q 4900 4825 5450 4850 
L 5450 4375 
Q 4925 4400 4525 4400 
L 3475 4400 
L 3475 2025 
L 5000 2025 
Q 5550 2025 6025 2050 
L 6025 1575 
Q 5550 1600 5000 1600 
L 3475 1600 
L 3475 450 
Q 3475 -100 3500 -600 
L 2925 -600 
Q 2950 -100 2950 450 
L 2950 1600 
L 1125 1600 
Q 775 1600 375 1575 
L 375 2050 
Q 775 2025 1175 2025 
L 2950 2025 
L 2950 4400 
L 1775 4400 
Q 1400 4400 875 4375 
L 875 4850 
Q 1400 4825 1750 4825 
L 4525 4825 
z
M 3925 2600 
Q 4500 3300 4900 4125 
Q 5150 3950 5400 3825 
Q 4775 2850 4350 2300 
Q 4150 2475 3925 2600 
z
M 1975 2350 
Q 1600 3100 1050 3725 
Q 1250 3875 1450 4050 
Q 2075 3300 2450 2725 
Q 2150 2500 1975 2350 
z
" transform="scale(0.015625)"/>
       <path id="SimHei-5747" d="M 5775 275 
Q 5775 -325 5362 -450 
Q 4950 -575 4425 -600 
Q 4375 -275 4250 25 
Q 4950 -25 5125 62 
Q 5300 150 5300 500 
L 5375 3700 
L 3550 3700 
Q 3425 3375 3262 3037 
Q 3100 2700 2925 2400 
Q 2675 2550 2475 2625 
Q 3150 3625 3500 5200 
Q 3800 5100 4075 5025 
Q 3975 4875 3875 4650 
Q 3775 4425 3675 4125 
L 5900 4125 
L 5775 275 
z
M 1250 3625 
L 1250 4375 
Q 1250 4775 1225 5100 
L 1775 5100 
Q 1750 4725 1750 4375 
L 1750 3625 
L 1900 3625 
Q 2200 3625 2525 3650 
L 2525 3150 
Q 2200 3175 1900 3175 
L 1750 3175 
L 1750 1100 
L 2500 1375 
Q 2475 1125 2525 900 
Q 1225 475 962 362 
Q 700 250 475 150 
Q 375 475 250 750 
Q 575 800 800 850 
Q 1025 900 1250 975 
L 1250 3175 
L 1125 3175 
Q 850 3175 400 3150 
L 400 3650 
Q 850 3625 1100 3625 
L 1250 3625 
z
M 4950 1625 
Q 4675 1425 4137 1050 
Q 3600 675 3175 300 
Q 3000 575 2850 775 
Q 3350 1050 3762 1325 
Q 4175 1600 4775 2075 
Q 4825 1850 4950 1625 
z
M 3775 3150 
Q 4125 2800 4475 2300 
Q 4250 2125 4100 1975 
Q 3900 2325 3450 2825 
Q 3600 3000 3775 3150 
z
" transform="scale(0.015625)"/>
       <path id="SimHei-72" d="M 2500 2425 
Q 2025 2500 1700 2287 
Q 1375 2075 1150 1550 
L 1150 125 
L 650 125 
L 650 2925 
L 1150 2925 
L 1150 2200 
Q 1375 2600 1712 2787 
Q 2050 2975 2500 2975 
L 2500 2425 
z
" transform="scale(0.015625)"/>
       <path id="SimHei-65" d="M 2850 1075 
Q 2800 625 2450 350 
Q 2100 75 1625 75 
Q 1025 75 637 462 
Q 250 850 250 1525 
Q 250 2200 637 2587 
Q 1025 2975 1625 2975 
Q 2150 2975 2487 2637 
Q 2825 2300 2825 1525 
L 800 1525 
Q 800 975 1037 750 
Q 1275 525 1625 525 
Q 1900 525 2075 662 
Q 2250 800 2300 1075 
L 2850 1075 
z
M 2250 1925 
Q 2200 2275 2025 2412 
Q 1850 2550 1575 2550 
Q 1325 2550 1125 2412 
Q 925 2275 825 1925 
L 2250 1925 
z
" transform="scale(0.015625)"/>
       <path id="SimHei-77" d="M 3075 2925 
L 2450 75 
L 1975 75 
L 1575 2250 
L 1525 2250 
L 1125 75 
L 650 75 
L 25 2925 
L 550 2925 
L 875 1050 
L 925 1050 
L 1275 2925 
L 1825 2925 
L 2175 1050 
L 2225 1050 
L 2550 2925 
L 3075 2925 
z
" transform="scale(0.015625)"/>
       <path id="SimHei-61" d="M 2875 125 
L 2275 125 
Q 2225 175 2200 262 
Q 2175 350 2175 475 
Q 2000 275 1750 175 
Q 1500 75 1225 75 
Q 825 75 550 275 
Q 275 475 275 850 
Q 275 1225 525 1450 
Q 775 1675 1300 1750 
Q 1650 1800 1912 1875 
Q 2175 1950 2175 2075 
Q 2175 2225 2062 2375 
Q 1950 2525 1575 2525 
Q 1275 2525 1137 2412 
Q 1000 2300 950 2100 
L 400 2100 
Q 450 2500 762 2737 
Q 1075 2975 1575 2975 
Q 2125 2975 2400 2725 
Q 2675 2475 2675 2025 
L 2675 650 
Q 2675 500 2725 375 
Q 2775 250 2875 125 
z
M 2175 1050 
L 2175 1550 
Q 2025 1500 1887 1462 
Q 1750 1425 1425 1375 
Q 1050 1325 937 1200 
Q 825 1075 825 900 
Q 825 750 937 637 
Q 1050 525 1275 525 
Q 1500 525 1762 650 
Q 2025 775 2175 1050 
z
" transform="scale(0.015625)"/>
       <path id="SimHei-64" d="M 2750 125 
L 2250 125 
L 2250 500 
Q 2100 275 1900 175 
Q 1700 75 1425 75 
Q 925 75 575 437 
Q 225 800 225 1525 
Q 225 2250 575 2625 
Q 925 3000 1425 3000 
Q 1700 3000 1900 2887 
Q 2100 2775 2250 2550 
L 2250 4400 
L 2750 4400 
L 2750 125 
z
M 2250 1525 
Q 2250 2000 2037 2275 
Q 1825 2550 1525 2550 
Q 1150 2550 962 2275 
Q 775 2000 775 1525 
Q 775 1050 962 787 
Q 1150 525 1525 525 
Q 1825 525 2037 787 
Q 2250 1050 2250 1525 
z
" transform="scale(0.015625)"/>
      </defs>
      <use xlink:href="#SimHei-5e73"/>
      <use xlink:href="#SimHei-5747" x="100"/>
      <use xlink:href="#SimHei-72" x="200"/>
      <use xlink:href="#SimHei-65" x="250"/>
      <use xlink:href="#SimHei-77" x="300"/>
      <use xlink:href="#SimHei-61" x="350"/>
      <use xlink:href="#SimHei-72" x="400"/>
      <use xlink:href="#SimHei-64" x="450"/>
     </g>
    </g>
   </g>
   <g id="line2d_27">
    <path d="M 0 0 
" clip-path="url(#p7e73b1a9e2)" style="fill: none; stroke-dasharray: 7.4,3.2; stroke-dashoffset: 0; stroke: #008000; stroke-width: 2"/>
   </g>
   <g id="line2d_28">
    <path d="M 90 349.004291 
L 92.232 225.444052 
L 93.348 227.98526 
L 94.464 195.257418 
L 95.58 126.68528 
L 96.696 134.658164 
L 97.812 116.85093 
L 98.928 102.899056 
L 100.044 91.964677 
L 101.16 86.61498 
L 102.276 93.933533 
L 103.392 85.907516 
L 104.508 85.553623 
L 105.624 84.651142 
L 106.74 84.365539 
L 107.856 85.945883 
L 108.972 83.471979 
L 110.088 84.591342 
L 111.204 83.578951 
L 112.32 83.998529 
L 114.552 84.27205 
L 115.668 85.307429 
L 116.784 82.22862 
L 117.9 82.8729 
L 119.016 82.003004 
L 120.132 81.716436 
L 121.248 82.524629 
L 122.364 82.432104 
L 123.48 82.97493 
L 124.596 83.999942 
L 125.712 82.34465 
L 126.828 83.98268 
L 127.944 83.479105 
L 129.06 82.349499 
L 130.176 82.924789 
L 131.292 82.490647 
L 132.408 90.437167 
L 133.524 83.89682 
L 134.64 83.008985 
L 135.756 86.632856 
L 136.872 83.470748 
L 137.988 83.628083 
L 139.104 82.420558 
L 140.22 84.921339 
L 141.336 84.957241 
L 142.452 85.248399 
L 143.568 84.181326 
L 144.684 84.174286 
L 145.8 84.482209 
L 146.916 82.579759 
L 148.032 85.900769 
L 149.148 82.870589 
L 150.264 83.718356 
L 151.38 86.294836 
L 152.496 83.596586 
L 153.612 84.422919 
L 154.728 92.339614 
L 155.844 84.016822 
L 156.96 81.595708 
L 158.076 81.588795 
L 159.192 83.998142 
L 160.308 82.300475 
L 161.424 82.192071 
L 162.54 79.897842 
L 163.656 81.855717 
L 164.772 81.440657 
L 165.888 82.764149 
L 167.004 82.372949 
L 169.236 83.289172 
L 170.352 82.51396 
L 171.468 81.110466 
L 172.584 83.514 
L 173.7 81.364837 
L 174.816 80.822952 
L 175.932 82.467794 
L 177.048 76.890441 
L 178.164 79.162769 
L 179.28 84.187598 
L 180.396 81.751074 
L 181.512 83.262735 
L 182.628 83.688459 
L 183.744 79.979595 
L 184.86 80.239147 
L 187.092 81.705169 
L 188.208 78.630258 
L 189.324 81.389228 
L 190.44 77.477032 
L 191.556 77.981216 
L 192.672 79.68617 
L 193.788 75.751191 
L 194.904 80.429029 
L 196.02 79.922829 
L 197.136 80.384308 
L 198.252 79.385245 
L 199.368 78.066838 
L 200.484 79.703106 
L 201.6 80.66444 
L 202.716 79.029157 
L 203.832 78.224524 
L 204.948 79.830245 
L 206.064 79.107171 
L 207.18 77.493661 
L 208.296 79.818426 
L 209.412 79.549309 
L 210.528 78.366942 
L 211.644 78.208148 
L 212.76 79.524373 
L 213.876 79.825878 
L 214.992 78.022414 
L 216.108 78.580798 
L 217.224 76.760345 
L 218.34 78.110362 
L 219.456 77.008712 
L 220.572 79.278189 
L 221.688 77.628557 
L 222.804 79.106425 
L 223.92 79.467268 
L 225.036 75.223891 
L 227.268 76.455234 
L 228.384 75.332668 
L 229.5 77.849268 
L 230.616 77.735231 
L 231.732 76.521474 
L 232.848 75.741187 
L 233.964 75.296461 
L 235.08 77.794356 
L 236.196 73.235678 
L 237.312 72.68007 
L 238.428 74.896091 
L 239.544 75.994227 
L 240.66 74.154955 
L 241.776 75.471908 
L 242.892 73.197014 
L 244.008 75.482156 
L 245.124 76.155244 
L 246.24 74.932491 
L 247.356 75.750227 
L 248.472 74.944446 
L 249.588 75.034535 
L 250.704 75.281638 
L 251.82 76.520804 
L 252.936 75.826866 
L 254.052 75.424154 
L 255.168 76.673209 
L 256.284 75.257023 
L 257.4 76.883878 
L 258.516 76.85091 
L 259.632 77.985759 
L 260.748 76.110308 
L 261.864 75.198528 
L 262.98 76.200684 
L 264.096 77.752484 
L 265.212 74.131483 
L 266.328 75.805946 
L 267.444 76.095375 
L 268.56 74.959197 
L 270.792 75.153928 
L 271.908 76.408185 
L 273.024 73.03939 
L 274.14 77.375095 
L 275.256 77.560056 
L 276.372 76.007719 
L 277.488 76.281106 
L 278.604 75.590277 
L 280.836 76.981889 
L 281.952 76.195449 
L 283.068 74.986371 
L 284.184 74.990212 
L 285.3 72.417343 
L 286.416 75.585028 
L 287.532 73.242368 
L 288.648 75.707002 
L 289.764 75.806509 
L 291.996 74.75794 
L 293.112 75.488523 
L 294.228 73.097264 
L 295.344 74.195937 
L 296.46 75.031828 
L 297.576 74.306846 
L 298.692 74.78777 
L 299.808 75.859097 
L 300.924 75.42771 
L 302.04 74.722913 
L 303.156 75.290422 
L 304.272 74.317883 
L 305.388 75.39322 
L 306.504 74.581529 
L 307.62 75.04729 
L 308.736 73.802906 
L 309.852 76.329979 
L 310.968 73.966635 
L 312.084 73.556763 
L 313.2 72.880082 
L 314.316 77.129388 
L 315.432 75.314827 
L 316.548 73.795669 
L 317.664 73.647025 
L 318.78 75.767682 
L 319.896 75.336377 
L 321.012 73.010381 
L 322.128 75.882018 
L 323.244 74.974323 
L 324.36 73.226547 
L 325.476 75.176611 
L 326.592 76.469755 
L 327.708 72.849489 
L 329.94 72.006118 
L 331.056 74.98162 
L 332.172 73.62691 
L 333.288 73.223544 
L 334.404 74.384478 
L 335.52 75.999994 
L 336.636 74.579299 
L 337.752 75.039333 
L 338.868 75.715506 
L 339.984 73.150863 
L 341.1 75.462375 
L 342.216 73.394327 
L 343.332 73.957926 
L 344.448 74.919005 
L 345.564 75.086846 
L 346.68 75.137846 
L 347.796 74.956247 
L 348.912 75.212974 
L 350.028 74.073013 
L 351.144 74.265935 
L 352.26 74.334763 
L 353.376 74.903144 
L 354.492 74.41094 
L 355.608 74.514737 
L 356.724 74.060038 
L 357.84 74.792712 
L 358.956 75.330104 
L 360.072 75.436506 
L 361.188 75.839987 
L 362.304 74.921888 
L 363.42 73.642332 
L 364.536 74.845771 
L 365.652 73.911533 
L 366.768 74.024202 
L 367.884 72.675402 
L 369 72.353472 
L 370.116 70.079236 
L 371.232 72.287215 
L 372.348 73.958834 
L 373.464 74.414362 
L 374.58 74.227598 
L 375.696 75.129292 
L 376.812 73.508459 
L 377.928 74.075104 
L 379.044 72.611363 
L 380.16 73.893362 
L 381.276 73.645458 
L 382.392 74.171923 
L 383.508 73.449447 
L 384.624 75.036849 
L 385.74 73.195043 
L 386.856 69.883967 
L 387.972 73.87629 
L 389.088 73.369881 
L 390.204 74.09471 
L 391.32 74.443572 
L 392.436 74.140187 
L 393.552 74.218032 
L 395.784 73.781765 
L 396.9 72.989902 
L 398.016 72.000539 
L 399.132 72.113226 
L 400.248 74.493788 
L 401.364 73.260208 
L 402.48 72.547158 
L 403.596 72.480852 
L 404.712 72.910696 
L 405.828 74.247112 
L 406.944 71.793625 
L 408.06 73.12527 
L 409.176 73.879907 
L 410.292 71.135342 
L 411.408 73.839924 
L 412.524 74.580252 
L 413.64 74.153086 
L 414.756 72.478534 
L 415.872 75.045963 
L 416.988 69.766266 
L 418.104 73.242865 
L 419.22 73.417724 
L 420.336 71.971854 
L 421.452 72.573922 
L 422.568 74.348699 
L 423.684 73.263144 
L 424.8 74.532897 
L 425.916 73.452513 
L 427.032 70.265703 
L 428.148 73.694621 
L 429.264 72.089003 
L 430.38 72.802187 
L 431.496 74.090253 
L 432.612 72.689995 
L 433.728 74.086343 
L 434.844 71.989249 
L 435.96 72.630275 
L 437.076 71.100302 
L 438.192 73.729483 
L 439.308 72.714283 
L 440.424 73.670963 
L 441.54 73.500335 
L 442.656 73.016315 
L 443.772 71.771693 
L 444.888 71.999291 
L 446.004 72.757394 
L 447.12 71.254606 
L 448.236 72.958153 
L 449.352 72.3999 
L 450.468 72.109399 
L 451.584 73.348018 
L 452.7 73.458328 
L 453.816 70.490407 
L 454.932 71.825568 
L 456.048 69.851322 
L 457.164 72.262554 
L 458.28 72.884321 
L 459.396 70.270351 
L 460.512 73.430564 
L 461.628 71.647514 
L 462.744 73.363624 
L 463.86 69.234771 
L 464.976 73.172714 
L 466.092 70.880848 
L 467.208 73.52094 
L 468.324 71.501015 
L 469.44 72.463115 
L 470.556 69.576308 
L 471.672 70.346898 
L 472.788 70.953872 
L 473.904 69.08856 
L 475.02 73.599367 
L 476.136 71.498551 
L 477.252 72.163799 
L 478.368 72.129181 
L 479.484 73.330487 
L 480.6 68.6381 
L 481.716 73.352754 
L 482.832 73.135311 
L 483.948 68.616846 
L 485.064 72.500998 
L 486.18 70.349499 
L 487.296 71.860191 
L 488.412 73.57218 
L 490.644 73.643427 
L 491.76 71.540254 
L 492.876 72.303648 
L 493.992 72.912759 
L 495.108 73.203137 
L 496.224 73.141234 
L 497.34 71.427441 
L 498.456 73.083821 
L 499.572 73.128566 
L 500.688 72.534603 
L 501.804 72.970002 
L 502.92 73.172243 
L 504.036 73.935058 
L 505.152 74.179259 
L 506.268 72.920307 
L 507.384 72.754733 
L 508.5 73.098428 
L 509.616 73.807972 
L 510.732 73.704775 
L 511.848 72.475895 
L 512.964 73.545348 
L 514.08 71.542849 
L 515.196 72.922236 
L 516.312 73.742043 
L 517.428 72.775902 
L 518.544 71.074377 
L 519.66 71.96152 
L 520.776 71.701595 
L 521.892 70.793506 
L 523.008 71.446733 
L 524.124 70.187061 
L 525.24 71.449075 
L 526.356 71.069359 
L 527.472 71.417974 
L 528.588 72.052683 
L 529.704 71.829294 
L 530.82 71.076893 
L 531.936 73.176726 
L 533.052 72.954686 
L 534.168 69.570072 
L 535.284 71.126271 
L 536.4 68.171576 
L 537.516 67.904493 
L 538.632 73.429933 
L 539.748 72.342863 
L 540.864 69.948115 
L 541.98 73.634658 
L 543.096 70.524555 
L 544.212 73.712251 
L 545.328 73.240664 
L 546.444 71.610109 
L 547.56 67.623234 
L 548.676 67.974454 
L 549.792 71.388462 
L 550.908 71.845999 
L 552.024 73.230252 
L 553.14 69.357988 
L 554.256 72.195165 
L 555.372 73.019524 
L 556.488 70.560823 
L 557.604 71.162329 
L 558.72 72.839503 
L 559.836 71.573513 
L 560.952 69.642183 
L 562.068 71.451726 
L 563.184 66.764919 
L 564.3 74.186025 
L 565.416 72.598812 
L 566.532 72.056562 
L 567.648 69.930264 
L 568.764 69.459144 
L 569.88 71.921262 
L 570.996 72.466817 
L 572.112 69.549144 
L 573.228 72.986688 
L 574.344 73.314512 
L 575.46 72.426696 
L 576.576 68.758846 
L 577.692 66.188855 
L 578.808 68.331532 
L 579.924 73.231363 
L 581.04 73.815692 
L 582.156 73.505407 
L 583.272 73.508281 
L 584.388 72.538655 
L 585.504 69.568888 
L 586.62 72.629445 
L 587.736 70.996103 
L 588.852 73.541422 
L 589.968 72.146214 
L 591.084 67.973356 
L 593.316 72.273023 
L 594.432 68.18437 
L 595.548 68.249395 
L 596.664 70.313254 
L 597.78 73.26151 
L 598.896 72.71486 
L 600.012 71.433526 
L 601.128 67.141557 
L 602.244 68.42494 
L 603.36 67.87895 
L 604.476 66.672264 
L 605.592 69.50194 
L 606.708 70.767766 
L 607.824 68.70633 
L 608.94 71.692893 
L 611.172 66.878723 
L 612.288 71.549468 
L 613.404 71.7572 
L 614.52 69.984002 
L 615.636 71.472365 
L 616.752 69.431126 
L 617.868 68.478353 
L 618.984 72.804053 
L 620.1 69.777041 
L 621.216 71.104726 
L 622.332 67.109071 
L 623.448 73.380703 
L 624.564 67.155762 
L 625.68 70.882152 
L 626.796 70.666831 
L 627.912 68.522488 
L 629.028 70.032736 
L 630.144 69.790414 
L 631.26 68.34458 
L 632.376 72.967751 
L 633.492 71.729013 
L 634.608 72.314523 
L 635.724 70.340378 
L 636.84 68.796459 
L 637.956 69.373117 
L 639.072 71.877633 
L 640.188 68.147322 
L 641.304 67.186976 
L 642.42 68.287257 
L 644.652 73.377959 
L 645.768 71.162319 
L 646.884 68.545494 
L 646.884 68.545494 
" clip-path="url(#p7e73b1a9e2)" style="fill: none; stroke-dasharray: 7.4,3.2; stroke-dashoffset: 0; stroke: #ffa500; stroke-width: 2"/>
   </g>
   <g id="patch_3">
    <path d="M 90 384.48 
L 90 51.84 
" style="fill: none; stroke: #000000; stroke-width: 0.8; stroke-linejoin: miter; stroke-linecap: square"/>
   </g>
   <g id="patch_4">
    <path d="M 648 384.48 
L 648 51.84 
" style="fill: none; stroke: #000000; stroke-width: 0.8; stroke-linejoin: miter; stroke-linecap: square"/>
   </g>
   <g id="patch_5">
    <path d="M 90 384.48 
L 648 384.48 
" style="fill: none; stroke: #000000; stroke-width: 0.8; stroke-linejoin: miter; stroke-linecap: square"/>
   </g>
   <g id="patch_6">
    <path d="M 90 51.84 
L 648 51.84 
" style="fill: none; stroke: #000000; stroke-width: 0.8; stroke-linejoin: miter; stroke-linecap: square"/>
   </g>
   <g id="legend_1">
    <g id="patch_7">
     <path d="M 550.8 375.48 
L 635.4 375.48 
Q 639 375.48 639 371.88 
L 639 325.98 
Q 639 322.38 635.4 322.38 
L 550.8 322.38 
Q 547.2 322.38 547.2 325.98 
L 547.2 371.88 
Q 547.2 375.48 550.8 375.48 
z
" style="fill: #ffffff; opacity: 0.8; stroke: #cccccc; stroke-linejoin: miter"/>
    </g>
    <g id="line2d_29">
     <path d="M 554.4 335.88 
L 572.4 335.88 
L 590.4 335.88 
" style="fill: none; stroke-dasharray: 7.4,3.2; stroke-dashoffset: 0; stroke: #008000; stroke-width: 2"/>
    </g>
    <g id="text_16">
     <!-- ppo -->
     <g transform="translate(604.8 342.18) scale(0.18 -0.18)">
      <defs>
       <path id="SimHei-70" d="M 2825 1525 
Q 2825 800 2475 425 
Q 2125 50 1625 50 
Q 1350 50 1150 162 
Q 950 275 800 500 
L 800 -800 
L 300 -800 
L 300 2925 
L 800 2925 
L 800 2550 
Q 950 2775 1150 2875 
Q 1350 2975 1625 2975 
Q 2125 2975 2475 2612 
Q 2825 2250 2825 1525 
z
M 2275 1525 
Q 2275 2000 2087 2262 
Q 1900 2525 1525 2525 
Q 1225 2525 1012 2262 
Q 800 2000 800 1525 
Q 800 1050 1012 775 
Q 1225 500 1525 500 
Q 1900 500 2087 775 
Q 2275 1050 2275 1525 
z
" transform="scale(0.015625)"/>
       <path id="SimHei-6f" d="M 2925 1525 
Q 2925 875 2525 475 
Q 2125 75 1575 75 
Q 1025 75 625 475 
Q 225 875 225 1525 
Q 225 2175 625 2575 
Q 1025 2975 1575 2975 
Q 2125 2975 2525 2575 
Q 2925 2175 2925 1525 
z
M 2375 1525 
Q 2375 2025 2125 2275 
Q 1875 2525 1575 2525 
Q 1275 2525 1025 2275 
Q 775 2025 775 1525 
Q 775 1025 1025 775 
Q 1275 525 1575 525 
Q 1875 525 2125 775 
Q 2375 1025 2375 1525 
z
" transform="scale(0.015625)"/>
      </defs>
      <use xlink:href="#SimHei-70"/>
      <use xlink:href="#SimHei-70" x="50"/>
      <use xlink:href="#SimHei-6f" x="100"/>
     </g>
    </g>
    <g id="line2d_30">
     <path d="M 554.4 359.73 
L 572.4 359.73 
L 590.4 359.73 
" style="fill: none; stroke-dasharray: 7.4,3.2; stroke-dashoffset: 0; stroke: #ffa500; stroke-width: 2"/>
    </g>
    <g id="text_17">
     <!-- sac -->
     <g transform="translate(604.8 366.03) scale(0.18 -0.18)">
      <defs>
       <path id="SimHei-73" d="M 2750 900 
Q 2750 500 2437 287 
Q 2125 75 1650 75 
Q 1050 75 725 312 
Q 400 550 400 1000 
L 900 1000 
Q 900 700 1112 600 
Q 1325 500 1625 500 
Q 1925 500 2075 612 
Q 2225 725 2225 900 
Q 2225 1025 2100 1150 
Q 1975 1275 1475 1350 
Q 900 1425 687 1637 
Q 475 1850 475 2200 
Q 475 2500 762 2737 
Q 1050 2975 1600 2975 
Q 2100 2975 2387 2750 
Q 2675 2525 2675 2150 
L 2175 2150 
Q 2175 2375 2012 2462 
Q 1850 2550 1600 2550 
Q 1275 2550 1137 2437 
Q 1000 2325 1000 2175 
Q 1000 2000 1125 1900 
Q 1250 1800 1650 1750 
Q 2300 1650 2525 1437 
Q 2750 1225 2750 900 
z
" transform="scale(0.015625)"/>
       <path id="SimHei-63" d="M 2850 1250 
Q 2850 725 2487 400 
Q 2125 75 1575 75 
Q 1025 75 625 462 
Q 225 850 225 1525 
Q 225 2200 625 2587 
Q 1025 2975 1575 2975 
Q 2125 2975 2450 2687 
Q 2775 2400 2775 2000 
L 2225 2000 
Q 2200 2300 2012 2412 
Q 1825 2525 1575 2525 
Q 1275 2525 1025 2287 
Q 775 2050 775 1525 
Q 775 1000 1025 762 
Q 1275 525 1575 525 
Q 1900 525 2100 700 
Q 2300 875 2300 1250 
L 2850 1250 
z
" transform="scale(0.015625)"/>
      </defs>
      <use xlink:href="#SimHei-73"/>
      <use xlink:href="#SimHei-61" x="50"/>
      <use xlink:href="#SimHei-63" x="100"/>
     </g>
    </g>
   </g>
  </g>
 </g>
 <defs>
  <clipPath id="p7e73b1a9e2">
   <rect x="90" y="51.84" width="558" height="332.64"/>
  </clipPath>
 </defs>
</svg>
